Equateur-Regular.ufo
<glyph name="exclam" format="2">
	<advance width="251"/>
	<unicode hex="0021"/>
	<outline>
		<contour>
			<point x="122" y="200" type="curve"/>
			<point x="129" y="200" type="line"/>
			<point x="129" y="200"/>
			<point x="148" y="473"/>
			<point x="182" y="601" type="curve" smooth="yes"/>
			<point x="200" y="668" type="line"/>
			<point x="126" y="756" type="line"/>
			<point x="51" y="668" type="line"/>
			<point x="69" y="601" type="line" smooth="yes"/>
			<point x="103" y="473"/>
			<point x="122" y="200"/>
		</contour>
		<contour>
			<point x="125" y="-28" type="line"/>
			<point x="211" y="56" type="line"/>
			<point x="125" y="142" type="line"/>
			<point x="40" y="56" type="line"/>
		</contour>
	</outline>
</glyph>
<glyph name="numbersign" format="2">
	<advance width="593"/>
	<unicode hex="0023"/>
	<outline>
		<contour>
			<point x="256" y="0" type="line"/>
			<point x="272" y="0" type="line"/>
			<point x="538" y="700" type="line"/>
			<point x="522" y="700" type="line"/>
		</contour>
		<contour>
			<point x="10" y="254" type="line"/>
			<point x="514" y="254" type="line"/>
			<point x="526" y="268" type="line"/>
			<point x="20" y="268" type="line"/>
		</contour>
		<contour>
			<point x="53" y="0" type="line"/>
			<point x="69" y="0" type="line"/>
			<point x="335" y="700" type="line"/>
			<point x="319" y="700" type="line"/>
		</contour>
		<contour>
			<point x="85" y="486" type="line"/>
			<point x="587" y="486" type="line"/>
			<point x="599" y="500" type="line"/>
			<point x="95" y="500" type="line"/>
		</contour>
	</outline>
</glyph>
<glyph name="dollar" format="2">
	<advance width="606"/>
	<unicode hex="0024"/>
	<outline>
		<contour>
			<point x="300" y="-15" type="curve" smooth="yes"/>
			<point x="439" y="-15"/>
			<point x="576" y="64"/>
			<point x="576" y="199" type="curve" smooth="yes"/>
			<point x="576" y="283"/>
			<point x="524" y="349"/>
			<point x="450" y="371" type="curve" smooth="yes"/>
			<point x="276" y="423" type="line" smooth="yes"/>
			<point x="213" y="442"/>
			<point x="164" y="475"/>
			<point x="164" y="528" type="curve" smooth="yes"/>
			<point x="164" y="573"/>
			<point x="213" y="628"/>
			<point x="285" y="628" type="curve" smooth="yes"/>
			<point x="377" y="628"/>
			<point x="465" y="559"/>
			<point x="465" y="484" type="curve" smooth="yes"/>
			<point x="465" y="432"/>
			<point x="457" y="401"/>
			<point x="457" y="401" type="curve"/>
			<point x="463" y="399" type="line"/>
			<point x="544" y="607" type="line"/>
			<point x="491" y="642"/>
			<point x="408" y="667"/>
			<point x="333" y="667" type="curve" smooth="yes"/>
			<point x="195" y="667"/>
			<point x="77" y="581"/>
			<point x="77" y="465" type="curve" smooth="yes"/>
			<point x="77" y="402"/>
			<point x="109" y="349"/>
			<point x="177" y="327" type="curve" smooth="yes"/>
			<point x="377" y="262" type="line" smooth="yes"/>
			<point x="431" y="244"/>
			<point x="485" y="195"/>
			<point x="485" y="136" type="curve" smooth="yes"/>
			<point x="485" y="69"/>
			<point x="414" y="24"/>
			<point x="335" y="24" type="curve" smooth="yes"/>
			<point x="216" y="24"/>
			<point x="114" y="128"/>
			<point x="114" y="224" type="curve" smooth="yes"/>
			<point x="114" y="259"/>
			<point x="127" y="318"/>
			<point x="127" y="318" type="curve"/>
			<point x="121" y="321" type="line"/>
			<point x="10" y="108" type="line"/>
			<point x="73" y="32"/>
			<point x="192" y="-15"/>
		</contour>
		<contour>
			<point x="238" y="-80" type="line"/>
			<point x="249" y="-80" type="line"/>
			<point x="302" y="750" type="line"/>
			<point x="291" y="750" type="line"/>
		</contour>
		<contour>
			<point x="328" y="-80" type="line"/>
			<point x="339" y="-80" type="line"/>
			<point x="392" y="750" type="line"/>
			<point x="381" y="750" type="line"/>
		</contour>
	</outline>
</glyph>
<glyph name="percent" format="2">
	<advance width="671"/>
	<unicode hex="0025"/>
	<outline>
		<contour>
			<point x="80" y="0" type="line"/>
			<point x="100" y="0" type="line"/>
			<point x="578" y="700" type="line"/>
			<point x="558" y="700" type="line"/>
		</contour>
		<contour>
			<point x="495" y="-10" type="curve" smooth="yes"/>
			<point x="577" y="-10"/>
			<point x="631" y="55"/>
			<point x="631" y="133" type="curve" smooth="yes"/>
			<point x="631" y="201"/>
			<point x="577" y="277"/>
			<point x="495" y="277" type="curve" smooth="yes"/>
			<point x="414" y="277"/>
			<point x="360" y="201"/>
			<point x="360" y="133" type="curve" smooth="yes"/>
			<point x="360" y="55"/>
			<point x="414" y="-10"/>
		</contour>
		<contour>
			<point x="494" y="6" type="curve" smooth="yes"/>
			<point x="416" y="6"/>
			<point x="378" y="69"/>
			<point x="378" y="133" type="curve" smooth="yes"/>
			<point x="378" y="189"/>
			<point x="416" y="261"/>
			<point x="494" y="261" type="curve" smooth="yes"/>
			<point x="573" y="261"/>
			<point x="615" y="189"/>
			<point x="615" y="133" type="curve" smooth="yes"/>
			<point x="615" y="69"/>
			<point x="573" y="6"/>
		</contour>
		<contour>
			<point x="175" y="422" type="curve" smooth="yes"/>
			<point x="257" y="422"/>
			<point x="311" y="487"/>
			<point x="311" y="565" type="curve" smooth="yes"/>
			<point x="311" y="633"/>
			<point x="257" y="709"/>
			<point x="175" y="709" type="curve" smooth="yes"/>
			<point x="94" y="709"/>
			<point x="40" y="633"/>
			<point x="40" y="565" type="curve" smooth="yes"/>
			<point x="40" y="487"/>
			<point x="94" y="422"/>
		</contour>
		<contour>
			<point x="174" y="438" type="curve" smooth="yes"/>
			<point x="96" y="438"/>
			<point x="58" y="501"/>
			<point x="58" y="565" type="curve" smooth="yes"/>
			<point x="58" y="621"/>
			<point x="96" y="693"/>
			<point x="174" y="693" type="curve" smooth="yes"/>
			<point x="253" y="693"/>
			<point x="295" y="621"/>
			<point x="295" y="565" type="curve" smooth="yes"/>
			<point x="295" y="501"/>
			<point x="253" y="438"/>
		</contour>
	</outline>
</glyph>
<glyph name="ampersand" format="2">
	<advance width="859"/>
	<unicode hex="0026"/>
	<outline>
		<contour>
			<point x="251" y="-14" type="curve" smooth="yes"/>
			<point x="408" y="-14"/>
			<point x="478" y="68"/>
			<point x="548" y="153" type="curve" smooth="yes"/>
			<point x="632" y="255" type="line" smooth="yes"/>
			<point x="691" y="327"/>
			<point x="730" y="391"/>
			<point x="828" y="428" type="curve"/>
			<point x="828" y="431" type="line"/>
			<point x="384" y="431" type="line"/>
			<point x="384" y="424" type="line"/>
			<point x="596" y="410" type="line" smooth="yes"/>
			<point x="634" y="408"/>
			<point x="647" y="386"/>
			<point x="647" y="365" type="curve" smooth="yes"/>
			<point x="647" y="344"/>
			<point x="638" y="319"/>
			<point x="604" y="276" type="curve" smooth="yes"/>
			<point x="527" y="178" type="line" smooth="yes"/>
			<point x="487" y="127"/>
			<point x="414" y="52"/>
			<point x="311" y="52" type="curve" smooth="yes"/>
			<point x="212" y="52"/>
			<point x="156" y="131"/>
			<point x="156" y="207" type="curve" smooth="yes"/>
			<point x="156" y="308"/>
			<point x="214" y="371"/>
			<point x="309" y="401" type="curve" smooth="yes"/>
			<point x="372" y="421" type="line" smooth="yes"/>
			<point x="480" y="455"/>
			<point x="552" y="500"/>
			<point x="552" y="576" type="curve" smooth="yes"/>
			<point x="552" y="650"/>
			<point x="479" y="711"/>
			<point x="385" y="711" type="curve" smooth="yes"/>
			<point x="280" y="711"/>
			<point x="185" y="635"/>
			<point x="185" y="549" type="curve" smooth="yes"/>
			<point x="185" y="493"/>
			<point x="220" y="457"/>
			<point x="251" y="426" type="curve" smooth="yes"/>
			<point x="639" y="39" type="line"/>
			<point x="516" y="6" type="line"/>
			<point x="516" y="0" type="line"/>
			<point x="894" y="0" type="line"/>
			<point x="894" y="6" type="line"/>
			<point x="767" y="43" type="line"/>
			<point x="369" y="455" type="line" smooth="yes"/>
			<point x="323" y="503"/>
			<point x="290" y="549"/>
			<point x="290" y="595" type="curve" smooth="yes"/>
			<point x="290" y="644"/>
			<point x="310" y="686"/>
			<point x="365" y="686" type="curve" smooth="yes"/>
			<point x="428" y="686"/>
			<point x="445" y="617"/>
			<point x="445" y="577" type="curve" smooth="yes"/>
			<point x="445" y="533"/>
			<point x="428" y="466"/>
			<point x="356" y="443" type="curve" smooth="yes"/>
			<point x="272" y="416" type="line" smooth="yes"/>
			<point x="207" y="395"/>
			<point x="35" y="334"/>
			<point x="35" y="178" type="curve" smooth="yes"/>
			<point x="35" y="77"/>
			<point x="128" y="-14"/>
		</contour>
	</outline>
</glyph>
<glyph name="quotesingle" format="2">
	<advance width="94"/>
	<unicode hex="0027"/>
	<outline>
		<contour>
			<point x="40" y="500" type="line"/>
			<point x="54" y="500" type="line"/>
			<point x="54" y="750" type="line"/>
			<point x="40" y="750" type="line"/>
		</contour>
	</outline>
</glyph>
<glyph name="parenleft" format="2">
	<advance width="192"/>
	<unicode hex="0028"/>
	<outline>
		<contour>
			<point x="171" y="-101" type="curve"/>
			<point x="179" y="-87" type="line"/>
			<point x="179" y="-87"/>
			<point x="27" y="44"/>
			<point x="27" y="323" type="curve" smooth="yes"/>
			<point x="27" y="554"/>
			<point x="182" y="751"/>
			<point x="182" y="751" type="curve"/>
			<point x="171" y="762" type="line"/>
			<point x="171" y="762"/>
			<point x="10" y="559"/>
			<point x="10" y="323" type="curve" smooth="yes"/>
			<point x="10" y="39"/>
			<point x="171" y="-101"/>
		</contour>
	</outline>
</glyph>
<glyph name="asterisk" format="2">
	<advance width="460"/>
	<unicode hex="002A"/>
	<outline>
		<contour>
			<point x="242" y="545" type="line"/>
			<point x="406" y="592" type="line"/>
			<point x="440" y="657" type="line"/>
			<point x="368" y="661" type="line"/>
		</contour>
		<contour>
			<point x="90" y="418" type="line"/>
			<point x="218" y="532" type="line"/>
			<point x="54" y="484" type="line"/>
			<point x="20" y="420" type="line"/>
		</contour>
		<contour>
			<point x="227" y="294" type="line"/>
			<point x="265" y="354" type="line"/>
			<point x="228" y="523" type="line"/>
			<point x="189" y="354" type="line"/>
		</contour>
		<contour>
			<point x="218" y="545" type="line"/>
			<point x="90" y="661" type="line"/>
			<point x="20" y="657" type="line"/>
			<point x="54" y="592" type="line"/>
		</contour>
		<contour>
			<point x="368" y="418" type="line"/>
			<point x="440" y="420" type="line"/>
			<point x="406" y="484" type="line"/>
			<point x="242" y="532" type="line"/>
		</contour>
		<contour>
			<point x="228" y="554" type="line"/>
			<point x="265" y="722" type="line"/>
			<point x="227" y="782" type="line"/>
			<point x="189" y="722" type="line"/>
		</contour>
	</outline>
</glyph>
<glyph name="plus" format="2">
	<advance width="512"/>
	<unicode hex="002B"/>
	<outline>
		<contour>
			<point x="249" y="146" type="line"/>
			<point x="263" y="146" type="line"/>
			<point x="263" y="532" type="line"/>
			<point x="249" y="532" type="line"/>
		</contour>
		<component base="minus"/>
	</outline>
</glyph>
<glyph name="comma" format="2">
	<advance width="229"/>
	<unicode hex="002C"/>
	<outline>
		<contour>
			<point x="13" y="-126" type="line"/>
			<point x="175" y="-58"/>
			<point x="229" y="66"/>
			<point x="229" y="66" type="curve"/>
			<point x="143" y="152" type="line"/>
			<point x="58" y="66" type="line"/>
			<point x="105" y="19" type="line"/>
			<point x="105" y="19"/>
			<point x="111" y="-50"/>
			<point x="10" y="-120" type="curve"/>
		</contour>
	</outline>
</glyph>
<glyph name="hyphen" format="2">
	<advance width="360"/>
	<unicode hex="002D"/>
	<outline>
		<contour>
			<point x="20" y="221" type="line"/>
			<point x="309" y="221" type="line"/>
			<point x="340" y="297" type="line"/>
			<point x="51" y="297" type="line"/>
		</contour>
	</outline>
</glyph>
<glyph name="period" format="2">
	<advance width="211"/>
	<unicode hex="002E"/>
	<outline>
		<contour>
			<point x="125" y="-18" type="line"/>
			<point x="211" y="66" type="line"/>
			<point x="125" y="152" type="line"/>
			<point x="40" y="66" type="line"/>
		</contour>
	</outline>
</glyph>
<glyph name="zero" format="2">
	<advance width="559"/>
	<unicode hex="0030"/>
	<outline>
		<contour>
			<point x="279" y="-14" type="curve" smooth="yes"/>
			<point x="456" y="-14"/>
			<point x="549" y="189"/>
			<point x="549" y="349" type="curve" smooth="yes"/>
			<point x="549" y="509"/>
			<point x="456" y="712"/>
			<point x="279" y="712" type="curve" smooth="yes"/>
			<point x="103" y="712"/>
			<point x="10" y="509"/>
			<point x="10" y="349" type="curve" smooth="yes"/>
			<point x="10" y="189"/>
			<point x="103" y="-14"/>
		</contour>
		<contour>
			<point x="279" y="16" type="curve" smooth="yes"/>
			<point x="183" y="16"/>
			<point x="140" y="217"/>
			<point x="140" y="349" type="curve" smooth="yes"/>
			<point x="140" y="481"/>
			<point x="183" y="682"/>
			<point x="279" y="682" type="curve" smooth="yes"/>
			<point x="376" y="682"/>
			<point x="419" y="481"/>
			<point x="419" y="349" type="curve" smooth="yes"/>
			<point x="419" y="217"/>
			<point x="376" y="16"/>
		</contour>
	</outline>
</glyph>
<glyph name="one" format="2">
	<advance width="434"/>
	<unicode hex="0031"/>
	<outline>
		<contour>
			<point x="20" y="0" type="line"/>
			<point x="434" y="0" type="line"/>
			<point x="434" y="5" type="line"/>
			<point x="295" y="45" type="line"/>
			<point x="295" y="700" type="line"/>
			<point x="290" y="702" type="line"/>
			<point x="252" y="673"/>
			<point x="213" y="646"/>
			<point x="172" y="621" type="curve" smooth="yes"/>
			<point x="127" y="593"/>
			<point x="74" y="564"/>
			<point x="27" y="541" type="curve"/>
			<point x="28" y="535" type="line"/>
			<point x="166" y="573" type="line"/>
			<point x="166" y="45" type="line"/>
			<point x="20" y="5" type="line"/>
		</contour>
	</outline>
</glyph>
<glyph name="two" format="2">
	<advance width="563"/>
	<unicode hex="0032"/>
	<outline>
		<contour>
			<point x="7" y="-1" type="line"/>
			<point x="466" y="-1" type="line"/>
			<point x="543" y="244" type="line"/>
			<point x="534" y="247" type="line"/>
			<point x="488" y="145"/>
			<point x="438" y="110"/>
			<point x="350" y="110" type="curve" smooth="yes"/>
			<point x="122" y="110" type="line"/>
			<point x="386" y="362" type="line" smooth="yes"/>
			<point x="421" y="396"/>
			<point x="487" y="462"/>
			<point x="487" y="547" type="curve" smooth="yes"/>
			<point x="487" y="636"/>
			<point x="414" y="714"/>
			<point x="291" y="714" type="curve" smooth="yes"/>
			<point x="171" y="714"/>
			<point x="99" y="639"/>
			<point x="48" y="562" type="curve"/>
			<point x="55" y="557" type="line"/>
			<point x="105" y="616"/>
			<point x="166" y="661"/>
			<point x="233" y="661" type="curve" smooth="yes"/>
			<point x="306" y="661"/>
			<point x="356" y="608"/>
			<point x="356" y="535" type="curve" smooth="yes"/>
			<point x="356" y="485"/>
			<point x="332" y="434"/>
			<point x="301" y="394" type="curve" smooth="yes"/>
			<point x="5" y="6" type="line"/>
		</contour>
	</outline>
</glyph>
<glyph name="three" format="2">
	<advance width="535"/>
	<unicode hex="0033"/>
	<outline>
		<contour>
			<point x="225" y="-11" type="curve" smooth="yes"/>
			<point x="380" y="-11"/>
			<point x="500" y="97"/>
			<point x="500" y="202" type="curve" smooth="yes"/>
			<point x="500" y="316"/>
			<point x="357" y="399"/>
			<point x="224" y="388" type="curve"/>
			<point x="322" y="426"/>
			<point x="434" y="497"/>
			<point x="434" y="583" type="curve" smooth="yes"/>
			<point x="434" y="657"/>
			<point x="352" y="711"/>
			<point x="258" y="711" type="curve" smooth="yes"/>
			<point x="142" y="711"/>
			<point x="80" y="629"/>
			<point x="38" y="560" type="curve"/>
			<point x="43" y="556" type="line"/>
			<point x="81" y="599"/>
			<point x="130" y="661"/>
			<point x="207" y="661" type="curve" smooth="yes"/>
			<point x="272" y="661"/>
			<point x="306" y="618"/>
			<point x="306" y="551" type="curve" smooth="yes"/>
			<point x="306" y="489"/>
			<point x="276" y="444"/>
			<point x="193" y="397" type="curve" smooth="yes"/>
			<point x="100" y="344" type="line"/>
			<point x="105" y="337" type="line"/>
			<point x="134" y="348"/>
			<point x="167" y="360"/>
			<point x="207" y="360" type="curve" smooth="yes"/>
			<point x="319" y="360"/>
			<point x="374" y="264"/>
			<point x="374" y="168" type="curve" smooth="yes"/>
			<point x="374" y="85"/>
			<point x="333" y="16"/>
			<point x="243" y="16" type="curve" smooth="yes"/>
			<point x="164" y="16"/>
			<point x="122" y="68"/>
			<point x="122" y="123" type="curve" smooth="yes"/>
			<point x="122" y="156"/>
			<point x="137" y="200"/>
			<point x="203" y="243" type="curve"/>
			<point x="200" y="249" type="line"/>
			<point x="102" y="209"/>
			<point x="10" y="151"/>
			<point x="10" y="99" type="curve" smooth="yes"/>
			<point x="10" y="43"/>
			<point x="115" y="-11"/>
		</contour>
	</outline>
</glyph>
<glyph name="four" format="2">
	<advance width="551"/>
	<unicode hex="0034"/>
	<outline>
		<contour>
			<point x="162" y="0" type="line"/>
			<point x="511" y="0" type="line"/>
			<point x="511" y="5" type="line"/>
			<point x="420" y="36" type="line"/>
			<point x="420" y="187" type="line"/>
			<point x="488" y="187" type="line"/>
			<point x="536" y="273" type="line"/>
			<point x="420" y="273" type="line"/>
			<point x="420" y="707" type="line"/>
			<point x="412" y="707" type="line"/>
			<point x="-10" y="192" type="line"/>
			<point x="-10" y="187" type="line"/>
			<point x="311" y="187" type="line"/>
			<point x="311" y="42" type="line"/>
			<point x="162" y="5" type="line"/>
		</contour>
		<contour>
			<point x="311" y="228" type="line"/>
			<point x="336" y="273" type="line"/>
			<point x="88" y="273" type="line"/>
			<point x="319" y="559" type="line"/>
			<point x="311" y="569" type="line"/>
		</contour>
	</outline>
</glyph>
<glyph name="five" format="2">
	<advance width="542"/>
	<unicode hex="0035"/>
	<outline>
		<contour>
			<point x="231" y="-11" type="curve" smooth="yes"/>
			<point x="387" y="-11"/>
			<point x="507" y="117"/>
			<point x="507" y="226" type="curve" smooth="yes"/>
			<point x="507" y="336"/>
			<point x="384" y="424"/>
			<point x="261" y="423" type="curve" smooth="yes"/>
			<point x="203" y="423"/>
			<point x="143" y="406"/>
			<point x="108" y="383" type="curve"/>
			<point x="138" y="593" type="line"/>
			<point x="441" y="593" type="line"/>
			<point x="496" y="700" type="line"/>
			<point x="123" y="700" type="line"/>
			<point x="69" y="338" type="line"/>
			<point x="80" y="332" type="line"/>
			<point x="142" y="376"/>
			<point x="206" y="390"/>
			<point x="240" y="390" type="curve" smooth="yes"/>
			<point x="346" y="390"/>
			<point x="381" y="284"/>
			<point x="381" y="198" type="curve" smooth="yes"/>
			<point x="381" y="105"/>
			<point x="340" y="14"/>
			<point x="247" y="14" type="curve" smooth="yes"/>
			<point x="171" y="14"/>
			<point x="122" y="76"/>
			<point x="122" y="138" type="curve" smooth="yes"/>
			<point x="122" y="172"/>
			<point x="137" y="223"/>
			<point x="203" y="266" type="curve"/>
			<point x="200" y="272" type="line"/>
			<point x="102" y="232"/>
			<point x="10" y="167"/>
			<point x="10" y="112" type="curve" smooth="yes"/>
			<point x="10" y="51"/>
			<point x="122" y="-11"/>
		</contour>
	</outline>
</glyph>
<glyph name="six" format="2">
	<advance width="511"/>
	<unicode hex="0036"/>
	<outline>
		<contour>
			<point x="259" y="-8" type="curve" smooth="yes"/>
			<point x="405" y="-8"/>
			<point x="501" y="100"/>
			<point x="501" y="210" type="curve" smooth="yes"/>
			<point x="501" y="314"/>
			<point x="414" y="416"/>
			<point x="309" y="416" type="curve" smooth="yes"/>
			<point x="249" y="416"/>
			<point x="194" y="383"/>
			<point x="142" y="333" type="curve" smooth="yes"/>
			<point x="123" y="315" type="line"/>
			<point x="130" y="307" type="line"/>
			<point x="153" y="325" type="line" smooth="yes"/>
			<point x="185" y="350"/>
			<point x="226" y="364"/>
			<point x="264" y="364" type="curve" smooth="yes"/>
			<point x="355" y="364"/>
			<point x="389" y="284"/>
			<point x="389" y="207" type="curve" smooth="yes"/>
			<point x="389" y="132"/>
			<point x="356" y="15"/>
			<point x="273" y="15" type="curve" smooth="yes"/>
			<point x="203" y="15"/>
			<point x="156" y="100"/>
			<point x="156" y="240" type="curve" smooth="yes"/>
			<point x="156" y="419"/>
			<point x="233" y="594"/>
			<point x="341" y="697" type="curve"/>
			<point x="333" y="705" type="line"/>
			<point x="172" y="581"/>
			<point x="35" y="428"/>
			<point x="35" y="245" type="curve" smooth="yes"/>
			<point x="35" y="116"/>
			<point x="103" y="-8"/>
		</contour>
	</outline>
</glyph>
<glyph name="seven" format="2">
	<advance width="503"/>
	<unicode hex="0037"/>
	<outline>
		<contour>
			<point x="196" y="-10" type="line"/>
			<point x="528" y="693" type="line"/>
			<point x="526" y="700" type="line"/>
			<point x="92" y="700" type="line"/>
			<point x="15" y="455" type="line"/>
			<point x="24" y="452" type="line"/>
			<point x="70" y="554"/>
			<point x="120" y="589"/>
			<point x="208" y="589" type="curve" smooth="yes"/>
			<point x="452" y="589" type="line"/>
			<point x="93" y="43" type="line"/>
		</contour>
	</outline>
</glyph>
<glyph name="eight" format="2">
	<advance width="560"/>
	<unicode hex="0038"/>
	<outline>
		<contour>
			<point x="256" y="-7" type="curve" smooth="yes"/>
			<point x="389" y="-7"/>
			<point x="525" y="87"/>
			<point x="525" y="196" type="curve" smooth="yes"/>
			<point x="525" y="257"/>
			<point x="482" y="300"/>
			<point x="394" y="355" type="curve" smooth="yes"/>
			<point x="226" y="460" type="line" smooth="yes"/>
			<point x="186" y="485"/>
			<point x="157" y="514"/>
			<point x="157" y="563" type="curve" smooth="yes"/>
			<point x="157" y="615"/>
			<point x="189" y="682"/>
			<point x="261" y="682" type="curve" smooth="yes"/>
			<point x="327" y="682"/>
			<point x="372" y="627"/>
			<point x="372" y="548" type="curve" smooth="yes"/>
			<point x="372" y="474"/>
			<point x="332" y="417"/>
			<point x="294" y="379" type="curve"/>
			<point x="295" y="376" type="line"/>
			<point x="344" y="403"/>
			<point x="483" y="464"/>
			<point x="483" y="560" type="curve" smooth="yes"/>
			<point x="483" y="635"/>
			<point x="398" y="706"/>
			<point x="288" y="706" type="curve" smooth="yes"/>
			<point x="162" y="706"/>
			<point x="47" y="614"/>
			<point x="47" y="508" type="curve" smooth="yes"/>
			<point x="47" y="461"/>
			<point x="70" y="420"/>
			<point x="128" y="384" type="curve" smooth="yes"/>
			<point x="335" y="255" type="line" smooth="yes"/>
			<point x="392" y="220"/>
			<point x="420" y="196"/>
			<point x="420" y="146" type="curve" smooth="yes"/>
			<point x="420" y="78"/>
			<point x="368" y="18"/>
			<point x="290" y="18" type="curve" smooth="yes"/>
			<point x="201" y="18"/>
			<point x="162" y="98"/>
			<point x="162" y="176" type="curve" smooth="yes"/>
			<point x="162" y="244"/>
			<point x="192" y="305"/>
			<point x="242" y="349" type="curve"/>
			<point x="240" y="353" type="line"/>
			<point x="188" y="325"/>
			<point x="35" y="254"/>
			<point x="35" y="149" type="curve" smooth="yes"/>
			<point x="35" y="61"/>
			<point x="142" y="-7"/>
		</contour>
	</outline>
</glyph>
<glyph name="nine" format="2">
	<advance width="511"/>
	<unicode hex="0039"/>
	<outline>
		<contour>
			<point x="178" y="-8" type="line"/>
			<point x="339" y="116"/>
			<point x="476" y="269"/>
			<point x="476" y="452" type="curve" smooth="yes"/>
			<point x="476" y="581"/>
			<point x="408" y="705"/>
			<point x="252" y="705" type="curve" smooth="yes"/>
			<point x="106" y="705"/>
			<point x="10" y="597"/>
			<point x="10" y="487" type="curve" smooth="yes"/>
			<point x="10" y="383"/>
			<point x="97" y="281"/>
			<point x="202" y="281" type="curve" smooth="yes"/>
			<point x="262" y="281"/>
			<point x="317" y="314"/>
			<point x="369" y="364" type="curve" smooth="yes"/>
			<point x="388" y="382" type="line"/>
			<point x="381" y="390" type="line"/>
			<point x="358" y="372" type="line" smooth="yes"/>
			<point x="326" y="347"/>
			<point x="285" y="333"/>
			<point x="247" y="333" type="curve" smooth="yes"/>
			<point x="156" y="333"/>
			<point x="122" y="413"/>
			<point x="122" y="490" type="curve" smooth="yes"/>
			<point x="122" y="565"/>
			<point x="155" y="682"/>
			<point x="238" y="682" type="curve" smooth="yes"/>
			<point x="308" y="682"/>
			<point x="355" y="597"/>
			<point x="355" y="457" type="curve" smooth="yes"/>
			<point x="355" y="278"/>
			<point x="278" y="103"/>
			<point x="170" y="0" type="curve"/>
		</contour>
	</outline>
</glyph>
<glyph name="colon" format="2">
	<advance width="211"/>
	<unicode hex="003A"/>
	<outline>
		<contour>
			<point x="125" y="345" type="line"/>
			<point x="211" y="429" type="line"/>
			<point x="125" y="515" type="line"/>
			<point x="40" y="429" type="line"/>
		</contour>
		<contour>
			<point x="125" y="-18" type="line"/>
			<point x="211" y="66" type="line"/>
			<point x="125" y="152" type="line"/>
			<point x="40" y="66" type="line"/>
		</contour>
	</outline>
</glyph>
<glyph name="semicolon" format="2">
	<advance width="233"/>
	<unicode hex="003B"/>
	<guideline x="147"/>
	<outline>
		<contour>
			<point x="13" y="-128" type="line"/>
			<point x="175" y="-60"/>
			<point x="229" y="64"/>
			<point x="229" y="64" type="curve"/>
			<point x="143" y="150" type="line"/>
			<point x="58" y="64" type="line"/>
			<point x="105" y="17" type="line"/>
			<point x="105" y="17"/>
			<point x="111" y="-52"/>
			<point x="10" y="-122" type="curve"/>
		</contour>
		<contour>
			<point x="147" y="345" type="line"/>
			<point x="233" y="429" type="line"/>
			<point x="147" y="515" type="line"/>
			<point x="62" y="429" type="line"/>
		</contour>
	</outline>
</glyph>
<glyph name="less" format="2">
	<advance width="496"/>
	<unicode hex="003C"/>
	<outline>
		<contour>
			<point x="417" y="208" type="line"/>
			<point x="422" y="222" type="line"/>
			<point x="85" y="341" type="line"/>
			<point x="70" y="330" type="line"/>
			<point x="426" y="452" type="line"/>
			<point x="421" y="467" type="line"/>
			<point x="70" y="347" type="line"/>
			<point x="70" y="330" type="line"/>
		</contour>
	</outline>
</glyph>
<glyph name="question" format="2">
	<advance width="389"/>
	<unicode hex="003F"/>
	<outline>
		<contour>
			<point x="122" y="178" type="line"/>
			<point x="128" y="178" type="line"/>
			<point x="135" y="219" type="line" smooth="yes"/>
			<point x="140" y="248"/>
			<point x="170" y="268"/>
			<point x="214" y="268" type="curve" smooth="yes"/>
			<point x="246" y="268" type="line" smooth="yes"/>
			<point x="329" y="268"/>
			<point x="369" y="339"/>
			<point x="369" y="455" type="curve" smooth="yes"/>
			<point x="369" y="531"/>
			<point x="352" y="581"/>
			<point x="274" y="611" type="curve" smooth="yes"/>
			<point x="212" y="635" type="line" smooth="yes"/>
			<point x="139" y="663"/>
			<point x="113" y="683"/>
			<point x="93" y="729" type="curve" smooth="yes"/>
			<point x="78" y="764" type="line"/>
			<point x="73" y="763" type="line"/>
			<point x="73" y="680" type="line" smooth="yes"/>
			<point x="73" y="613"/>
			<point x="99" y="557"/>
			<point x="170" y="531" type="curve" smooth="yes"/>
			<point x="224" y="511" type="line" smooth="yes"/>
			<point x="282" y="489"/>
			<point x="341" y="468"/>
			<point x="341" y="427" type="curve" smooth="yes"/>
			<point x="341" y="391"/>
			<point x="296" y="381"/>
			<point x="244" y="381" type="curve" smooth="yes"/>
			<point x="200" y="381" type="line" smooth="yes"/>
			<point x="132" y="381"/>
			<point x="96" y="318"/>
			<point x="111" y="238" type="curve" smooth="yes"/>
		</contour>
		<contour>
			<point x="125" y="-28" type="line"/>
			<point x="211" y="56" type="line"/>
			<point x="125" y="142" type="line"/>
			<point x="40" y="56" type="line"/>
		</contour>
	</outline>
</glyph>
<glyph name="at" format="2">
	<advance width="864"/>
	<unicode hex="0040"/>
	<outline>
		<contour>
			<point x="379" y="-75" type="curve" smooth="yes"/>
			<point x="478" y="-75"/>
			<point x="587" y="-12"/>
			<point x="643" y="31" type="curve"/>
			<point x="639" y="38" type="line"/>
			<point x="590" y="8"/>
			<point x="499" y="-21"/>
			<point x="421" y="-21" type="curve" smooth="yes"/>
			<point x="218" y="-21"/>
			<point x="119" y="154"/>
			<point x="119" y="305" type="curve" smooth="yes"/>
			<point x="119" y="508"/>
			<point x="252" y="648"/>
			<point x="459" y="648" type="curve" smooth="yes"/>
			<point x="638" y="648"/>
			<point x="776" y="507"/>
			<point x="776" y="338" type="curve" smooth="yes"/>
			<point x="776" y="217"/>
			<point x="722" y="164"/>
			<point x="657" y="164" type="curve" smooth="yes"/>
			<point x="613" y="164"/>
			<point x="579" y="220"/>
			<point x="603" y="301" type="curve" smooth="yes"/>
			<point x="656" y="480" type="line"/>
			<point x="585" y="480" type="line"/>
			<point x="561" y="493"/>
			<point x="525" y="505"/>
			<point x="486" y="505" type="curve" smooth="yes"/>
			<point x="368" y="505"/>
			<point x="252" y="398"/>
			<point x="239" y="293" type="curve" smooth="yes"/>
			<point x="228" y="202"/>
			<point x="295" y="118"/>
			<point x="377" y="118" type="curve" smooth="yes"/>
			<point x="430" y="118"/>
			<point x="481" y="174"/>
			<point x="513" y="211" type="curve"/>
			<point x="522" y="156"/>
			<point x="555" y="113"/>
			<point x="614" y="113" type="curve" smooth="yes"/>
			<point x="703" y="113"/>
			<point x="844" y="206"/>
			<point x="844" y="411" type="curve" smooth="yes"/>
			<point x="844" y="556"/>
			<point x="711" y="707"/>
			<point x="507" y="707" type="curve" smooth="yes"/>
			<point x="281" y="707"/>
			<point x="40" y="509"/>
			<point x="40" y="254" type="curve" smooth="yes"/>
			<point x="40" y="62"/>
			<point x="182" y="-75"/>
		</contour>
		<contour>
			<point x="407" y="158" type="curve" smooth="yes"/>
			<point x="350" y="158"/>
			<point x="320" y="243"/>
			<point x="331" y="324" type="curve" smooth="yes"/>
			<point x="344" y="416"/>
			<point x="404" y="482"/>
			<point x="468" y="482" type="curve" smooth="yes"/>
			<point x="518" y="482"/>
			<point x="550" y="439"/>
			<point x="562" y="422" type="curve"/>
			<point x="510" y="243" type="line"/>
			<point x="484" y="210"/>
			<point x="444" y="158"/>
		</contour>
	</outline>
</glyph>
<glyph name="A" format="2">
	<advance width="701"/>
	<unicode hex="0041"/>
	<anchor x="330" y="700" name="top"/>
	<outline>
		<contour>
			<point x="-100" y="0" type="line"/>
			<point x="251" y="0" type="line"/>
			<point x="251" y="5" type="line"/>
			<point x="117" y="38" type="line"/>
			<point x="203" y="303" type="line"/>
			<point x="418" y="303" type="line"/>
			<point x="512" y="35" type="line"/>
			<point x="391" y="5" type="line"/>
			<point x="391" y="0" type="line"/>
			<point x="761" y="0" type="line"/>
			<point x="761" y="5" type="line"/>
			<point x="643" y="39" type="line"/>
			<point x="388" y="725" type="line"/>
			<point x="282" y="678" type="line"/>
			<point x="295" y="643" type="line"/>
			<point x="20" y="41" type="line"/>
			<point x="-100" y="4" type="line"/>
		</contour>
		<contour>
			<point x="214" y="336" type="line"/>
			<point x="308" y="610" type="line"/>
			<point x="406" y="336" type="line"/>
		</contour>
	</outline>
</glyph>
<glyph name="B" format="2">
	<advance width="662"/>
	<unicode hex="0042"/>
	<outline>
		<contour>
			<point x="-20" y="0" type="line"/>
			<point x="315" y="0" type="line" smooth="yes"/>
			<point x="439" y="0"/>
			<point x="642" y="36"/>
			<point x="642" y="196" type="curve" smooth="yes"/>
			<point x="642" y="323"/>
			<point x="436" y="377"/>
			<point x="336" y="380" type="curve"/>
			<point x="417" y="382"/>
			<point x="588" y="442"/>
			<point x="588" y="541" type="curve" smooth="yes"/>
			<point x="588" y="670"/>
			<point x="426" y="701"/>
			<point x="326" y="701" type="curve" smooth="yes"/>
			<point x="-11" y="701" type="line"/>
			<point x="-11" y="696" type="line"/>
			<point x="120" y="667" type="line"/>
			<point x="120" y="387" type="line"/>
			<point x="49" y="381" type="line"/>
			<point x="49" y="376" type="line"/>
			<point x="120" y="370" type="line"/>
			<point x="120" y="40" type="line"/>
			<point x="-20" y="5" type="line"/>
		</contour>
		<contour>
			<point x="359" y="23" type="curve" smooth="yes"/>
			<point x="314" y="23"/>
			<point x="277" y="30"/>
			<point x="249" y="46" type="curve"/>
			<point x="249" y="369" type="line"/>
			<point x="309" y="362" type="line" smooth="yes"/>
			<point x="418" y="349"/>
			<point x="492" y="287"/>
			<point x="492" y="177" type="curve" smooth="yes"/>
			<point x="492" y="100"/>
			<point x="442" y="23"/>
		</contour>
		<contour>
			<point x="249" y="390" type="line"/>
			<point x="249" y="679" type="line"/>
			<point x="289" y="673" type="line" smooth="yes"/>
			<point x="377" y="661"/>
			<point x="447" y="619"/>
			<point x="447" y="522" type="curve" smooth="yes"/>
			<point x="447" y="413"/>
			<point x="342" y="401"/>
			<point x="292" y="395" type="curve" smooth="yes"/>
		</contour>
	</outline>
</glyph>
<glyph name="C" format="2">
	<advance width="734"/>
	<unicode hex="0043"/>
	<anchor x="380" y="700" name="top"/>
	<outline>
		<contour>
			<point x="393" y="-12" type="curve" smooth="yes"/>
			<point x="498" y="-12"/>
			<point x="603" y="24"/>
			<point x="673" y="63" type="curve"/>
			<point x="704" y="308" type="line"/>
			<point x="697" y="310" type="line"/>
			<point x="645" y="162"/>
			<point x="546" y="22"/>
			<point x="444" y="22" type="curve" smooth="yes"/>
			<point x="272" y="22"/>
			<point x="176" y="211"/>
			<point x="176" y="378" type="curve" smooth="yes"/>
			<point x="176" y="527"/>
			<point x="238" y="676"/>
			<point x="385" y="676" type="curve" smooth="yes"/>
			<point x="501" y="676"/>
			<point x="581" y="596"/>
			<point x="680" y="445" type="curve"/>
			<point x="686" y="447" type="line"/>
			<point x="648" y="658" type="line"/>
			<point x="574" y="691"/>
			<point x="492" y="709"/>
			<point x="410" y="709" type="curve" smooth="yes"/>
			<point x="198" y="709"/>
			<point x="25" y="545"/>
			<point x="25" y="328" type="curve" smooth="yes"/>
			<point x="25" y="121"/>
			<point x="199" y="-12"/>
		</contour>
	</outline>
</glyph>
<glyph name="D" format="2">
	<advance width="772"/>
	<unicode hex="0044"/>
	<anchor x="334" y="700" name="top"/>
	<outline>
		<contour>
			<point x="-20" y="0" type="line"/>
			<point x="357" y="0" type="line" smooth="yes"/>
			<point x="576" y="0"/>
			<point x="742" y="136"/>
			<point x="742" y="361" type="curve" smooth="yes"/>
			<point x="742" y="598"/>
			<point x="561" y="700"/>
			<point x="344" y="700" type="curve" smooth="yes"/>
			<point x="-11" y="700" type="line"/>
			<point x="-11" y="693" type="line"/>
			<point x="120" y="665" type="line"/>
			<point x="120" y="40" type="line"/>
			<point x="-20" y="8" type="line"/>
		</contour>
		<contour>
			<point x="383" y="27" type="curve" smooth="yes"/>
			<point x="317" y="27"/>
			<point x="276" y="37"/>
			<point x="249" y="50" type="curve"/>
			<point x="249" y="673" type="line"/>
			<point x="276" y="671" type="line" smooth="yes"/>
			<point x="474" y="656"/>
			<point x="605" y="557"/>
			<point x="605" y="341" type="curve" smooth="yes"/>
			<point x="605" y="196"/>
			<point x="543" y="27"/>
		</contour>
	</outline>
</glyph>
<glyph name="E" format="2">
	<advance width="684"/>
	<unicode hex="0045"/>
	<anchor x="314" y="700" name="top"/>
	<outline>
		<contour>
			<point x="611" y="-9" type="curve"/>
			<point x="664" y="254" type="line"/>
			<point x="659" y="256" type="line"/>
			<point x="588" y="105"/>
			<point x="550" y="63"/>
			<point x="378" y="49" type="curve" smooth="yes"/>
			<point x="252" y="39" type="line"/>
			<point x="250" y="39" type="line"/>
			<point x="250" y="337" type="line"/>
			<point x="446" y="324" type="line"/>
			<point x="482" y="197" type="line"/>
			<point x="488" y="197" type="line"/>
			<point x="488" y="512" type="line"/>
			<point x="482" y="512" type="line"/>
			<point x="446" y="391" type="line"/>
			<point x="250" y="373" type="line"/>
			<point x="250" y="670" type="line"/>
			<point x="462" y="661"/>
			<point x="528" y="658"/>
			<point x="622" y="456" type="curve"/>
			<point x="627" y="458" type="line"/>
			<point x="593" y="709" type="line"/>
			<point x="548" y="703"/>
			<point x="502" y="700"/>
			<point x="457" y="700" type="curve" smooth="yes"/>
			<point x="-10" y="700" type="line"/>
			<point x="-10" y="695" type="line"/>
			<point x="121" y="663" type="line"/>
			<point x="121" y="366" type="line"/>
			<point x="32" y="358" type="line"/>
			<point x="32" y="353" type="line"/>
			<point x="121" y="343" type="line"/>
			<point x="121" y="39" type="line"/>
			<point x="-20" y="5" type="line"/>
			<point x="-20" y="0" type="line"/>
			<point x="503" y="0" type="line" smooth="yes"/>
			<point x="539" y="0"/>
			<point x="575" y="-3"/>
		</contour>
	</outline>
</glyph>
<glyph name="F" format="2">
	<advance width="632"/>
	<unicode hex="0046"/>
	<outline>
		<contour>
			<point x="-20" y="0" type="line"/>
			<point x="434" y="0" type="line"/>
			<point x="434" y="5" type="line"/>
			<point x="255" y="45" type="line"/>
			<point x="255" y="337" type="line"/>
			<point x="452" y="324" type="line"/>
			<point x="488" y="197" type="line"/>
			<point x="494" y="197" type="line"/>
			<point x="494" y="512" type="line"/>
			<point x="488" y="512" type="line"/>
			<point x="452" y="391" type="line"/>
			<point x="255" y="373" type="line"/>
			<point x="255" y="670" type="line"/>
			<point x="467" y="661"/>
			<point x="533" y="659"/>
			<point x="627" y="456" type="curve"/>
			<point x="632" y="458" type="line"/>
			<point x="598" y="709" type="line"/>
			<point x="553" y="703"/>
			<point x="507" y="700"/>
			<point x="462" y="700" type="curve" smooth="yes"/>
			<point x="-5" y="700" type="line"/>
			<point x="-5" y="695" type="line"/>
			<point x="126" y="663" type="line"/>
			<point x="126" y="366" type="line"/>
			<point x="45" y="358" type="line"/>
			<point x="45" y="353" type="line"/>
			<point x="126" y="343" type="line"/>
			<point x="126" y="45" type="line"/>
			<point x="-20" y="5" type="line"/>
		</contour>
	</outline>
</glyph>
<glyph name="G" format="2">
	<advance width="777"/>
	<unicode hex="0047"/>
	<outline>
		<contour>
			<point x="398" y="-12" type="curve" smooth="yes"/>
			<point x="508" y="-12"/>
			<point x="623" y="26"/>
			<point x="725" y="88" type="curve"/>
			<point x="725" y="92" type="line"/>
			<point x="667" y="97" type="line"/>
			<point x="667" y="314" type="line"/>
			<point x="757" y="344" type="line"/>
			<point x="757" y="351" type="line"/>
			<point x="337" y="351" type="line"/>
			<point x="337" y="344" type="line"/>
			<point x="539" y="314" type="line"/>
			<point x="539" y="63" type="line"/>
			<point x="507" y="38"/>
			<point x="478" y="22"/>
			<point x="438" y="22" type="curve" smooth="yes"/>
			<point x="279" y="22"/>
			<point x="176" y="206"/>
			<point x="176" y="378" type="curve" smooth="yes"/>
			<point x="176" y="516"/>
			<point x="227" y="676"/>
			<point x="384" y="676" type="curve" smooth="yes"/>
			<point x="532" y="676"/>
			<point x="622" y="540"/>
			<point x="680" y="445" type="curve"/>
			<point x="686" y="447" type="line"/>
			<point x="648" y="659" type="line"/>
			<point x="574" y="692"/>
			<point x="492" y="709"/>
			<point x="410" y="709" type="curve" smooth="yes"/>
			<point x="198" y="709"/>
			<point x="25" y="545"/>
			<point x="25" y="328" type="curve" smooth="yes"/>
			<point x="25" y="117"/>
			<point x="201" y="-12"/>
		</contour>
	</outline>
</glyph>
<glyph name="H" format="2">
	<advance width="857"/>
	<unicode hex="0048"/>
	<outline>
		<contour>
			<point x="-20" y="0" type="line"/>
			<point x="394" y="0" type="line"/>
			<point x="394" y="5" type="line"/>
			<point x="255" y="45" type="line"/>
			<point x="255" y="349" type="line"/>
			<point x="593" y="349" type="line"/>
			<point x="593" y="45" type="line"/>
			<point x="463" y="5" type="line"/>
			<point x="463" y="0" type="line"/>
			<point x="877" y="0" type="line"/>
			<point x="877" y="5" type="line"/>
			<point x="722" y="45" type="line"/>
			<point x="722" y="663" type="line"/>
			<point x="867" y="694" type="line"/>
			<point x="867" y="700" type="line"/>
			<point x="474" y="700" type="line"/>
			<point x="474" y="694" type="line"/>
			<point x="593" y="663" type="line"/>
			<point x="593" y="387" type="line"/>
			<point x="255" y="387" type="line"/>
			<point x="255" y="663" type="line"/>
			<point x="384" y="694" type="line"/>
			<point x="384" y="700" type="line"/>
			<point x="-10" y="700" type="line"/>
			<point x="-10" y="694" type="line"/>
			<point x="126" y="663" type="line"/>
			<point x="126" y="45" type="line"/>
			<point x="-20" y="5" type="line"/>
		</contour>
	</outline>
</glyph>
<glyph name="I" format="2">
	<advance width="394"/>
	<unicode hex="0049"/>
	<guideline y="45"/>
	<outline>
		<contour>
			<point x="-10" y="0" type="line"/>
			<point x="404" y="0" type="line"/>
			<point x="404" y="5" type="line"/>
			<point x="265" y="45" type="line"/>
			<point x="265" y="663" type="line"/>
			<point x="394" y="694" type="line"/>
			<point x="394" y="700" type="line"/>
			<point x="0" y="700" type="line"/>
			<point x="0" y="694" type="line"/>
			<point x="136" y="663" type="line"/>
			<point x="136" y="45" type="line"/>
			<point x="-10" y="5" type="line"/>
		</contour>
	</outline>
</glyph>
<glyph name="J" format="2">
	<advance width="340"/>
	<unicode hex="004A"/>
	<outline>
		<contour>
			<point x="-35" y="-250" type="line"/>
			<point x="49" y="-191"/>
			<point x="231" y="-63"/>
			<point x="231" y="46" type="curve" smooth="yes"/>
			<point x="231" y="663" type="line"/>
			<point x="360" y="694" type="line"/>
			<point x="360" y="700" type="line"/>
			<point x="-34" y="700" type="line"/>
			<point x="-34" y="694" type="line"/>
			<point x="102" y="663" type="line"/>
			<point x="102" y="83" type="line" smooth="yes"/>
			<point x="102" y="-51"/>
			<point x="68" y="-112"/>
			<point x="-40" y="-244" type="curve"/>
		</contour>
	</outline>
</glyph>
<glyph name="K" format="2">
	<advance width="733"/>
	<unicode hex="004B"/>
	<guideline y="694"/>
	<guideline y="663"/>
	<outline>
		<contour>
			<point x="606" y="0" type="curve" smooth="yes"/>
			<point x="793" y="0" type="line"/>
			<point x="793" y="7" type="line"/>
			<point x="741" y="28" type="line" smooth="yes"/>
			<point x="705" y="43"/>
			<point x="642" y="103"/>
			<point x="614" y="138" type="curve" smooth="yes"/>
			<point x="527" y="247" type="line" smooth="yes"/>
			<point x="479" y="308"/>
			<point x="393" y="414"/>
			<point x="393" y="414" type="curve"/>
			<point x="647" y="663" type="line"/>
			<point x="752" y="694" type="line"/>
			<point x="752" y="700" type="line"/>
			<point x="426" y="700" type="line"/>
			<point x="426" y="694" type="line"/>
			<point x="539" y="663" type="line"/>
			<point x="301" y="333" type="line"/>
			<point x="301" y="333"/>
			<point x="360" y="265"/>
			<point x="404" y="209" type="curve" smooth="yes"/>
			<point x="473" y="122" type="line" smooth="yes"/>
			<point x="508" y="78"/>
			<point x="559" y="0"/>
		</contour>
		<contour>
			<point x="0" y="0" type="line"/>
			<point x="414" y="0" type="line"/>
			<point x="414" y="5" type="line"/>
			<point x="275" y="45" type="line"/>
			<point x="275" y="663" type="line"/>
			<point x="376" y="694" type="line"/>
			<point x="376" y="700" type="line"/>
			<point x="10" y="700" type="line"/>
			<point x="10" y="694" type="line"/>
			<point x="146" y="663" type="line"/>
			<point x="146" y="45" type="line"/>
			<point x="0" y="5" type="line"/>
		</contour>
	</outline>
</glyph>
<glyph name="L" format="2">
	<advance width="670"/>
	<unicode hex="004C"/>
	<outline>
		<contour>
			<point x="601" y="-9" type="curve"/>
			<point x="660" y="271" type="line"/>
			<point x="656" y="272" type="line"/>
			<point x="611" y="159"/>
			<point x="553" y="70"/>
			<point x="397" y="55" type="curve" smooth="yes"/>
			<point x="268" y="43" type="line"/>
			<point x="265" y="43" type="line"/>
			<point x="265" y="660" type="line"/>
			<point x="411" y="693" type="line"/>
			<point x="411" y="700" type="line"/>
			<point x="0" y="700" type="line"/>
			<point x="0" y="693" type="line"/>
			<point x="135" y="664" type="line"/>
			<point x="135" y="43" type="line"/>
			<point x="0" y="7" type="line"/>
			<point x="0" y="1" type="line"/>
			<point x="462" y="1" type="line" smooth="yes"/>
			<point x="510" y="1"/>
			<point x="556" y="-2"/>
		</contour>
	</outline>
</glyph>
<glyph name="M" format="2">
	<advance width="972"/>
	<unicode hex="004D"/>
	<outline>
		<contour>
			<point x="-40" y="0" type="line"/>
			<point x="320" y="0" type="line"/>
			<point x="320" y="5" type="line"/>
			<point x="173" y="41" type="line"/>
			<point x="170" y="556" type="line"/>
			<point x="445" y="0" type="line"/>
			<point x="455" y="0" type="line"/>
			<point x="687" y="527" type="line"/>
			<point x="715" y="39" type="line"/>
			<point x="576" y="5" type="line"/>
			<point x="576" y="0" type="line"/>
			<point x="992" y="0" type="line"/>
			<point x="992" y="5" type="line"/>
			<point x="843" y="41" type="line"/>
			<point x="808" y="669" type="line"/>
			<point x="932" y="699" type="line"/>
			<point x="932" y="705" type="line"/>
			<point x="679" y="701" type="line"/>
			<point x="500" y="176" type="line"/>
			<point x="245" y="701" type="line"/>
			<point x="27" y="701" type="line"/>
			<point x="27" y="695" type="line"/>
			<point x="155" y="667" type="line"/>
			<point x="79" y="41" type="line"/>
			<point x="-40" y="5" type="line"/>
		</contour>
	</outline>
</glyph>
<glyph name="N" format="2">
	<advance width="731"/>
	<unicode hex="004E"/>
	<guideline x="-17"/>
	<anchor x="361" y="700" name="top"/>
	<outline>
		<contour>
			<point x="-40" y="0" type="line"/>
			<point x="380" y="0" type="line"/>
			<point x="380" y="5" type="line"/>
			<point x="182" y="42" type="line"/>
			<point x="120" y="538" type="line"/>
			<point x="641" y="0" type="line"/>
			<point x="649" y="0" type="line"/>
			<point x="659" y="662" type="line"/>
			<point x="781" y="697" type="line"/>
			<point x="781" y="700" type="line"/>
			<point x="371" y="700" type="line"/>
			<point x="371" y="697" type="line"/>
			<point x="568" y="661" type="line"/>
			<point x="624" y="201" type="line"/>
			<point x="146" y="701" type="line"/>
			<point x="-40" y="701" type="line"/>
			<point x="-40" y="693" type="line"/>
			<point x="90" y="670" type="line"/>
			<point x="82" y="41" type="line"/>
			<point x="-40" y="4" type="line"/>
		</contour>
	</outline>
</glyph>
<glyph name="O" format="2">
	<advance width="825"/>
	<unicode hex="004F"/>
	<anchor x="376" y="700" name="top"/>
	<outline>
		<contour>
			<point x="414" y="-11" type="curve" smooth="yes"/>
			<point x="619" y="-11"/>
			<point x="790" y="148"/>
			<point x="790" y="350" type="curve" smooth="yes"/>
			<point x="790" y="552"/>
			<point x="617" y="709"/>
			<point x="414" y="709" type="curve" smooth="yes"/>
			<point x="209" y="709"/>
			<point x="35" y="553"/>
			<point x="35" y="350" type="curve" smooth="yes"/>
			<point x="35" y="147"/>
			<point x="207" y="-11"/>
		</contour>
		<contour>
			<point x="453" y="26" type="curve" smooth="yes"/>
			<point x="282" y="26"/>
			<point x="179" y="264"/>
			<point x="179" y="410" type="curve" smooth="yes"/>
			<point x="179" y="526"/>
			<point x="232" y="672"/>
			<point x="369" y="672" type="curve" smooth="yes"/>
			<point x="540" y="672"/>
			<point x="643" y="436"/>
			<point x="643" y="290" type="curve" smooth="yes"/>
			<point x="643" y="174"/>
			<point x="591" y="26"/>
		</contour>
	</outline>
</glyph>
<glyph name="P" format="2">
	<advance width="586"/>
	<unicode hex="0050"/>
	<outline>
		<contour>
			<point x="-20" y="0" type="line"/>
			<point x="391" y="0" type="line"/>
			<point x="391" y="7" type="line"/>
			<point x="245" y="48" type="line"/>
			<point x="245" y="280" type="line"/>
			<point x="302" y="290" type="line" smooth="yes"/>
			<point x="433" y="313"/>
			<point x="576" y="387"/>
			<point x="576" y="505" type="curve" smooth="yes"/>
			<point x="576" y="641"/>
			<point x="424" y="700"/>
			<point x="308" y="700" type="curve" smooth="yes"/>
			<point x="-10" y="700" type="line"/>
			<point x="-10" y="693" type="line"/>
			<point x="116" y="667" type="line"/>
			<point x="116" y="275" type="line"/>
			<point x="42" y="257" type="line"/>
			<point x="43" y="249" type="line"/>
			<point x="116" y="259" type="line"/>
			<point x="116" y="48" type="line"/>
			<point x="-20" y="7" type="line"/>
		</contour>
		<contour>
			<point x="245" y="304" type="line"/>
			<point x="245" y="679" type="line"/>
			<point x="361" y="680"/>
			<point x="443" y="604"/>
			<point x="443" y="488" type="curve" smooth="yes"/>
			<point x="443" y="408"/>
			<point x="398" y="346"/>
			<point x="285" y="315" type="curve" smooth="yes"/>
		</contour>
	</outline>
</glyph>
<glyph name="Q" format="2">
	<advance width="842"/>
	<unicode hex="0051"/>
	<outline>
		<contour>
			<point x="661" y="-170" type="curve" smooth="yes"/>
			<point x="734" y="-170"/>
			<point x="926" y="-114"/>
			<point x="992" y="-91" type="curve"/>
			<point x="991" y="-84" type="line"/>
			<point x="815" y="-120"/>
			<point x="600" y="-83"/>
			<point x="460" y="-8" type="curve"/>
			<point x="652" y="14"/>
			<point x="790" y="171"/>
			<point x="790" y="350" type="curve" smooth="yes"/>
			<point x="790" y="555"/>
			<point x="613" y="709"/>
			<point x="414" y="709" type="curve" smooth="yes"/>
			<point x="214" y="709"/>
			<point x="35" y="557"/>
			<point x="35" y="350" type="curve" smooth="yes"/>
			<point x="35" y="155"/>
			<point x="196" y="-12"/>
			<point x="424" y="-12" type="curve"/>
			<point x="480" y="-99"/>
			<point x="551" y="-170"/>
		</contour>
		<contour>
			<point x="453" y="26" type="curve" smooth="yes"/>
			<point x="282" y="26"/>
			<point x="179" y="264"/>
			<point x="179" y="410" type="curve" smooth="yes"/>
			<point x="179" y="526"/>
			<point x="232" y="672"/>
			<point x="369" y="672" type="curve" smooth="yes"/>
			<point x="540" y="672"/>
			<point x="643" y="436"/>
			<point x="643" y="290" type="curve" smooth="yes"/>
			<point x="643" y="174"/>
			<point x="591" y="26"/>
		</contour>
	</outline>
</glyph>
<glyph name="R" format="2">
	<advance width="698"/>
	<unicode hex="0052"/>
	<anchor x="286" y="700" name="top"/>
	<outline>
		<contour>
			<point x="-20" y="0" type="line"/>
			<point x="391" y="0" type="line"/>
			<point x="391" y="7" type="line"/>
			<point x="245" y="48" type="line"/>
			<point x="245" y="320" type="line"/>
			<point x="302" y="330" type="line" smooth="yes"/>
			<point x="433" y="353"/>
			<point x="576" y="435"/>
			<point x="576" y="533" type="curve" smooth="yes"/>
			<point x="576" y="649"/>
			<point x="424" y="700"/>
			<point x="308" y="700" type="curve" smooth="yes"/>
			<point x="-10" y="700" type="line"/>
			<point x="-10" y="693" type="line"/>
			<point x="116" y="667" type="line"/>
			<point x="116" y="315" type="line"/>
			<point x="42" y="297" type="line"/>
			<point x="43" y="289" type="line"/>
			<point x="116" y="299" type="line"/>
			<point x="116" y="48" type="line"/>
			<point x="-20" y="7" type="line"/>
		</contour>
		<contour>
			<point x="589" y="0" type="curve" smooth="yes"/>
			<point x="778" y="0" type="line"/>
			<point x="778" y="7" type="line"/>
			<point x="726" y="28" type="line" smooth="yes"/>
			<point x="690" y="43"/>
			<point x="622" y="103"/>
			<point x="594" y="138" type="curve" smooth="yes"/>
			<point x="507" y="247" type="line" smooth="yes"/>
			<point x="449" y="319"/>
			<point x="405" y="378"/>
			<point x="405" y="378" type="curve"/>
			<point x="287" y="335" type="line"/>
			<point x="278" y="328" type="line"/>
			<point x="278" y="328"/>
			<point x="343" y="265"/>
			<point x="387" y="209" type="curve" smooth="yes"/>
			<point x="456" y="122" type="line" smooth="yes"/>
			<point x="491" y="78"/>
			<point x="542" y="0"/>
		</contour>
		<contour>
			<point x="245" y="344" type="line"/>
			<point x="245" y="679" type="line"/>
			<point x="361" y="680"/>
			<point x="443" y="612"/>
			<point x="443" y="516" type="curve" smooth="yes"/>
			<point x="443" y="456"/>
			<point x="398" y="386"/>
			<point x="285" y="355" type="curve" smooth="yes"/>
		</contour>
	</outline>
</glyph>
<glyph name="S" format="2">
	<advance width="606"/>
	<unicode hex="0053"/>
	<anchor x="362" y="0" name="bottom"/>
	<anchor x="307" y="700" name="top"/>
	<outline>
		<contour>
			<point x="300" y="-15" type="curve" smooth="yes"/>
			<point x="439" y="-15"/>
			<point x="576" y="64"/>
			<point x="576" y="199" type="curve" smooth="yes"/>
			<point x="576" y="283"/>
			<point x="521" y="338"/>
			<point x="450" y="371" type="curve" smooth="yes"/>
			<point x="276" y="451" type="line" smooth="yes"/>
			<point x="215" y="479"/>
			<point x="164" y="517"/>
			<point x="164" y="573" type="curve" smooth="yes"/>
			<point x="164" y="626"/>
			<point x="210" y="671"/>
			<point x="285" y="671" type="curve" smooth="yes"/>
			<point x="377" y="671"/>
			<point x="465" y="604"/>
			<point x="465" y="529" type="curve" smooth="yes"/>
			<point x="465" y="477"/>
			<point x="457" y="446"/>
			<point x="457" y="446" type="curve"/>
			<point x="463" y="444" type="line"/>
			<point x="544" y="652" type="line"/>
			<point x="491" y="687"/>
			<point x="408" y="710"/>
			<point x="333" y="710" type="curve" smooth="yes"/>
			<point x="195" y="710"/>
			<point x="77" y="634"/>
			<point x="77" y="510" type="curve" smooth="yes"/>
			<point x="77" y="444"/>
			<point x="111" y="386"/>
			<point x="177" y="355" type="curve" smooth="yes"/>
			<point x="377" y="262" type="line" smooth="yes"/>
			<point x="429" y="238"/>
			<point x="485" y="195"/>
			<point x="485" y="136" type="curve" smooth="yes"/>
			<point x="485" y="69"/>
			<point x="414" y="24"/>
			<point x="335" y="24" type="curve" smooth="yes"/>
			<point x="216" y="24"/>
			<point x="114" y="128"/>
			<point x="114" y="224" type="curve" smooth="yes"/>
			<point x="114" y="259"/>
			<point x="127" y="318"/>
			<point x="127" y="318" type="curve"/>
			<point x="121" y="321" type="line"/>
			<point x="10" y="108" type="line"/>
			<point x="73" y="32"/>
			<point x="192" y="-15"/>
		</contour>
	</outline>
</glyph>
<glyph name="T" format="2">
	<advance width="719"/>
	<unicode hex="0054"/>
	<anchor x="359" y="0" name="bottom"/>
	<anchor x="359" y="700" name="top"/>
	<outline>
		<contour>
			<point x="136" y="0" type="line"/>
			<point x="587" y="0" type="line"/>
			<point x="587" y="8" type="line"/>
			<point x="422" y="46" type="line"/>
			<point x="422" y="677" type="line"/>
			<point x="503" y="655" type="line" smooth="yes"/>
			<point x="631" y="620"/>
			<point x="689" y="538"/>
			<point x="710" y="456" type="curve"/>
			<point x="719" y="458" type="line"/>
			<point x="692" y="708" type="line"/>
			<point x="657" y="704"/>
			<point x="621" y="700"/>
			<point x="586" y="700" type="curve" smooth="yes"/>
			<point x="156" y="700" type="line" smooth="yes"/>
			<point x="106" y="700"/>
			<point x="67" y="704"/>
			<point x="27" y="708" type="curve"/>
			<point x="0" y="458" type="line"/>
			<point x="9" y="455" type="line"/>
			<point x="30" y="538"/>
			<point x="88" y="619"/>
			<point x="211" y="654" type="curve" smooth="yes"/>
			<point x="292" y="677" type="line"/>
			<point x="292" y="46" type="line"/>
			<point x="136" y="8" type="line"/>
		</contour>
	</outline>
</glyph>
<glyph name="U" format="2">
	<advance width="717"/>
	<unicode hex="0055"/>
	<anchor x="390" y="700" name="top"/>
	<outline>
		<contour>
			<point x="372" y="-11" type="curve" smooth="yes"/>
			<point x="522" y="-11"/>
			<point x="647" y="45"/>
			<point x="647" y="235" type="curve" smooth="yes"/>
			<point x="647" y="664" type="line"/>
			<point x="757" y="694" type="line"/>
			<point x="757" y="700" type="line"/>
			<point x="447" y="700" type="line"/>
			<point x="447" y="693" type="line"/>
			<point x="604" y="664" type="line"/>
			<point x="604" y="219" type="line" smooth="yes"/>
			<point x="604" y="76"/>
			<point x="502" y="30"/>
			<point x="404" y="30" type="curve" smooth="yes"/>
			<point x="293" y="30"/>
			<point x="210" y="108"/>
			<point x="210" y="227" type="curve" smooth="yes"/>
			<point x="210" y="664" type="line"/>
			<point x="360" y="693" type="line"/>
			<point x="360" y="700" type="line"/>
			<point x="-30" y="700" type="line"/>
			<point x="-30" y="693" type="line"/>
			<point x="81" y="664" type="line"/>
			<point x="81" y="213" type="line" smooth="yes"/>
			<point x="81" y="46"/>
			<point x="222" y="-11"/>
		</contour>
	</outline>
</glyph>
<glyph name="V" format="2">
	<advance width="675"/>
	<unicode hex="0056"/>
	<outline>
		<contour>
			<point x="338" y="0" type="line"/>
			<point x="345" y="0" type="line"/>
			<point x="650" y="665" type="line"/>
			<point x="755" y="696" type="line"/>
			<point x="755" y="700" type="line"/>
			<point x="411" y="700" type="line"/>
			<point x="410" y="695" type="line"/>
			<point x="548" y="668" type="line"/>
			<point x="392" y="173" type="line"/>
			<point x="174" y="668" type="line"/>
			<point x="306" y="695" type="line"/>
			<point x="306" y="700" type="line"/>
			<point x="-80" y="700" type="line"/>
			<point x="-80" y="695" type="line"/>
			<point x="33" y="665" type="line"/>
		</contour>
	</outline>
</glyph>
<glyph name="W" format="2">
	<advance width="1127"/>
	<unicode hex="0057"/>
	<anchor x="576" y="700" name="top"/>
	<outline>
		<contour>
			<point x="790" y="0" type="line"/>
			<point x="797" y="0" type="line"/>
			<point x="1105" y="666" type="line"/>
			<point x="1207" y="696" type="line"/>
			<point x="1207" y="700" type="line"/>
			<point x="863" y="700" type="line"/>
			<point x="862" y="695" type="line"/>
			<point x="1000" y="668" type="line"/>
			<point x="844" y="173" type="line"/>
			<point x="635" y="668" type="line"/>
			<point x="784" y="695" type="line"/>
			<point x="784" y="700" type="line"/>
			<point x="398" y="700" type="line"/>
			<point x="398" y="695" type="line"/>
			<point x="495" y="665" type="line"/>
		</contour>
		<contour>
			<point x="338" y="0" type="line"/>
			<point x="345" y="0" type="line"/>
			<point x="617" y="573" type="line"/>
			<point x="544" y="628" type="line"/>
			<point x="392" y="173" type="line"/>
			<point x="174" y="668" type="line"/>
			<point x="306" y="695" type="line"/>
			<point x="306" y="700" type="line"/>
			<point x="-80" y="700" type="line"/>
			<point x="-80" y="695" type="line"/>
			<point x="34" y="664" type="line"/>
		</contour>
	</outline>
</glyph>
<glyph name="X" format="2">
	<advance width="683"/>
	<unicode hex="0058"/>
	<outline>
		<contour>
			<point x="383" y="0" type="line"/>
			<point x="743" y="0" type="line"/>
			<point x="743" y="5" type="line"/>
			<point x="636" y="40" type="line"/>
			<point x="220" y="669" type="line"/>
			<point x="326" y="696" type="line"/>
			<point x="326" y="700" type="line"/>
			<point x="-34" y="700" type="line"/>
			<point x="-34" y="696" type="line"/>
			<point x="74" y="664" type="line"/>
			<point x="489" y="35" type="line"/>
			<point x="383" y="5" type="line"/>
		</contour>
		<contour>
			<point x="-60" y="0" type="line"/>
			<point x="280" y="0" type="line"/>
			<point x="280" y="5" type="line"/>
			<point x="149" y="36" type="line"/>
			<point x="326" y="323" type="line"/>
			<point x="305" y="346" type="line"/>
			<point x="44" y="40" type="line"/>
			<point x="-60" y="5" type="line"/>
		</contour>
		<contour>
			<point x="364" y="360" type="line"/>
			<point x="632" y="666" type="line"/>
			<point x="730" y="696" type="line"/>
			<point x="730" y="700" type="line"/>
			<point x="400" y="700" type="line"/>
			<point x="400" y="696" type="line"/>
			<point x="529" y="669" type="line"/>
			<point x="347" y="374" type="line"/>
		</contour>
	</outline>
</glyph>
<glyph name="Y" format="2">
	<advance width="594"/>
	<unicode hex="0059"/>
	<guideline y="45"/>
	<anchor x="311" y="700" name="top"/>
	<outline>
		<contour>
			<point x="95" y="-1" type="line"/>
			<point x="510" y="-1" type="line"/>
			<point x="510" y="4" type="line"/>
			<point x="363" y="44" type="line"/>
			<point x="363" y="306" type="line"/>
			<point x="578" y="665" type="line"/>
			<point x="674" y="697" type="line"/>
			<point x="674" y="700" type="line"/>
			<point x="344" y="700" type="line"/>
			<point x="344" y="696" type="line"/>
			<point x="478" y="665" type="line"/>
			<point x="344" y="336" type="line"/>
			<point x="154" y="669" type="line"/>
			<point x="280" y="696" type="line"/>
			<point x="280" y="700" type="line"/>
			<point x="-100" y="700" type="line"/>
			<point x="-100" y="696" type="line"/>
			<point x="12" y="671" type="line"/>
			<point x="234" y="285" type="line"/>
			<point x="234" y="44" type="line"/>
			<point x="95" y="4" type="line"/>
		</contour>
	</outline>
</glyph>
<glyph name="Z" format="2">
	<advance width="619"/>
	<unicode hex="005A"/>
	<anchor x="310" y="700" name="top"/>
	<outline>
		<contour>
			<point x="2" y="0" type="line"/>
			<point x="557" y="0" type="line"/>
			<point x="619" y="280" type="line"/>
			<point x="614" y="281" type="line"/>
			<point x="565" y="147"/>
			<point x="472" y="60"/>
			<point x="329" y="46" type="curve" smooth="yes"/>
			<point x="167" y="30" type="line"/>
			<point x="598" y="695" type="line"/>
			<point x="596" y="700" type="line"/>
			<point x="70" y="700" type="line"/>
			<point x="19" y="435" type="line"/>
			<point x="24" y="433" type="line"/>
			<point x="71" y="543"/>
			<point x="127" y="638"/>
			<point x="265" y="654" type="curve" smooth="yes"/>
			<point x="433" y="674" type="line"/>
			<point x="0" y="5" type="line"/>
		</contour>
	</outline>
</glyph>
<glyph name="bracketleft" format="2">
	<advance width="249"/>
	<unicode hex="005B"/>
	<outline>
		<contour>
			<point x="10" y="-90" type="line"/>
			<point x="23" y="-90" type="line"/>
			<point x="23" y="714" type="line"/>
			<point x="10" y="714" type="line"/>
		</contour>
		<contour>
			<point x="10" y="-98" type="line"/>
			<point x="239" y="-98" type="line"/>
			<point x="239" y="-85" type="line"/>
			<point x="10" y="-85" type="line"/>
		</contour>
		<contour>
			<point x="10" y="709" type="line"/>
			<point x="239" y="709" type="line"/>
			<point x="239" y="722" type="line"/>
			<point x="10" y="722" type="line"/>
		</contour>
	</outline>
</glyph>
<glyph name="underscore" format="2">
	<advance width="480"/>
	<unicode hex="005F"/>
	<outline>
		<contour>
			<point x="10" y="0" type="line"/>
			<point x="470" y="0" type="line"/>
			<point x="470" y="14" type="line"/>
			<point x="10" y="14" type="line"/>
		</contour>
	</outline>
</glyph>
<glyph name="grave" format="2">
	<advance width="281"/>
	<unicode hex="0060"/>
	<anchor x="183" y="500" name="_top"/>
	<outline>
		<contour>
			<point x="257" y="542" type="line"/>
			<point x="261" y="544" type="line"/>
			<point x="155" y="751" type="line"/>
			<point x="11" y="751" type="line"/>
		</contour>
	</outline>
</glyph>
<glyph name="a" format="2">
	<advance width="488"/>
	<unicode hex="0061"/>
	<anchor x="250" y="503" name="top"/>
	<outline>
		<contour>
			<point x="164" y="-5" type="curve" smooth="yes"/>
			<point x="218" y="-5"/>
			<point x="250" y="30"/>
			<point x="295" y="63" type="curve"/>
			<point x="308" y="26"/>
			<point x="335" y="-4"/>
			<point x="372" y="-4" type="curve" smooth="yes"/>
			<point x="423" y="-4"/>
			<point x="463" y="53"/>
			<point x="488" y="95" type="curve"/>
			<point x="484" y="99" type="line"/>
			<point x="472" y="87"/>
			<point x="443" y="63"/>
			<point x="426" y="63" type="curve" smooth="yes"/>
			<point x="410" y="63"/>
			<point x="403" y="85"/>
			<point x="403" y="116" type="curve" smooth="yes"/>
			<point x="403" y="380" type="line" smooth="yes"/>
			<point x="403" y="446"/>
			<point x="350" y="512"/>
			<point x="285" y="512" type="curve" smooth="yes"/>
			<point x="209" y="512"/>
			<point x="41" y="421"/>
			<point x="41" y="379" type="curve" smooth="yes"/>
			<point x="41" y="348"/>
			<point x="131" y="294"/>
			<point x="186" y="268" type="curve"/>
			<point x="190" y="273" type="line"/>
			<point x="166" y="306"/>
			<point x="141" y="359"/>
			<point x="141" y="392" type="curve" smooth="yes"/>
			<point x="141" y="434"/>
			<point x="183" y="464"/>
			<point x="222" y="464" type="curve" smooth="yes"/>
			<point x="272" y="464"/>
			<point x="291" y="416"/>
			<point x="291" y="359" type="curve" smooth="yes"/>
			<point x="291" y="255" type="line"/>
			<point x="61" y="196" type="line"/>
			<point x="61" y="196"/>
			<point x="40" y="156"/>
			<point x="40" y="112" type="curve" smooth="yes"/>
			<point x="40" y="33"/>
			<point x="108" y="-5"/>
		</contour>
		<contour>
			<point x="217" y="58" type="curve" smooth="yes"/>
			<point x="175" y="58"/>
			<point x="147" y="91"/>
			<point x="147" y="138" type="curve" smooth="yes"/>
			<point x="147" y="156"/>
			<point x="151" y="178"/>
			<point x="151" y="178" type="curve"/>
			<point x="291" y="231" type="line"/>
			<point x="291" y="87" type="line"/>
			<point x="265" y="72"/>
			<point x="245" y="58"/>
		</contour>
	</outline>
</glyph>
<glyph name="b" format="2">
	<advance width="612"/>
	<unicode hex="0062"/>
	<guideline y="761"/>
	<outline>
		<contour>
			<point x="317" y="-10" type="curve" smooth="yes"/>
			<point x="468" y="-10"/>
			<point x="592" y="117"/>
			<point x="592" y="274" type="curve" smooth="yes"/>
			<point x="592" y="398"/>
			<point x="504" y="509"/>
			<point x="373" y="509" type="curve" smooth="yes"/>
			<point x="282" y="509"/>
			<point x="224" y="456"/>
			<point x="176" y="405" type="curve"/>
			<point x="180" y="380" type="line"/>
			<point x="214" y="413"/>
			<point x="256" y="451"/>
			<point x="317" y="451" type="curve" smooth="yes"/>
			<point x="428" y="451"/>
			<point x="469" y="326"/>
			<point x="469" y="228" type="curve" smooth="yes"/>
			<point x="469" y="143"/>
			<point x="448" y="19"/>
			<point x="341" y="19" type="curve" smooth="yes"/>
			<point x="240" y="19"/>
			<point x="187" y="129"/>
			<point x="187" y="221" type="curve"/>
			<point x="150" y="221" type="line"/>
			<point x="122" y="48" type="line"/>
			<point x="160" y="20"/>
			<point x="244" y="-10"/>
		</contour>
		<contour>
			<point x="68" y="-25" type="line"/>
			<point x="144" y="44" type="line"/>
			<point x="197" y="84" type="line"/>
			<point x="197" y="762" type="line"/>
			<point x="190" y="763" type="line"/>
			<point x="131" y="733"/>
			<point x="44" y="706"/>
			<point x="-20" y="689" type="curve"/>
			<point x="-20" y="683" type="line"/>
			<point x="85" y="672" type="line"/>
			<point x="85" y="172" type="line" smooth="yes"/>
			<point x="85" y="89"/>
			<point x="64" y="-23"/>
			<point x="64" y="-23" type="curve"/>
		</contour>
	</outline>
</glyph>
<glyph name="c" format="2">
	<advance width="480"/>
	<unicode hex="0063"/>
	<anchor x="249" y="500" name="top"/>
	<outline>
		<contour>
			<point x="255" y="-7" type="curve" smooth="yes"/>
			<point x="345" y="-7"/>
			<point x="419" y="40"/>
			<point x="470" y="119" type="curve"/>
			<point x="464" y="124" type="line"/>
			<point x="422" y="82"/>
			<point x="370" y="57"/>
			<point x="313" y="57" type="curve" smooth="yes"/>
			<point x="184" y="57"/>
			<point x="135" y="185"/>
			<point x="135" y="285" type="curve" smooth="yes"/>
			<point x="135" y="390"/>
			<point x="190" y="472"/>
			<point x="268" y="472" type="curve" smooth="yes"/>
			<point x="321" y="472"/>
			<point x="356" y="426"/>
			<point x="356" y="370" type="curve" smooth="yes"/>
			<point x="356" y="331"/>
			<point x="345" y="287"/>
			<point x="332" y="257" type="curve"/>
			<point x="337" y="253" type="line"/>
			<point x="375" y="293"/>
			<point x="454" y="366"/>
			<point x="454" y="415" type="curve" smooth="yes"/>
			<point x="454" y="465"/>
			<point x="400" y="512"/>
			<point x="314" y="512" type="curve" smooth="yes"/>
			<point x="156" y="512"/>
			<point x="25" y="399"/>
			<point x="25" y="238" type="curve" smooth="yes"/>
			<point x="25" y="103"/>
			<point x="117" y="-7"/>
		</contour>
	</outline>
</glyph>
<glyph name="d" format="2">
	<advance width="637"/>
	<unicode hex="0064"/>
	<guideline y="762"/>
	<outline>
		<contour>
			<point x="437" y="-7" type="line"/>
			<point x="496" y="23"/>
			<point x="583" y="50"/>
			<point x="647" y="67" type="curve"/>
			<point x="647" y="73" type="line"/>
			<point x="542" y="84" type="line"/>
			<point x="542" y="762" type="line"/>
			<point x="535" y="763" type="line"/>
			<point x="476" y="733"/>
			<point x="362" y="706"/>
			<point x="285" y="689" type="curve"/>
			<point x="285" y="683" type="line"/>
			<point x="430" y="672" type="line"/>
			<point x="430" y="-6" type="line"/>
		</contour>
		<contour>
			<point x="254" y="-10" type="curve" smooth="yes"/>
			<point x="345" y="-10"/>
			<point x="403" y="43"/>
			<point x="451" y="94" type="curve"/>
			<point x="447" y="119" type="line"/>
			<point x="413" y="86"/>
			<point x="371" y="48"/>
			<point x="310" y="48" type="curve" smooth="yes"/>
			<point x="199" y="48"/>
			<point x="158" y="173"/>
			<point x="158" y="271" type="curve" smooth="yes"/>
			<point x="158" y="356"/>
			<point x="179" y="480"/>
			<point x="286" y="480" type="curve" smooth="yes"/>
			<point x="387" y="480"/>
			<point x="440" y="370"/>
			<point x="440" y="278" type="curve"/>
			<point x="477" y="278" type="line"/>
			<point x="448" y="476" type="line"/>
			<point x="408" y="497"/>
			<point x="357" y="509"/>
			<point x="310" y="509" type="curve" smooth="yes"/>
			<point x="159" y="509"/>
			<point x="35" y="382"/>
			<point x="35" y="225" type="curve" smooth="yes"/>
			<point x="35" y="101"/>
			<point x="123" y="-10"/>
		</contour>
	</outline>
</glyph>
<glyph name="e" format="2">
	<advance width="461"/>
	<unicode hex="0065"/>
	<guideline y="512"/>
	<anchor x="259" y="500" name="top"/>
	<outline>
		<contour>
			<point x="257" y="-7" type="curve" smooth="yes"/>
			<point x="356" y="-7"/>
			<point x="408" y="47"/>
			<point x="456" y="119" type="curve"/>
			<point x="450" y="124" type="line"/>
			<point x="406" y="79"/>
			<point x="365" y="57"/>
			<point x="313" y="57" type="curve" smooth="yes"/>
			<point x="195" y="57"/>
			<point x="141" y="171"/>
			<point x="141" y="277" type="curve" smooth="yes"/>
			<point x="141" y="403"/>
			<point x="190" y="475"/>
			<point x="259" y="475" type="curve" smooth="yes"/>
			<point x="301" y="475"/>
			<point x="329" y="431"/>
			<point x="332" y="385" type="curve"/>
			<point x="-20" y="288" type="line"/>
			<point x="-19" y="282" type="line"/>
			<point x="432" y="331" type="line"/>
			<point x="432" y="429"/>
			<point x="398" y="511"/>
			<point x="284" y="511" type="curve" smooth="yes"/>
			<point x="150" y="511"/>
			<point x="35" y="375"/>
			<point x="35" y="229" type="curve" smooth="yes"/>
			<point x="35" y="92"/>
			<point x="122" y="-7"/>
		</contour>
	</outline>
</glyph>
<glyph name="g" format="2">
	<advance width="517"/>
	<unicode hex="0067"/>
	<outline>
		<contour>
			<point x="185" y="-255" type="curve" smooth="yes"/>
			<point x="290" y="-255"/>
			<point x="494" y="-184"/>
			<point x="494" y="-64" type="curve" smooth="yes"/>
			<point x="494" y="0"/>
			<point x="450" y="49"/>
			<point x="382" y="66" type="curve" smooth="yes"/>
			<point x="187" y="114" type="line" smooth="yes"/>
			<point x="134" y="127"/>
			<point x="127" y="147"/>
			<point x="139" y="170" type="curve" smooth="yes"/>
			<point x="151" y="192" type="line"/>
			<point x="134" y="209" type="line"/>
			<point x="27" y="115" type="line"/>
			<point x="27" y="68"/>
			<point x="88" y="17"/>
			<point x="130" y="10" type="curve"/>
			<point x="91" y="-20" type="line" smooth="yes"/>
			<point x="61" y="-43"/>
			<point x="20" y="-79"/>
			<point x="20" y="-131" type="curve" smooth="yes"/>
			<point x="20" y="-205"/>
			<point x="95" y="-255"/>
		</contour>
		<contour>
			<point x="268" y="-197" type="curve" smooth="yes"/>
			<point x="166" y="-197"/>
			<point x="121" y="-141"/>
			<point x="121" y="-94" type="curve" smooth="yes"/>
			<point x="121" y="-68"/>
			<point x="125" y="-45"/>
			<point x="140" y="-15" type="curve" smooth="yes"/>
			<point x="149" y="3" type="line"/>
			<point x="358" y="-43" type="line" smooth="yes"/>
			<point x="400" y="-52"/>
			<point x="425" y="-74"/>
			<point x="425" y="-103" type="curve" smooth="yes"/>
			<point x="425" y="-169"/>
			<point x="345" y="-197"/>
		</contour>
		<contour>
			<point x="247" y="162" type="curve" smooth="yes"/>
			<point x="352" y="162"/>
			<point x="443" y="240"/>
			<point x="443" y="335" type="curve" smooth="yes"/>
			<point x="443" y="430"/>
			<point x="352" y="508"/>
			<point x="247" y="508" type="curve" smooth="yes"/>
			<point x="142" y="508"/>
			<point x="52" y="430"/>
			<point x="52" y="335" type="curve" smooth="yes"/>
			<point x="52" y="240"/>
			<point x="142" y="162"/>
		</contour>
		<contour>
			<point x="248" y="191" type="curve" smooth="yes"/>
			<point x="199" y="191"/>
			<point x="167" y="261"/>
			<point x="167" y="335" type="curve" smooth="yes"/>
			<point x="167" y="410"/>
			<point x="199" y="480"/>
			<point x="248" y="480" type="curve" smooth="yes"/>
			<point x="298" y="480"/>
			<point x="330" y="410"/>
			<point x="330" y="335" type="curve" smooth="yes"/>
			<point x="330" y="261"/>
			<point x="298" y="191"/>
		</contour>
		<contour>
			<point x="335" y="394" type="line"/>
			<point x="507" y="491" type="line"/>
			<point x="504" y="500" type="line"/>
			<point x="315" y="485" type="line"/>
		</contour>
	</outline>
</glyph>
<glyph name="h" format="2">
	<advance width="630"/>
	<unicode hex="0068"/>
	<guideline y="762"/>
	<outline>
		<contour>
			<point x="-10" y="0" type="line"/>
			<point x="304" y="0" type="line"/>
			<point x="304" y="4" type="line"/>
			<point x="303" y="5"/>
			<point x="207" y="35"/>
			<point x="207" y="35" type="curve"/>
			<point x="207" y="761" type="line"/>
			<point x="200" y="762" type="line"/>
			<point x="141" y="732"/>
			<point x="54" y="705"/>
			<point x="-10" y="688" type="curve"/>
			<point x="-10" y="682" type="line"/>
			<point x="95" y="671" type="line"/>
			<point x="95" y="35" type="line"/>
			<point x="-10" y="4" type="line"/>
		</contour>
		<contour>
			<point x="326" y="0" type="line"/>
			<point x="640" y="0" type="line"/>
			<point x="640" y="4" type="line"/>
			<point x="638" y="6"/>
			<point x="534" y="35"/>
			<point x="534" y="35" type="curve"/>
			<point x="534" y="340" type="line" smooth="yes"/>
			<point x="534" y="428"/>
			<point x="477" y="508"/>
			<point x="376" y="508" type="curve" smooth="yes"/>
			<point x="310" y="508"/>
			<point x="251" y="464"/>
			<point x="204" y="421" type="curve"/>
			<point x="205" y="392" type="line"/>
			<point x="238" y="419"/>
			<point x="275" y="446"/>
			<point x="320" y="446" type="curve" smooth="yes"/>
			<point x="397" y="446"/>
			<point x="422" y="372"/>
			<point x="422" y="301" type="curve" smooth="yes"/>
			<point x="422" y="35" type="line"/>
			<point x="326" y="4" type="line"/>
		</contour>
	</outline>
</glyph>
<glyph name="i" format="2">
	<advance width="332"/>
	<unicode hex="0069"/>
	<outline>
		<contour>
			<point x="10" y="0" type="line"/>
			<point x="332" y="0" type="line"/>
			<point x="332" y="4" type="line"/>
			<point x="331" y="5"/>
			<point x="227" y="35"/>
			<point x="227" y="35" type="curve"/>
			<point x="227" y="508" type="line"/>
			<point x="220" y="509" type="line"/>
			<point x="161" y="479"/>
			<point x="74" y="452"/>
			<point x="10" y="435" type="curve"/>
			<point x="10" y="429" type="line"/>
			<point x="115" y="418" type="line"/>
			<point x="115" y="35" type="line"/>
			<point x="10" y="4" type="line"/>
		</contour>
		<contour>
			<point x="171" y="605" type="line"/>
			<point x="257" y="689" type="line"/>
			<point x="171" y="775" type="line"/>
			<point x="86" y="689" type="line"/>
		</contour>
	</outline>
</glyph>
<glyph name="j" format="2">
	<advance width="286"/>
	<unicode hex="006A"/>
	<outline>
		<contour>
			<point x="-6" y="-250" type="line"/>
			<point x="73" y="-185"/>
			<point x="210" y="-50"/>
			<point x="210" y="52" type="curve" smooth="yes"/>
			<point x="210" y="508" type="line"/>
			<point x="203" y="509" type="line"/>
			<point x="144" y="479"/>
			<point x="57" y="452"/>
			<point x="-7" y="435" type="curve"/>
			<point x="-7" y="429" type="line"/>
			<point x="98" y="418" type="line"/>
			<point x="98" y="24" type="line" smooth="yes"/>
			<point x="98" y="-84"/>
			<point x="56" y="-159"/>
			<point x="-10" y="-244" type="curve"/>
		</contour>
		<contour>
			<point x="155" y="605" type="line"/>
			<point x="241" y="689" type="line"/>
			<point x="155" y="775" type="line"/>
			<point x="71" y="689" type="line"/>
		</contour>
	</outline>
</glyph>
<glyph name="k" format="2">
	<advance width="554"/>
	<unicode hex="006B"/>
	<guideline y="35"/>
	<outline>
		<contour>
			<point x="-10" y="0" type="line"/>
			<point x="304" y="0" type="line"/>
			<point x="304" y="4" type="line"/>
			<point x="303" y="5"/>
			<point x="207" y="35"/>
			<point x="207" y="35" type="curve"/>
			<point x="207" y="761" type="line"/>
			<point x="200" y="762" type="line"/>
			<point x="141" y="732"/>
			<point x="54" y="705"/>
			<point x="-10" y="688" type="curve"/>
			<point x="-10" y="682" type="line"/>
			<point x="95" y="671" type="line"/>
			<point x="95" y="35" type="line"/>
			<point x="-10" y="4" type="line"/>
		</contour>
		<contour>
			<point x="332" y="0" type="line"/>
			<point x="604" y="0" type="line"/>
			<point x="604" y="4" type="line"/>
			<point x="525" y="34" type="line"/>
			<point x="272" y="315" type="line"/>
			<point x="545" y="497" type="line"/>
			<point x="545" y="500" type="line"/>
			<point x="270" y="500" type="line"/>
			<point x="270" y="497" type="line"/>
			<point x="384" y="468" type="line"/>
			<point x="206" y="279" type="line"/>
			<point x="206" y="253" type="line"/>
			<point x="409" y="30" type="line"/>
			<point x="332" y="4" type="line"/>
		</contour>
	</outline>
</glyph>
<glyph name="l" format="2">
	<advance width="309"/>
	<unicode hex="006C"/>
	<outline>
		<contour>
			<point x="-10" y="0" type="line"/>
			<point x="304" y="0" type="line"/>
			<point x="304" y="4" type="line"/>
			<point x="303" y="5"/>
			<point x="207" y="35"/>
			<point x="207" y="35" type="curve"/>
			<point x="207" y="761" type="line"/>
			<point x="200" y="762" type="line"/>
			<point x="141" y="732"/>
			<point x="54" y="705"/>
			<point x="-10" y="688" type="curve"/>
			<point x="-10" y="682" type="line"/>
			<point x="95" y="671" type="line"/>
			<point x="95" y="35" type="line"/>
			<point x="-10" y="4" type="line"/>
		</contour>
	</outline>
</glyph>
<glyph name="m" format="2">
	<advance width="966"/>
	<unicode hex="006D"/>
	<outline>
		<contour>
			<point x="662" y="0" type="line"/>
			<point x="976" y="0" type="line"/>
			<point x="976" y="4" type="line"/>
			<point x="974" y="6"/>
			<point x="870" y="35"/>
			<point x="870" y="35" type="curve"/>
			<point x="870" y="340" type="line" smooth="yes"/>
			<point x="870" y="428"/>
			<point x="813" y="508"/>
			<point x="712" y="508" type="curve" smooth="yes"/>
			<point x="643" y="508"/>
			<point x="571" y="452"/>
			<point x="524" y="409" type="curve"/>
			<point x="525" y="380" type="line"/>
			<point x="558" y="407"/>
			<point x="611" y="446"/>
			<point x="656" y="446" type="curve" smooth="yes"/>
			<point x="733" y="446"/>
			<point x="758" y="372"/>
			<point x="758" y="301" type="curve" smooth="yes"/>
			<point x="758" y="35" type="line"/>
			<point x="662" y="4" type="line"/>
		</contour>
		<contour>
			<point x="0" y="0" type="line"/>
			<point x="314" y="0" type="line"/>
			<point x="314" y="4" type="line"/>
			<point x="313" y="5"/>
			<point x="217" y="35"/>
			<point x="217" y="35" type="curve"/>
			<point x="217" y="508" type="line"/>
			<point x="210" y="509" type="line"/>
			<point x="151" y="479"/>
			<point x="64" y="452"/>
			<point x="0" y="435" type="curve"/>
			<point x="0" y="429" type="line"/>
			<point x="105" y="418" type="line"/>
			<point x="105" y="35" type="line"/>
			<point x="0" y="4" type="line"/>
		</contour>
		<contour>
			<point x="333" y="0" type="line"/>
			<point x="647" y="0" type="line"/>
			<point x="647" y="4" type="line"/>
			<point x="645" y="6"/>
			<point x="544" y="35"/>
			<point x="544" y="35" type="curve"/>
			<point x="544" y="340" type="line" smooth="yes"/>
			<point x="544" y="428"/>
			<point x="487" y="508"/>
			<point x="386" y="508" type="curve" smooth="yes"/>
			<point x="320" y="508"/>
			<point x="261" y="464"/>
			<point x="214" y="421" type="curve"/>
			<point x="215" y="392" type="line"/>
			<point x="248" y="419"/>
			<point x="285" y="446"/>
			<point x="330" y="446" type="curve" smooth="yes"/>
			<point x="407" y="446"/>
			<point x="432" y="372"/>
			<point x="432" y="301" type="curve" smooth="yes"/>
			<point x="432" y="35" type="line"/>
			<point x="333" y="4" type="line"/>
		</contour>
	</outline>
</glyph>
<glyph name="n" format="2">
	<advance width="630"/>
	<unicode hex="006E"/>
	<guideline x="30"/>
	<guideline y="512"/>
	<anchor x="324" y="500" name="top"/>
	<outline>
		<contour>
			<point x="336" y="0" type="line"/>
			<point x="650" y="0" type="line"/>
			<point x="650" y="4" type="line"/>
			<point x="648" y="6"/>
			<point x="544" y="35"/>
			<point x="544" y="35" type="curve"/>
			<point x="544" y="340" type="line" smooth="yes"/>
			<point x="544" y="428"/>
			<point x="487" y="508"/>
			<point x="386" y="508" type="curve" smooth="yes"/>
			<point x="320" y="508"/>
			<point x="261" y="464"/>
			<point x="214" y="421" type="curve"/>
			<point x="215" y="392" type="line"/>
			<point x="248" y="419"/>
			<point x="285" y="446"/>
			<point x="330" y="446" type="curve" smooth="yes"/>
			<point x="407" y="446"/>
			<point x="432" y="372"/>
			<point x="432" y="301" type="curve" smooth="yes"/>
			<point x="432" y="35" type="line"/>
			<point x="336" y="4" type="line"/>
		</contour>
		<contour>
			<point x="0" y="0" type="line"/>
			<point x="314" y="0" type="line"/>
			<point x="314" y="4" type="line"/>
			<point x="313" y="5"/>
			<point x="217" y="35"/>
			<point x="217" y="35" type="curve"/>
			<point x="217" y="508" type="line"/>
			<point x="210" y="509" type="line"/>
			<point x="151" y="479"/>
			<point x="64" y="452"/>
			<point x="0" y="435" type="curve"/>
			<point x="0" y="429" type="line"/>
			<point x="105" y="418" type="line"/>
			<point x="105" y="35" type="line"/>
			<point x="0" y="4" type="line"/>
		</contour>
	</outline>
</glyph>
<glyph name="o" format="2">
	<advance width="554"/>
	<unicode hex="006F"/>
	<anchor x="246" y="500" name="top"/>
	<outline>
		<contour>
			<point x="277" y="-8" type="curve" smooth="yes"/>
			<point x="432" y="-8"/>
			<point x="529" y="100"/>
			<point x="529" y="252" type="curve" smooth="yes"/>
			<point x="529" y="403"/>
			<point x="430" y="509"/>
			<point x="277" y="509" type="curve" smooth="yes"/>
			<point x="123" y="509"/>
			<point x="25" y="404"/>
			<point x="25" y="252" type="curve" smooth="yes"/>
			<point x="25" y="99"/>
			<point x="121" y="-8"/>
		</contour>
		<contour>
			<point x="315" y="29" type="curve" smooth="yes"/>
			<point x="198" y="29"/>
			<point x="132" y="213"/>
			<point x="132" y="309" type="curve" smooth="yes"/>
			<point x="132" y="373"/>
			<point x="158" y="475"/>
			<point x="239" y="475" type="curve" smooth="yes"/>
			<point x="356" y="475"/>
			<point x="422" y="291"/>
			<point x="422" y="195" type="curve" smooth="yes"/>
			<point x="422" y="131"/>
			<point x="396" y="29"/>
		</contour>
	</outline>
</glyph>
<glyph name="p" format="2">
	<advance width="633"/>
	<unicode hex="0070"/>
	<guideline y="512"/>
	<outline>
		<contour>
			<point x="0" y="-250" type="line"/>
			<point x="364" y="-250" type="line"/>
			<point x="364" y="-246" type="line"/>
			<point x="363" y="-245"/>
			<point x="217" y="-215"/>
			<point x="217" y="-215" type="curve"/>
			<point x="217" y="508" type="line"/>
			<point x="210" y="509" type="line"/>
			<point x="151" y="479"/>
			<point x="64" y="452"/>
			<point x="0" y="435" type="curve"/>
			<point x="0" y="429" type="line"/>
			<point x="105" y="418" type="line"/>
			<point x="105" y="-215" type="line"/>
			<point x="0" y="-246" type="line"/>
		</contour>
		<contour>
			<point x="338" y="-10" type="curve" smooth="yes"/>
			<point x="489" y="-10"/>
			<point x="613" y="117"/>
			<point x="613" y="274" type="curve" smooth="yes"/>
			<point x="613" y="398"/>
			<point x="525" y="509"/>
			<point x="394" y="509" type="curve" smooth="yes"/>
			<point x="303" y="509"/>
			<point x="245" y="456"/>
			<point x="197" y="405" type="curve"/>
			<point x="201" y="380" type="line"/>
			<point x="235" y="413"/>
			<point x="277" y="451"/>
			<point x="338" y="451" type="curve" smooth="yes"/>
			<point x="449" y="451"/>
			<point x="490" y="326"/>
			<point x="490" y="228" type="curve" smooth="yes"/>
			<point x="490" y="143"/>
			<point x="469" y="19"/>
			<point x="362" y="19" type="curve" smooth="yes"/>
			<point x="261" y="19"/>
			<point x="208" y="129"/>
			<point x="208" y="221" type="curve"/>
			<point x="171" y="221" type="line"/>
			<point x="200" y="23" type="line"/>
			<point x="240" y="2"/>
			<point x="291" y="-10"/>
		</contour>
	</outline>
</glyph>
<glyph name="q" format="2">
	<advance width="627"/>
	<unicode hex="0071"/>
	<outline>
		<contour>
			<point x="295" y="-250" type="line"/>
			<point x="647" y="-250" type="line"/>
			<point x="647" y="-246" type="line"/>
			<point x="646" y="-245"/>
			<point x="542" y="-215"/>
			<point x="542" y="-215" type="curve"/>
			<point x="542" y="322" type="line" smooth="yes"/>
			<point x="542" y="417"/>
			<point x="563" y="525"/>
			<point x="563" y="525" type="curve"/>
			<point x="559" y="527" type="line"/>
			<point x="483" y="458" type="line"/>
			<point x="430" y="418" type="line"/>
			<point x="430" y="-215" type="line"/>
			<point x="295" y="-246" type="line"/>
		</contour>
		<contour>
			<point x="254" y="-7" type="curve" smooth="yes"/>
			<point x="345" y="-7"/>
			<point x="403" y="46"/>
			<point x="451" y="97" type="curve"/>
			<point x="447" y="122" type="line"/>
			<point x="413" y="89"/>
			<point x="371" y="51"/>
			<point x="310" y="51" type="curve" smooth="yes"/>
			<point x="199" y="51"/>
			<point x="158" y="176"/>
			<point x="158" y="274" type="curve" smooth="yes"/>
			<point x="158" y="359"/>
			<point x="179" y="483"/>
			<point x="286" y="483" type="curve" smooth="yes"/>
			<point x="387" y="483"/>
			<point x="440" y="373"/>
			<point x="440" y="281" type="curve"/>
			<point x="477" y="281" type="line"/>
			<point x="505" y="454" type="line"/>
			<point x="467" y="482"/>
			<point x="383" y="512"/>
			<point x="310" y="512" type="curve" smooth="yes"/>
			<point x="159" y="512"/>
			<point x="35" y="385"/>
			<point x="35" y="228" type="curve" smooth="yes"/>
			<point x="35" y="104"/>
			<point x="123" y="-7"/>
		</contour>
	</outline>
</glyph>
<glyph name="r" format="2">
	<advance width="448"/>
	<unicode hex="0072"/>
	<anchor x="226" y="500" name="top"/>
	<outline>
		<contour>
			<point x="3" y="0" type="line"/>
			<point x="357" y="0" type="line"/>
			<point x="357" y="4" type="line"/>
			<point x="356" y="5"/>
			<point x="220" y="35"/>
			<point x="220" y="35" type="curve"/>
			<point x="220" y="508" type="line"/>
			<point x="213" y="509" type="line"/>
			<point x="154" y="479"/>
			<point x="67" y="452"/>
			<point x="3" y="435" type="curve"/>
			<point x="3" y="429" type="line"/>
			<point x="108" y="418" type="line"/>
			<point x="108" y="35" type="line"/>
			<point x="3" y="4" type="line"/>
		</contour>
		<contour>
			<point x="347" y="295" type="line"/>
			<point x="419" y="367"/>
			<point x="433" y="407"/>
			<point x="433" y="439" type="curve" smooth="yes"/>
			<point x="433" y="483"/>
			<point x="396" y="510"/>
			<point x="359" y="510" type="curve" smooth="yes"/>
			<point x="304" y="510"/>
			<point x="243" y="452"/>
			<point x="215" y="406" type="curve"/>
			<point x="215" y="386" type="line"/>
			<point x="250" y="416"/>
			<point x="279" y="434"/>
			<point x="309" y="434" type="curve" smooth="yes"/>
			<point x="365" y="434"/>
			<point x="381" y="370"/>
			<point x="343" y="299" type="curve"/>
		</contour>
	</outline>
</glyph>
<glyph name="s" format="2">
	<advance width="423"/>
	<unicode hex="0073"/>
	<anchor x="229" y="0" name="bottom"/>
	<anchor x="227" y="500" name="top"/>
	<outline>
		<contour>
			<point x="213" y="-7" type="curve" smooth="yes"/>
			<point x="294" y="-7"/>
			<point x="403" y="44"/>
			<point x="403" y="151" type="curve" smooth="yes"/>
			<point x="403" y="196"/>
			<point x="384" y="241"/>
			<point x="331" y="267" type="curve" smooth="yes"/>
			<point x="200" y="332" type="line" smooth="yes"/>
			<point x="166" y="349"/>
			<point x="144" y="371"/>
			<point x="144" y="404" type="curve" smooth="yes"/>
			<point x="144" y="446"/>
			<point x="179" y="480"/>
			<point x="229" y="480" type="curve" smooth="yes"/>
			<point x="303" y="480"/>
			<point x="332" y="404"/>
			<point x="327" y="334" type="curve"/>
			<point x="333" y="332" type="line"/>
			<point x="394" y="467" type="line"/>
			<point x="364" y="490"/>
			<point x="296" y="508"/>
			<point x="244" y="508" type="curve" smooth="yes"/>
			<point x="161" y="508"/>
			<point x="64" y="462"/>
			<point x="64" y="357" type="curve" smooth="yes"/>
			<point x="64" y="315"/>
			<point x="80" y="267"/>
			<point x="132" y="242" type="curve" smooth="yes"/>
			<point x="263" y="179" type="line" smooth="yes"/>
			<point x="298" y="162"/>
			<point x="317" y="139"/>
			<point x="317" y="106" type="curve" smooth="yes"/>
			<point x="317" y="59"/>
			<point x="279" y="20"/>
			<point x="227" y="20" type="curve" smooth="yes"/>
			<point x="140" y="20"/>
			<point x="86" y="132"/>
			<point x="96" y="213" type="curve"/>
			<point x="91" y="215" type="line"/>
			<point x="20" y="61" type="line"/>
			<point x="58" y="26"/>
			<point x="147" y="-7"/>
		</contour>
	</outline>
</glyph>
<glyph name="t" format="2">
	<advance width="346"/>
	<unicode hex="0074"/>
	<anchor x="204" y="0" name="bottom"/>
	<anchor x="179" y="572" name="top"/>
	<outline>
		<contour>
			<point x="202" y="-10" type="curve" smooth="yes"/>
			<point x="272" y="-10"/>
			<point x="328" y="37"/>
			<point x="366" y="94" type="curve"/>
			<point x="357" y="100" type="line"/>
			<point x="326" y="64"/>
			<point x="290" y="42"/>
			<point x="249" y="42" type="curve" smooth="yes"/>
			<point x="217" y="42"/>
			<point x="196" y="65"/>
			<point x="196" y="106" type="curve" smooth="yes"/>
			<point x="196" y="445" type="line"/>
			<point x="310" y="445" type="line"/>
			<point x="340" y="500" type="line"/>
			<point x="196" y="500" type="line"/>
			<point x="196" y="581" type="line"/>
			<point x="189" y="582" type="line"/>
			<point x="130" y="523"/>
			<point x="69" y="486"/>
			<point x="0" y="453" type="curve"/>
			<point x="0" y="445" type="line"/>
			<point x="84" y="445" type="line"/>
			<point x="84" y="100" type="line" smooth="yes"/>
			<point x="84" y="29"/>
			<point x="131" y="-10"/>
		</contour>
	</outline>
</glyph>
<glyph name="u" format="2">
	<advance width="639"/>
	<unicode hex="0075"/>
	<anchor x="316" y="500" name="top"/>
	<outline>
		<contour>
			<point x="253" y="-6" type="curve" smooth="yes"/>
			<point x="319" y="-6"/>
			<point x="378" y="38"/>
			<point x="425" y="81" type="curve"/>
			<point x="424" y="110" type="line"/>
			<point x="391" y="83"/>
			<point x="354" y="56"/>
			<point x="309" y="56" type="curve" smooth="yes"/>
			<point x="232" y="56"/>
			<point x="207" y="130"/>
			<point x="207" y="201" type="curve" smooth="yes"/>
			<point x="207" y="508" type="line"/>
			<point x="200" y="509" type="line"/>
			<point x="141" y="479"/>
			<point x="54" y="452"/>
			<point x="-10" y="435" type="curve"/>
			<point x="-10" y="429" type="line"/>
			<point x="95" y="418" type="line"/>
			<point x="95" y="162" type="line" smooth="yes"/>
			<point x="95" y="74"/>
			<point x="152" y="-6"/>
		</contour>
		<contour>
			<point x="429" y="-7" type="line"/>
			<point x="488" y="23"/>
			<point x="575" y="50"/>
			<point x="639" y="67" type="curve"/>
			<point x="639" y="73" type="line"/>
			<point x="534" y="84" type="line"/>
			<point x="534" y="508" type="line"/>
			<point x="527" y="509" type="line"/>
			<point x="468" y="479"/>
			<point x="381" y="452"/>
			<point x="317" y="435" type="curve"/>
			<point x="317" y="429" type="line"/>
			<point x="422" y="418" type="line"/>
			<point x="422" y="-6" type="line"/>
		</contour>
	</outline>
</glyph>
<glyph name="v" format="2">
	<advance width="542"/>
	<unicode hex="0076"/>
	<outline>
		<contour>
			<point x="265" y="0" type="line"/>
			<point x="271" y="0" type="line"/>
			<point x="489" y="469" type="line"/>
			<point x="577" y="495" type="line"/>
			<point x="577" y="500" type="line"/>
			<point x="319" y="500" type="line"/>
			<point x="319" y="495" type="line"/>
			<point x="418" y="470" type="line"/>
			<point x="314" y="150" type="line"/>
			<point x="167" y="471" type="line"/>
			<point x="272" y="495" type="line"/>
			<point x="272" y="500" type="line"/>
			<point x="-35" y="500" type="line"/>
			<point x="-35" y="495" type="line"/>
			<point x="44" y="471" type="line"/>
		</contour>
	</outline>
</glyph>
<glyph name="w" format="2">
	<advance width="888"/>
	<unicode hex="0077"/>
	<anchor x="461" y="500" name="top"/>
	<outline>
		<contour>
			<point x="611" y="0" type="line"/>
			<point x="617" y="0" type="line"/>
			<point x="835" y="469" type="line"/>
			<point x="923" y="495" type="line"/>
			<point x="923" y="500" type="line"/>
			<point x="665" y="500" type="line"/>
			<point x="665" y="495" type="line"/>
			<point x="764" y="470" type="line"/>
			<point x="660" y="150" type="line"/>
			<point x="513" y="471" type="line"/>
			<point x="621" y="495" type="line"/>
			<point x="621" y="500" type="line"/>
			<point x="314" y="500" type="line"/>
			<point x="314" y="495" type="line"/>
			<point x="390" y="471" type="line"/>
		</contour>
		<contour>
			<point x="265" y="0" type="line"/>
			<point x="271" y="0" type="line"/>
			<point x="489" y="469" type="line"/>
			<point x="418" y="470" type="line"/>
			<point x="314" y="150" type="line"/>
			<point x="167" y="471" type="line"/>
			<point x="272" y="495" type="line"/>
			<point x="272" y="500" type="line"/>
			<point x="-35" y="500" type="line"/>
			<point x="-35" y="495" type="line"/>
			<point x="44" y="471" type="line"/>
		</contour>
	</outline>
</glyph>
<glyph name="x" format="2">
	<advance width="554"/>
	<unicode hex="0078"/>
	<outline>
		<contour>
			<point x="287" y="0" type="line"/>
			<point x="589" y="0" type="line"/>
			<point x="589" y="5" type="line"/>
			<point x="502" y="30" type="line"/>
			<point x="186" y="473" type="line"/>
			<point x="270" y="495" type="line"/>
			<point x="270" y="500" type="line"/>
			<point x="-26" y="500" type="line"/>
			<point x="-26" y="495" type="line"/>
			<point x="56" y="470" type="line"/>
			<point x="374" y="27" type="line"/>
			<point x="287" y="5" type="line"/>
		</contour>
		<contour>
			<point x="-35" y="0" type="line"/>
			<point x="258" y="0" type="line"/>
			<point x="258" y="5" type="line"/>
			<point x="144" y="32" type="line"/>
			<point x="260" y="223" type="line"/>
			<point x="243" y="238" type="line"/>
			<point x="67" y="35" type="line"/>
			<point x="-35" y="5" type="line"/>
		</contour>
		<contour>
			<point x="306" y="271" type="line"/>
			<point x="465" y="468" type="line"/>
			<point x="580" y="495" type="line"/>
			<point x="580" y="500" type="line"/>
			<point x="300" y="500" type="line"/>
			<point x="300" y="495" type="line"/>
			<point x="389" y="471" type="line"/>
			<point x="292" y="285" type="line"/>
		</contour>
	</outline>
</glyph>
<glyph name="y" format="2">
	<advance width="537"/>
	<unicode hex="0079"/>
	<anchor x="289" y="500" name="top"/>
	<outline>
		<contour>
			<point x="-11" y="-250" type="line"/>
			<point x="157" y="-250" type="line"/>
			<point x="489" y="469" type="line"/>
			<point x="577" y="495" type="line"/>
			<point x="577" y="500" type="line"/>
			<point x="319" y="500" type="line"/>
			<point x="319" y="495" type="line"/>
			<point x="418" y="470" type="line"/>
			<point x="314" y="150" type="line"/>
			<point x="167" y="471" type="line"/>
			<point x="272" y="495" type="line"/>
			<point x="272" y="500" type="line"/>
			<point x="-35" y="500" type="line"/>
			<point x="-35" y="495" type="line"/>
			<point x="44" y="471" type="line"/>
			<point x="257" y="18" type="line"/>
			<point x="176" y="-114"/>
			<point x="110" y="-189"/>
			<point x="-11" y="-245" type="curve"/>
		</contour>
	</outline>
</glyph>
<glyph name="z" format="2">
	<advance width="507"/>
	<unicode hex="007A"/>
	<guideline x="46"/>
	<anchor x="275" y="500" name="top"/>
	<outline>
		<contour>
			<point x="21" y="0" type="line"/>
			<point x="437" y="0" type="line"/>
			<point x="487" y="241" type="line"/>
			<point x="483" y="242" type="line"/>
			<point x="434" y="125"/>
			<point x="365" y="35"/>
			<point x="253" y="28" type="curve" smooth="yes"/>
			<point x="161" y="22" type="line"/>
			<point x="470" y="496" type="line"/>
			<point x="468" y="500" type="line"/>
			<point x="86" y="500" type="line"/>
			<point x="53" y="291" type="line"/>
			<point x="57" y="290" type="line"/>
			<point x="112" y="408"/>
			<point x="156" y="466"/>
			<point x="256" y="474" type="curve" smooth="yes"/>
			<point x="331" y="480" type="line"/>
			<point x="20" y="4" type="line"/>
		</contour>
	</outline>
</glyph>
<glyph name="braceleft" format="2">
	<advance width="224"/>
	<unicode hex="007B"/>
	<outline>
		<contour>
			<point x="204" y="-142" type="line"/>
			<point x="204" y="-130" type="line"/>
			<point x="189" y="-129" type="line" smooth="yes"/>
			<point x="119" y="-124"/>
			<point x="83" y="-88"/>
			<point x="99" y="-15" type="curve" smooth="yes"/>
			<point x="131" y="130" type="line" smooth="yes"/>
			<point x="153" y="230"/>
			<point x="83" y="273"/>
			<point x="46" y="279" type="curve"/>
			<point x="83" y="285"/>
			<point x="153" y="328"/>
			<point x="131" y="428" type="curve" smooth="yes"/>
			<point x="99" y="573" type="line" smooth="yes"/>
			<point x="83" y="646"/>
			<point x="119" y="682"/>
			<point x="189" y="687" type="curve" smooth="yes"/>
			<point x="204" y="688" type="line"/>
			<point x="204" y="700" type="line"/>
			<point x="188" y="699" type="line" smooth="yes"/>
			<point x="108" y="694"/>
			<point x="66" y="652"/>
			<point x="84" y="571" type="curve" smooth="yes"/>
			<point x="116" y="426" type="line" smooth="yes"/>
			<point x="133" y="349"/>
			<point x="94" y="299"/>
			<point x="41" y="286" type="curve" smooth="yes"/>
			<point x="20" y="281" type="line"/>
			<point x="20" y="277" type="line"/>
			<point x="40" y="272" type="line" smooth="yes"/>
			<point x="94" y="259"/>
			<point x="133" y="209"/>
			<point x="116" y="132" type="curve" smooth="yes"/>
			<point x="84" y="-13" type="line" smooth="yes"/>
			<point x="66" y="-94"/>
			<point x="108" y="-136"/>
			<point x="188" y="-141" type="curve" smooth="yes"/>
		</contour>
	</outline>
</glyph>
<glyph name="bar" format="2">
	<advance width="54"/>
	<unicode hex="007C"/>
	<outline>
		<contour>
			<point x="20" y="-80" type="line"/>
			<point x="34" y="-80" type="line"/>
			<point x="34" y="790" type="line"/>
			<point x="20" y="790" type="line"/>
		</contour>
	</outline>
</glyph>
<glyph name="cent" format="2">
	<advance width="495"/>
	<unicode hex="00A2"/>
	<outline>
		<contour>
			<point x="112" y="-153" type="line"/>
			<point x="410" y="665" type="line"/>
			<point x="398" y="669" type="line"/>
			<point x="100" y="-149" type="line"/>
		</contour>
		<component base="c"/>
	</outline>
</glyph>
<glyph name="sterling" format="2">
	<advance width="635"/>
	<unicode hex="00A3"/>
	<outline>
		<contour>
			<point x="156" y="-11" type="curve" smooth="yes"/>
			<point x="247" y="-11"/>
			<point x="358" y="108"/>
			<point x="358" y="243" type="curve" smooth="yes"/>
			<point x="358" y="382"/>
			<point x="181" y="459"/>
			<point x="181" y="576" type="curve" smooth="yes"/>
			<point x="181" y="631"/>
			<point x="218" y="672"/>
			<point x="306" y="672" type="curve" smooth="yes"/>
			<point x="416" y="672"/>
			<point x="535" y="576"/>
			<point x="513" y="448" type="curve"/>
			<point x="519" y="447" type="line"/>
			<point x="578" y="641" type="line"/>
			<point x="575" y="643" type="line" smooth="yes"/>
			<point x="513" y="685"/>
			<point x="421" y="707"/>
			<point x="339" y="707" type="curve" smooth="yes"/>
			<point x="206" y="707"/>
			<point x="93" y="633"/>
			<point x="93" y="521" type="curve" smooth="yes"/>
			<point x="93" y="406"/>
			<point x="264" y="314"/>
			<point x="264" y="184" type="curve" smooth="yes"/>
			<point x="264" y="70"/>
			<point x="223" y="18"/>
			<point x="161" y="18" type="curve" smooth="yes"/>
			<point x="126" y="18"/>
			<point x="92" y="45"/>
			<point x="92" y="83" type="curve" smooth="yes"/>
			<point x="92" y="113"/>
			<point x="114" y="144"/>
			<point x="154" y="144" type="curve" smooth="yes"/>
			<point x="247" y="144"/>
			<point x="302" y="-10"/>
			<point x="440" y="-10" type="curve" smooth="yes"/>
			<point x="484" y="-10"/>
			<point x="497" y="-7"/>
			<point x="552" y="10" type="curve"/>
			<point x="586" y="217" type="line"/>
			<point x="581" y="218" type="line"/>
			<point x="569" y="192" type="line" smooth="yes"/>
			<point x="529" y="105"/>
			<point x="502" y="78"/>
			<point x="440" y="78" type="curve" smooth="yes"/>
			<point x="316" y="78"/>
			<point x="249" y="175"/>
			<point x="156" y="175" type="curve" smooth="yes"/>
			<point x="98" y="175"/>
			<point x="54" y="129"/>
			<point x="54" y="83" type="curve" smooth="yes"/>
			<point x="54" y="28"/>
			<point x="96" y="-11"/>
		</contour>
		<contour>
			<point x="58" y="338" type="line"/>
			<point x="527" y="338" type="line"/>
			<point x="527" y="352" type="line"/>
			<point x="58" y="352" type="line"/>
		</contour>
	</outline>
</glyph>
<glyph name="yen" format="2">
	<advance width="594"/>
	<unicode hex="00A5"/>
	<outline>
		<contour>
			<point x="95" y="-1" type="line"/>
			<point x="510" y="-1" type="line"/>
			<point x="510" y="4" type="line"/>
			<point x="363" y="44" type="line"/>
			<point x="363" y="306" type="line"/>
			<point x="578" y="665" type="line"/>
			<point x="674" y="697" type="line"/>
			<point x="674" y="700" type="line"/>
			<point x="344" y="700" type="line"/>
			<point x="344" y="696" type="line"/>
			<point x="478" y="665" type="line"/>
			<point x="344" y="336" type="line"/>
			<point x="154" y="669" type="line"/>
			<point x="280" y="696" type="line"/>
			<point x="280" y="700" type="line"/>
			<point x="-100" y="700" type="line"/>
			<point x="-100" y="696" type="line"/>
			<point x="12" y="671" type="line"/>
			<point x="234" y="285" type="line"/>
			<point x="234" y="44" type="line"/>
			<point x="95" y="4" type="line"/>
		</contour>
		<contour>
			<point x="25" y="368" type="line"/>
			<point x="242" y="368" type="line"/>
			<point x="221" y="382" type="line"/>
			<point x="25" y="382" type="line"/>
		</contour>
		<contour>
			<point x="25" y="241" type="line"/>
			<point x="559" y="241" type="line"/>
			<point x="559" y="255" type="line"/>
			<point x="25" y="255" type="line"/>
		</contour>
		<contour>
			<point x="374" y="368" type="line"/>
			<point x="559" y="368" type="line"/>
			<point x="559" y="382" type="line"/>
			<point x="401" y="382" type="line"/>
		</contour>
	</outline>
</glyph>
<glyph name="brokenbar" format="2">
	<advance width="54"/>
	<unicode hex="00A6"/>
	<outline>
		<contour>
			<point x="20" y="445" type="line"/>
			<point x="34" y="445" type="line"/>
			<point x="34" y="790" type="line"/>
			<point x="20" y="790" type="line"/>
		</contour>
		<contour>
			<point x="20" y="-80" type="line"/>
			<point x="34" y="-80" type="line"/>
			<point x="34" y="265" type="line"/>
			<point x="20" y="265" type="line"/>
		</contour>
	</outline>
</glyph>
<glyph name="section" format="2">
	<advance width="423"/>
	<unicode hex="00A7"/>
	<outline>
		<contour>
			<point x="213" y="-129" type="curve" smooth="yes"/>
			<point x="294" y="-129"/>
			<point x="403" y="-78"/>
			<point x="403" y="29" type="curve" smooth="yes"/>
			<point x="403" y="74"/>
			<point x="384" y="119"/>
			<point x="331" y="145" type="curve" smooth="yes"/>
			<point x="180" y="220" type="line" smooth="yes"/>
			<point x="139" y="240"/>
			<point x="102" y="271"/>
			<point x="102" y="320" type="curve" smooth="yes"/>
			<point x="102" y="382"/>
			<point x="150" y="431"/>
			<point x="209" y="459" type="curve"/>
			<point x="200" y="472" type="line"/>
			<point x="121" y="440"/>
			<point x="24" y="379"/>
			<point x="24" y="276" type="curve" smooth="yes"/>
			<point x="24" y="210"/>
			<point x="53" y="165"/>
			<point x="106" y="138" type="curve" smooth="yes"/>
			<point x="263" y="57" type="line" smooth="yes"/>
			<point x="298" y="39"/>
			<point x="317" y="17"/>
			<point x="317" y="-16" type="curve" smooth="yes"/>
			<point x="317" y="-63"/>
			<point x="279" y="-102"/>
			<point x="227" y="-102" type="curve" smooth="yes"/>
			<point x="140" y="-102"/>
			<point x="86" y="10"/>
			<point x="96" y="91" type="curve"/>
			<point x="91" y="93" type="line"/>
			<point x="20" y="-61" type="line"/>
			<point x="58" y="-96"/>
			<point x="147" y="-129"/>
		</contour>
		<contour>
			<point x="252" y="128" type="line"/>
			<point x="311" y="176"/>
			<point x="393" y="244"/>
			<point x="393" y="335" type="curve" smooth="yes"/>
			<point x="393" y="398"/>
			<point x="362" y="436"/>
			<point x="305" y="464" type="curve" smooth="yes"/>
			<point x="168" y="532" type="line" smooth="yes"/>
			<point x="134" y="549"/>
			<point x="112" y="571"/>
			<point x="112" y="604" type="curve" smooth="yes"/>
			<point x="112" y="646"/>
			<point x="147" y="680"/>
			<point x="197" y="680" type="curve" smooth="yes"/>
			<point x="271" y="680"/>
			<point x="300" y="604"/>
			<point x="295" y="534" type="curve"/>
			<point x="301" y="532" type="line"/>
			<point x="362" y="667" type="line"/>
			<point x="332" y="690"/>
			<point x="264" y="708"/>
			<point x="212" y="708" type="curve" smooth="yes"/>
			<point x="129" y="708"/>
			<point x="32" y="662"/>
			<point x="32" y="557" type="curve" smooth="yes"/>
			<point x="32" y="515"/>
			<point x="48" y="467"/>
			<point x="100" y="442" type="curve" smooth="yes"/>
			<point x="248" y="371" type="line" smooth="yes"/>
			<point x="281" y="355"/>
			<point x="313" y="330"/>
			<point x="313" y="280" type="curve" smooth="yes"/>
			<point x="313" y="233"/>
			<point x="276" y="172"/>
			<point x="246" y="137" type="curve"/>
		</contour>
	</outline>
</glyph>
<glyph name="dieresis" format="2">
	<advance width="475"/>
	<unicode hex="00A8"/>
	<anchor x="233" y="500" name="_top"/>
	<outline>
		<contour>
			<point x="340" y="614" type="line"/>
			<point x="423" y="695" type="line"/>
			<point x="340" y="778" type="line"/>
			<point x="258" y="695" type="line"/>
		</contour>
		<contour>
			<point x="134" y="614" type="line"/>
			<point x="217" y="695" type="line"/>
			<point x="134" y="778" type="line"/>
			<point x="52" y="695" type="line"/>
		</contour>
	</outline>
</glyph>
<glyph name="guillemotleft" format="2">
	<advance width="541"/>
	<unicode hex="00AB"/>
	<outline>
		<contour>
			<point x="537" y="37" type="line"/>
			<point x="541" y="41" type="line"/>
			<point x="371" y="259" type="line"/>
			<point x="541" y="472" type="line"/>
			<point x="537" y="476" type="line"/>
			<point x="248" y="257" type="line"/>
		</contour>
		<contour>
			<point x="309" y="37" type="line"/>
			<point x="313" y="41" type="line"/>
			<point x="143" y="259" type="line"/>
			<point x="313" y="472" type="line"/>
			<point x="309" y="476" type="line"/>
			<point x="20" y="257" type="line"/>
		</contour>
	</outline>
</glyph>
<glyph name="degree" format="2">
	<advance width="351"/>
	<unicode hex="00B0"/>
	<outline>
		<contour>
			<point x="175" y="422" type="curve" smooth="yes"/>
			<point x="257" y="422"/>
			<point x="311" y="487"/>
			<point x="311" y="565" type="curve" smooth="yes"/>
			<point x="311" y="633"/>
			<point x="257" y="709"/>
			<point x="175" y="709" type="curve" smooth="yes"/>
			<point x="94" y="709"/>
			<point x="40" y="633"/>
			<point x="40" y="565" type="curve" smooth="yes"/>
			<point x="40" y="487"/>
			<point x="94" y="422"/>
		</contour>
		<contour>
			<point x="174" y="438" type="curve" smooth="yes"/>
			<point x="96" y="438"/>
			<point x="58" y="501"/>
			<point x="58" y="565" type="curve" smooth="yes"/>
			<point x="58" y="621"/>
			<point x="96" y="693"/>
			<point x="174" y="693" type="curve" smooth="yes"/>
			<point x="253" y="693"/>
			<point x="295" y="621"/>
			<point x="295" y="565" type="curve" smooth="yes"/>
			<point x="295" y="501"/>
			<point x="253" y="438"/>
		</contour>
	</outline>
</glyph>
<glyph name="acute" format="2">
	<advance width="281"/>
	<unicode hex="00B4"/>
	<anchor x="94" y="500" name="_top"/>
	<outline>
		<contour>
			<point x="50" y="542" type="line"/>
			<point x="296" y="751" type="line"/>
			<point x="152" y="751" type="line"/>
			<point x="46" y="544" type="line"/>
		</contour>
	</outline>
</glyph>
<glyph name="paragraph" format="2">
	<advance width="626"/>
	<unicode hex="00B6"/>
	<guideline x="395" y="48" angle="180"/>
	<outline>
		<contour>
			<point x="206" y="0" type="line"/>
			<point x="334" y="0" type="line"/>
			<point x="334" y="686" type="line"/>
			<point x="413" y="686" type="line"/>
			<point x="413" y="0" type="line"/>
			<point x="523" y="0" type="line"/>
			<point x="523" y="14" type="line"/>
			<point x="427" y="14" type="line"/>
			<point x="427" y="686" type="line"/>
			<point x="523" y="686" type="line"/>
			<point x="523" y="700" type="line"/>
			<point x="284" y="700" type="line" smooth="yes"/>
			<point x="158" y="700"/>
			<point x="36" y="636"/>
			<point x="36" y="519" type="curve" smooth="yes"/>
			<point x="36" y="398"/>
			<point x="146" y="328"/>
			<point x="284" y="328" type="curve" smooth="yes"/>
			<point x="320" y="328" type="line"/>
			<point x="320" y="14" type="line"/>
			<point x="206" y="14" type="line"/>
		</contour>
		<contour>
			<point x="284" y="342" type="line" smooth="yes"/>
			<point x="152" y="342"/>
			<point x="49" y="408"/>
			<point x="49" y="518" type="curve" smooth="yes"/>
			<point x="49" y="629"/>
			<point x="162" y="686"/>
			<point x="283" y="686" type="curve" smooth="yes"/>
			<point x="320" y="686" type="line"/>
			<point x="320" y="342" type="line"/>
		</contour>
	</outline>
</glyph>
<glyph name="cedilla" format="2">
	<advance width="225"/>
	<unicode hex="00B8"/>
	<anchor x="146" y="0" name="_bottom"/>
	<outline>
		<contour>
			<point x="70" y="-253" type="curve" smooth="yes"/>
			<point x="148" y="-253"/>
			<point x="194" y="-193"/>
			<point x="194" y="-150" type="curve" smooth="yes"/>
			<point x="194" y="-109"/>
			<point x="151" y="-70"/>
			<point x="88" y="-68" type="curve"/>
			<point x="240" y="22" type="line"/>
			<point x="104" y="15" type="line"/>
			<point x="37" y="-79" type="line"/>
			<point x="89" y="-98"/>
			<point x="116" y="-136"/>
			<point x="116" y="-173" type="curve" smooth="yes"/>
			<point x="116" y="-199"/>
			<point x="102" y="-234"/>
			<point x="68" y="-234" type="curve" smooth="yes"/>
			<point x="39" y="-234"/>
			<point x="24" y="-207"/>
			<point x="24" y="-182" type="curve" smooth="yes"/>
			<point x="24" y="-164"/>
			<point x="32" y="-145"/>
			<point x="51" y="-134" type="curve"/>
			<point x="49" y="-130" type="line"/>
			<point x="24" y="-138"/>
			<point x="-32" y="-151"/>
			<point x="-32" y="-189" type="curve" smooth="yes"/>
			<point x="-32" y="-223"/>
			<point x="15" y="-253"/>
		</contour>
	</outline>
</glyph>
<glyph name="guillemotright" format="2">
	<advance width="541"/>
	<unicode hex="00BB"/>
	<outline>
		<contour>
			<point x="232" y="37" type="line"/>
			<point x="521" y="257" type="line"/>
			<point x="232" y="476" type="line"/>
			<point x="228" y="472" type="line"/>
			<point x="398" y="259" type="line"/>
			<point x="228" y="41" type="line"/>
		</contour>
		<contour>
			<point x="4" y="37" type="line"/>
			<point x="293" y="257" type="line"/>
			<point x="4" y="476" type="line"/>
			<point x="0" y="472" type="line"/>
			<point x="170" y="259" type="line"/>
			<point x="0" y="41" type="line"/>
		</contour>
	</outline>
</glyph>
<glyph name="Agrave" format="2">
	<advance width="701"/>
	<unicode hex="00C0"/>
	<outline>
		<contour>
			<point x="-100" y="0" type="line"/>
			<point x="251" y="0" type="line"/>
			<point x="251" y="5" type="line"/>
			<point x="117" y="38" type="line"/>
			<point x="203" y="303" type="line"/>
			<point x="418" y="303" type="line"/>
			<point x="512" y="35" type="line"/>
			<point x="391" y="5" type="line"/>
			<point x="391" y="0" type="line"/>
			<point x="761" y="0" type="line"/>
			<point x="761" y="5" type="line"/>
			<point x="643" y="39" type="line"/>
			<point x="388" y="725" type="line"/>
			<point x="282" y="678" type="line"/>
			<point x="295" y="643" type="line"/>
			<point x="20" y="41" type="line"/>
			<point x="-100" y="4" type="line"/>
		</contour>
		<contour>
			<point x="214" y="336" type="line"/>
			<point x="308" y="610" type="line"/>
			<point x="406" y="336" type="line"/>
		</contour>
		<contour>
			<point x="412" y="742" type="line"/>
			<point x="416" y="744" type="line"/>
			<point x="310" y="951" type="line"/>
			<point x="166" y="951" type="line"/>
		</contour>
	</outline>
</glyph>
<glyph name="AE" format="2">
	<advance width="1045"/>
	<unicode hex="00C6"/>
	<outline>
		<contour>
			<point x="1025" y="-9" type="curve"/>
			<point x="965" y="242" type="line"/>
			<point x="959" y="241" type="line"/>
			<point x="958" y="127"/>
			<point x="925" y="59"/>
			<point x="815" y="52" type="curve" smooth="yes"/>
			<point x="641" y="41" type="line"/>
			<point x="543" y="310" type="line"/>
			<point x="722" y="297" type="line"/>
			<point x="778" y="184" type="line"/>
			<point x="783" y="184" type="line"/>
			<point x="719" y="465" type="line"/>
			<point x="714" y="465" type="line"/>
			<point x="712" y="357" type="line"/>
			<point x="532" y="340" type="line"/>
			<point x="408" y="670" type="line"/>
			<point x="609" y="656" type="line" smooth="yes"/>
			<point x="734" y="647"/>
			<point x="780" y="589"/>
			<point x="837" y="456" type="curve"/>
			<point x="842" y="458" type="line"/>
			<point x="808" y="709" type="line"/>
			<point x="763" y="703"/>
			<point x="717" y="700"/>
			<point x="672" y="700" type="curve" smooth="yes"/>
			<point x="155" y="700" type="line"/>
			<point x="155" y="695" type="line"/>
			<point x="288" y="662" type="line"/>
			<point x="295" y="643" type="line"/>
			<point x="20" y="41" type="line"/>
			<point x="-100" y="4" type="line"/>
			<point x="-100" y="0" type="line"/>
			<point x="251" y="0" type="line"/>
			<point x="251" y="5" type="line"/>
			<point x="117" y="38" type="line"/>
			<point x="203" y="303" type="line"/>
			<point x="418" y="303" type="line"/>
			<point x="512" y="36" type="line"/>
			<point x="391" y="5" type="line"/>
			<point x="391" y="0" type="line"/>
			<point x="907" y="0" type="line" smooth="yes"/>
			<point x="943" y="0"/>
			<point x="988" y="-3"/>
		</contour>
		<contour>
			<point x="214" y="336" type="line"/>
			<point x="308" y="609" type="line"/>
			<point x="403" y="336" type="line"/>
		</contour>
	</outline>
</glyph>
<glyph name="Oslash" format="2">
	<advance width="825"/>
	<unicode hex="00D8"/>
	<outline>
		<contour>
			<point x="150" y="-50" type="line"/>
			<point x="172" y="-50" type="line"/>
			<point x="674" y="750" type="line"/>
			<point x="652" y="750" type="line"/>
		</contour>
		<component base="O"/>
	</outline>
</glyph>
<glyph name="germandbls" format="2">
	<advance width="657"/>
	<unicode hex="00DF"/>
	<outline>
		<contour>
			<point x="457" y="-7" type="curve" smooth="yes"/>
			<point x="528" y="-7"/>
			<point x="637" y="39"/>
			<point x="637" y="146" type="curve" smooth="yes"/>
			<point x="637" y="191"/>
			<point x="616" y="237"/>
			<point x="565" y="267" type="curve" smooth="yes"/>
			<point x="456" y="332" type="line" smooth="yes"/>
			<point x="424" y="351"/>
			<point x="400" y="371"/>
			<point x="400" y="422" type="curve" smooth="yes"/>
			<point x="400" y="511"/>
			<point x="519" y="566"/>
			<point x="519" y="644" type="curve" smooth="yes"/>
			<point x="519" y="709"/>
			<point x="445" y="759"/>
			<point x="357" y="759" type="curve" smooth="yes"/>
			<point x="248" y="759"/>
			<point x="116" y="627"/>
			<point x="108" y="496" type="curve"/>
			<point x="18" y="437" type="line"/>
			<point x="18" y="433" type="line"/>
			<point x="96" y="433" type="line"/>
			<point x="96" y="32" type="line"/>
			<point x="96" y="32"/>
			<point x="2" y="6"/>
			<point x="0" y="4" type="curve"/>
			<point x="0" y="0" type="line"/>
			<point x="206" y="0" type="line"/>
			<point x="206" y="500" type="line" smooth="yes"/>
			<point x="206" y="630"/>
			<point x="247" y="718"/>
			<point x="332" y="718" type="curve" smooth="yes"/>
			<point x="393" y="718"/>
			<point x="435" y="674"/>
			<point x="435" y="605" type="curve" smooth="yes"/>
			<point x="435" y="496"/>
			<point x="320" y="431"/>
			<point x="320" y="349" type="curve" smooth="yes"/>
			<point x="320" y="307"/>
			<point x="338" y="271"/>
			<point x="388" y="242" type="curve" smooth="yes"/>
			<point x="497" y="179" type="line" smooth="yes"/>
			<point x="531" y="160"/>
			<point x="551" y="134"/>
			<point x="551" y="101" type="curve" smooth="yes"/>
			<point x="551" y="54"/>
			<point x="515" y="20"/>
			<point x="473" y="20" type="curve" smooth="yes"/>
			<point x="386" y="20"/>
			<point x="340" y="132"/>
			<point x="350" y="213" type="curve"/>
			<point x="345" y="215" type="line"/>
			<point x="274" y="61" type="line"/>
			<point x="312" y="26"/>
			<point x="391" y="-7"/>
		</contour>
	</outline>
</glyph>
<glyph name="ae" format="2">
	<advance width="685"/>
	<unicode hex="00E6"/>
	<guideline y="512"/>
	<guideline y="512"/>
	<guideline y="512"/>
	<guideline y="512"/>
	<outline>
		<contour>
			<point x="469" y="-7" type="curve" smooth="yes"/>
			<point x="558" y="-7"/>
			<point x="632" y="47"/>
			<point x="680" y="119" type="curve"/>
			<point x="674" y="124" type="line"/>
			<point x="630" y="79"/>
			<point x="577" y="57"/>
			<point x="525" y="57" type="curve" smooth="yes"/>
			<point x="437" y="57"/>
			<point x="383" y="171"/>
			<point x="383" y="294" type="curve" smooth="yes"/>
			<point x="383" y="299" type="line"/>
			<point x="656" y="334" type="line"/>
			<point x="656" y="432"/>
			<point x="610" y="511"/>
			<point x="496" y="511" type="curve" smooth="yes"/>
			<point x="443" y="511"/>
			<point x="391" y="479"/>
			<point x="354" y="435" type="curve"/>
			<point x="342" y="474"/>
			<point x="322" y="512"/>
			<point x="272" y="512" type="curve" smooth="yes"/>
			<point x="213" y="512"/>
			<point x="49" y="421"/>
			<point x="49" y="370" type="curve" smooth="yes"/>
			<point x="49" y="348"/>
			<point x="139" y="294"/>
			<point x="194" y="268" type="curve"/>
			<point x="198" y="273" type="line"/>
			<point x="174" y="306"/>
			<point x="149" y="359"/>
			<point x="149" y="393" type="curve" smooth="yes"/>
			<point x="149" y="434"/>
			<point x="172" y="469"/>
			<point x="216" y="469" type="curve" smooth="yes"/>
			<point x="268" y="469"/>
			<point x="274" y="416"/>
			<point x="274" y="359" type="curve" smooth="yes"/>
			<point x="274" y="246" type="line"/>
			<point x="61" y="183" type="line"/>
			<point x="61" y="183"/>
			<point x="40" y="148"/>
			<point x="40" y="102" type="curve" smooth="yes"/>
			<point x="40" y="37"/>
			<point x="100" y="-5"/>
			<point x="154" y="-5" type="curve" smooth="yes"/>
			<point x="222" y="-5"/>
			<point x="275" y="47"/>
			<point x="319" y="85" type="curve"/>
			<point x="361" y="28"/>
			<point x="419" y="-7"/>
		</contour>
		<contour>
			<point x="209" y="58" type="curve" smooth="yes"/>
			<point x="167" y="58"/>
			<point x="147" y="95"/>
			<point x="147" y="133" type="curve" smooth="yes"/>
			<point x="147" y="148"/>
			<point x="151" y="171"/>
			<point x="151" y="171" type="curve"/>
			<point x="274" y="228" type="line"/>
			<point x="274" y="81" type="line"/>
			<point x="248" y="66"/>
			<point x="233" y="58"/>
		</contour>
		<contour>
			<point x="384" y="317" type="line"/>
			<point x="384" y="408"/>
			<point x="428" y="470"/>
			<point x="477" y="470" type="curve" smooth="yes"/>
			<point x="519" y="470"/>
			<point x="557" y="431"/>
			<point x="556" y="385" type="curve"/>
		</contour>
	</outline>
</glyph>
<glyph name="idieresis" format="2">
	<advance width="332"/>
	<unicode hex="00EF"/>
	<outline>
		<contour>
			<point x="10" y="0" type="line"/>
			<point x="332" y="0" type="line"/>
			<point x="332" y="4" type="line"/>
			<point x="331" y="5"/>
			<point x="227" y="35"/>
			<point x="227" y="35" type="curve"/>
			<point x="227" y="508" type="line"/>
			<point x="220" y="509" type="line"/>
			<point x="161" y="479"/>
			<point x="74" y="452"/>
			<point x="10" y="435" type="curve"/>
			<point x="10" y="429" type="line"/>
			<point x="115" y="418" type="line"/>
			<point x="115" y="35" type="line"/>
			<point x="10" y="4" type="line"/>
		</contour>
		<component base="dieresis" xOffset="-65"/>
	</outline>
</glyph>
<glyph name="oslash" format="2">
	<advance width="554"/>
	<unicode hex="00F8"/>
	<outline>
		<contour>
			<point x="77" y="-52" type="line"/>
			<point x="99" y="-52" type="line"/>
			<point x="474" y="547" type="line"/>
			<point x="453" y="547" type="line"/>
		</contour>
		<component base="o"/>
	</outline>
</glyph>
<glyph name="dcaron" format="2">
	<advance width="729"/>
	<unicode hex="010F"/>
	<outline>
		<contour>
			<point x="615" y="504" type="line"/>
			<point x="775" y="571"/>
			<point x="829" y="694"/>
			<point x="829" y="694" type="curve"/>
			<point x="744" y="779" type="line"/>
			<point x="659" y="694" type="line"/>
			<point x="706" y="647" type="line"/>
			<point x="706" y="647"/>
			<point x="712" y="579"/>
			<point x="612" y="510" type="curve"/>
		</contour>
		<component base="d"/>
	</outline>
</glyph>
<glyph name="IJ" format="2">
	<advance width="734"/>
	<unicode hex="0132"/>
	<outline>
		<contour>
			<point x="359" y="-250" type="line"/>
			<point x="443" y="-191"/>
			<point x="625" y="-63"/>
			<point x="625" y="46" type="curve" smooth="yes"/>
			<point x="625" y="663" type="line"/>
			<point x="754" y="694" type="line"/>
			<point x="754" y="700" type="line"/>
			<point x="0" y="700" type="line"/>
			<point x="0" y="694" type="line"/>
			<point x="136" y="663" type="line"/>
			<point x="136" y="45" type="line"/>
			<point x="-10" y="5" type="line"/>
			<point x="-10" y="0" type="line"/>
			<point x="404" y="0" type="line"/>
			<point x="404" y="5" type="line"/>
			<point x="265" y="45" type="line"/>
			<point x="265" y="663" type="line"/>
			<point x="377" y="690" type="line"/>
			<point x="496" y="663" type="line"/>
			<point x="496" y="83" type="line" smooth="yes"/>
			<point x="496" y="-51"/>
			<point x="462" y="-112"/>
			<point x="354" y="-244" type="curve"/>
		</contour>
	</outline>
</glyph>
<glyph name="Lslash" format="2">
	<advance width="670"/>
	<unicode hex="0141"/>
	<outline>
		<contour>
			<point x="-12" y="240" type="line"/>
			<point x="10" y="240" type="line"/>
			<point x="422" y="490" type="line"/>
			<point x="400" y="490" type="line"/>
		</contour>
		<component base="L"/>
	</outline>
</glyph>
<glyph name="lslash" format="2">
	<advance width="309"/>
	<unicode hex="0142"/>
	<outline>
		<contour>
			<point x="-16" y="260" type="line"/>
			<point x="6" y="260" type="line"/>
			<point x="318" y="500" type="line"/>
			<point x="296" y="500" type="line"/>
		</contour>
		<component base="l"/>
	</outline>
</glyph>
<glyph name="OE" format="2">
	<advance width="1075"/>
	<unicode hex="0152"/>
	<outline>
		<contour>
			<point x="1002" y="-9" type="curve"/>
			<point x="1055" y="254" type="line"/>
			<point x="1050" y="256" type="line"/>
			<point x="979" y="105"/>
			<point x="941" y="62"/>
			<point x="769" y="49" type="curve" smooth="yes"/>
			<point x="443" y="25" type="line"/>
			<point x="443" y="-7" type="line"/>
			<point x="867" y="0" type="line" smooth="yes"/>
			<point x="930" y="1"/>
			<point x="966" y="-3"/>
		</contour>
		<contour>
			<point x="912" y="216" type="line"/>
			<point x="917" y="216" type="line"/>
			<point x="917" y="497" type="line"/>
			<point x="912" y="497" type="line"/>
			<point x="887" y="389" type="line"/>
			<point x="661" y="372" type="line"/>
			<point x="661" y="342" type="line"/>
			<point x="887" y="329" type="line"/>
		</contour>
		<contour>
			<point x="1013" y="456" type="curve"/>
			<point x="1018" y="458" type="line"/>
			<point x="984" y="709" type="line"/>
			<point x="939" y="703"/>
			<point x="893" y="701"/>
			<point x="848" y="701" type="curve" smooth="yes"/>
			<point x="440" y="703" type="line"/>
			<point x="441" y="671" type="line"/>
			<point x="738" y="661" type="line" smooth="yes"/>
			<point x="893" y="656"/>
			<point x="945" y="603"/>
		</contour>
		<component base="O"/>
	</outline>
</glyph>
<glyph name="oe" format="2">
	<advance width="926"/>
	<unicode hex="0153"/>
	<guideline y="512"/>
	<guideline y="512"/>
	<outline>
		<contour>
			<point x="678" y="-7" type="curve" smooth="yes"/>
			<point x="777" y="-7"/>
			<point x="841" y="47"/>
			<point x="889" y="119" type="curve"/>
			<point x="883" y="124" type="line"/>
			<point x="839" y="79"/>
			<point x="786" y="57"/>
			<point x="734" y="57" type="curve" smooth="yes"/>
			<point x="616" y="57"/>
			<point x="552" y="171"/>
			<point x="552" y="294" type="curve" smooth="yes"/>
			<point x="552" y="403"/>
			<point x="603" y="470"/>
			<point x="671" y="470" type="curve" smooth="yes"/>
			<point x="722" y="470"/>
			<point x="762" y="431"/>
			<point x="765" y="385" type="curve"/>
			<point x="479" y="311" type="line"/>
			<point x="479" y="291" type="line"/>
			<point x="865" y="331" type="line"/>
			<point x="865" y="429"/>
			<point x="819" y="511"/>
			<point x="705" y="511" type="curve" smooth="yes"/>
			<point x="558" y="511"/>
			<point x="444" y="375"/>
			<point x="444" y="229" type="curve" smooth="yes"/>
			<point x="444" y="92"/>
			<point x="543" y="-7"/>
		</contour>
		<component base="o" xOffset="20"/>
	</outline>
</glyph>
<glyph name="longs" format="2">
	<advance width="374"/>
	<unicode hex="017F"/>
	<outline>
		<contour>
			<point x="0" y="0" type="line"/>
			<point x="332" y="0" type="line"/>
			<point x="332" y="4" type="line"/>
			<point x="330" y="6"/>
			<point x="206" y="34"/>
			<point x="206" y="34" type="curve"/>
			<point x="206" y="500" type="line" smooth="yes"/>
			<point x="206" y="594"/>
			<point x="233" y="718"/>
			<point x="310" y="718" type="curve" smooth="yes"/>
			<point x="392" y="718"/>
			<point x="408" y="602"/>
			<point x="368" y="539" type="curve"/>
			<point x="372" y="536" type="line"/>
			<point x="427" y="582"/>
			<point x="479" y="651"/>
			<point x="479" y="685" type="curve" smooth="yes"/>
			<point x="479" y="719"/>
			<point x="403" y="759"/>
			<point x="344" y="759" type="curve" smooth="yes"/>
			<point x="238" y="759"/>
			<point x="116" y="627"/>
			<point x="108" y="496" type="curve"/>
			<point x="18" y="437" type="line"/>
			<point x="18" y="433" type="line"/>
			<point x="96" y="433" type="line"/>
			<point x="96" y="32" type="line"/>
			<point x="96" y="32"/>
			<point x="2" y="6"/>
			<point x="0" y="4" type="curve"/>
		</contour>
	</outline>
</glyph>
<glyph name="circumflex" format="2">
	<advance width="418"/>
	<unicode hex="02C6"/>
	<anchor x="222" y="500" name="_top"/>
	<outline>
		<contour>
			<point x="393" y="540" type="line"/>
			<point x="397" y="543" type="line"/>
			<point x="288" y="750" type="line"/>
			<point x="157" y="750" type="line"/>
			<point x="48" y="543" type="line"/>
			<point x="52" y="541" type="line"/>
			<point x="222" y="691" type="line"/>
		</contour>
	</outline>
</glyph>
<glyph name="ring" format="2">
	<advance width="296"/>
	<unicode hex="02DA"/>
	<anchor x="148" y="500" name="_top"/>
	<outline>
		<contour>
			<point x="148" y="588" type="curve" smooth="yes"/>
			<point x="193" y="588"/>
			<point x="227" y="623"/>
			<point x="227" y="669" type="curve" smooth="yes"/>
			<point x="227" y="715"/>
			<point x="193" y="750"/>
			<point x="148" y="750" type="curve" smooth="yes"/>
			<point x="103" y="750"/>
			<point x="69" y="715"/>
			<point x="69" y="669" type="curve" smooth="yes"/>
			<point x="69" y="623"/>
			<point x="103" y="588"/>
		</contour>
		<contour>
			<point x="148" y="602" type="curve" smooth="yes"/>
			<point x="116" y="602"/>
			<point x="86" y="631"/>
			<point x="86" y="669" type="curve" smooth="yes"/>
			<point x="86" y="708"/>
			<point x="116" y="736"/>
			<point x="148" y="736" type="curve" smooth="yes"/>
			<point x="181" y="736"/>
			<point x="210" y="708"/>
			<point x="210" y="669" type="curve" smooth="yes"/>
			<point x="210" y="631"/>
			<point x="181" y="602"/>
		</contour>
	</outline>
</glyph>
<glyph name="tilde" format="2">
	<advance width="420"/>
	<unicode hex="02DC"/>
	<anchor x="194" y="500" name="_top"/>
	<outline>
		<contour>
			<point x="15" y="596" type="curve"/>
			<point x="21" y="596" type="line"/>
			<point x="24" y="656"/>
			<point x="59" y="672"/>
			<point x="97" y="672" type="curve" smooth="yes"/>
			<point x="154" y="672"/>
			<point x="266" y="597"/>
			<point x="325" y="597" type="curve" smooth="yes"/>
			<point x="374" y="597"/>
			<point x="398" y="661"/>
			<point x="398" y="750" type="curve"/>
			<point x="392" y="750" type="line"/>
			<point x="389" y="705"/>
			<point x="370" y="680"/>
			<point x="329" y="680" type="curve" smooth="yes"/>
			<point x="270" y="680"/>
			<point x="171" y="751"/>
			<point x="109" y="751" type="curve" smooth="yes"/>
			<point x="43" y="751"/>
			<point x="15" y="660"/>
		</contour>
	</outline>
</glyph>
<glyph name="endash" format="2">
	<advance width="480"/>
	<unicode hex="2013"/>
	<outline>
		<contour>
			<point x="10" y="248" type="line"/>
			<point x="470" y="248" type="line"/>
			<point x="470" y="262" type="line"/>
			<point x="10" y="262" type="line"/>
		</contour>
	</outline>
</glyph>
<glyph name="emdash" format="2">
	<advance width="680"/>
	<unicode hex="2014"/>
	<outline>
		<contour>
			<point x="10" y="248" type="line"/>
			<point x="670" y="248" type="line"/>
			<point x="670" y="262" type="line"/>
			<point x="10" y="262" type="line"/>
		</contour>
	</outline>
</glyph>
<glyph name="quoteleft" format="2">
	<advance width="217"/>
	<unicode hex="2018"/>
	<outline>
		<contour>
			<point x="85" y="504" type="line"/>
			<point x="170" y="589" type="line"/>
			<point x="123" y="636" type="line"/>
			<point x="123" y="636"/>
			<point x="117" y="704"/>
			<point x="217" y="773" type="curve"/>
			<point x="214" y="779" type="line"/>
			<point x="54" y="712"/>
			<point x="0" y="589"/>
			<point x="0" y="589" type="curve"/>
		</contour>
	</outline>
</glyph>
<glyph name="quoteright" format="2">
	<advance width="217"/>
	<unicode hex="2019"/>
	<outline>
		<contour>
			<point x="3" y="504" type="line"/>
			<point x="163" y="571"/>
			<point x="217" y="694"/>
			<point x="217" y="694" type="curve"/>
			<point x="132" y="779" type="line"/>
			<point x="47" y="694" type="line"/>
			<point x="94" y="647" type="line"/>
			<point x="94" y="647"/>
			<point x="100" y="579"/>
			<point x="0" y="510" type="curve"/>
		</contour>
	</outline>
</glyph>
<glyph name="quotedblleft" format="2">
	<advance width="432"/>
	<unicode hex="201C"/>
	<outline>
		<contour>
			<point x="300" y="504" type="line"/>
			<point x="385" y="589" type="line"/>
			<point x="338" y="636" type="line"/>
			<point x="338" y="636"/>
			<point x="332" y="704"/>
			<point x="432" y="773" type="curve"/>
			<point x="429" y="779" type="line"/>
			<point x="269" y="712"/>
			<point x="215" y="589"/>
			<point x="215" y="589" type="curve"/>
		</contour>
		<contour>
			<point x="85" y="504" type="line"/>
			<point x="170" y="589" type="line"/>
			<point x="123" y="636" type="line"/>
			<point x="123" y="636"/>
			<point x="117" y="704"/>
			<point x="217" y="773" type="curve"/>
			<point x="214" y="779" type="line"/>
			<point x="54" y="712"/>
			<point x="0" y="589"/>
			<point x="0" y="589" type="curve"/>
		</contour>
	</outline>
</glyph>
<glyph name="quotedblright" format="2">
	<advance width="432"/>
	<unicode hex="201D"/>
	<outline>
		<contour>
			<point x="218" y="504" type="line"/>
			<point x="378" y="571"/>
			<point x="432" y="694"/>
			<point x="432" y="694" type="curve"/>
			<point x="347" y="779" type="line"/>
			<point x="262" y="694" type="line"/>
			<point x="309" y="647" type="line"/>
			<point x="309" y="647"/>
			<point x="315" y="579"/>
			<point x="215" y="510" type="curve"/>
		</contour>
		<contour>
			<point x="3" y="504" type="line"/>
			<point x="163" y="571"/>
			<point x="217" y="694"/>
			<point x="217" y="694" type="curve"/>
			<point x="132" y="779" type="line"/>
			<point x="47" y="694" type="line"/>
			<point x="94" y="647" type="line"/>
			<point x="94" y="647"/>
			<point x="100" y="579"/>
			<point x="0" y="510" type="curve"/>
		</contour>
	</outline>
</glyph>
<glyph name="quotedblbase" format="2">
	<advance width="432"/>
	<unicode hex="201E"/>
	<outline>
		<contour>
			<point x="218" y="-124" type="line"/>
			<point x="378" y="-57"/>
			<point x="432" y="66"/>
			<point x="432" y="66" type="curve"/>
			<point x="347" y="151" type="line"/>
			<point x="262" y="66" type="line"/>
			<point x="309" y="19" type="line"/>
			<point x="309" y="19"/>
			<point x="315" y="-49"/>
			<point x="215" y="-118" type="curve"/>
		</contour>
		<contour>
			<point x="3" y="-124" type="line"/>
			<point x="163" y="-57"/>
			<point x="217" y="66"/>
			<point x="217" y="66" type="curve"/>
			<point x="132" y="151" type="line"/>
			<point x="47" y="66" type="line"/>
			<point x="94" y="19" type="line"/>
			<point x="94" y="19"/>
			<point x="100" y="-49"/>
			<point x="0" y="-118" type="curve"/>
		</contour>
	</outline>
</glyph>
<glyph name="dagger" format="2">
	<advance width="516"/>
	<unicode hex="2020"/>
	<outline>
		<contour>
			<point x="258" y="-250" type="curve"/>
			<point x="266" y="-67"/>
			<point x="273" y="177"/>
			<point x="345" y="300" type="curve"/>
			<point x="294" y="337"/>
			<point x="267" y="426"/>
			<point x="258" y="502" type="curve"/>
			<point x="249" y="426"/>
			<point x="221" y="337"/>
			<point x="171" y="300" type="curve"/>
			<point x="246" y="177"/>
			<point x="253" y="-67"/>
		</contour>
		<contour>
			<point x="99" y="454" type="line"/>
			<point x="258" y="502" type="line"/>
			<point x="99" y="553" type="line"/>
			<point x="36" y="503" type="line"/>
		</contour>
		<contour>
			<point x="417" y="454" type="line"/>
			<point x="480" y="503" type="line"/>
			<point x="417" y="553" type="line"/>
			<point x="258" y="502" type="line"/>
		</contour>
		<contour>
			<point x="258" y="502" type="line"/>
			<point x="312" y="686" type="line"/>
			<point x="257" y="759" type="line"/>
			<point x="200" y="686" type="line"/>
		</contour>
	</outline>
</glyph>
<glyph name="bullet" format="2">
	<advance width="351"/>
	<unicode hex="2022"/>
	<outline>
		<contour>
			<point x="175" y="150" type="line"/>
			<point x="301" y="273" type="line"/>
			<point x="175" y="399" type="line"/>
			<point x="50" y="273" type="line"/>
		</contour>
	</outline>
</glyph>
<glyph name="perthousand" format="2">
	<advance width="1007"/>
	<unicode hex="2030"/>
	<outline>
		<contour>
			<point x="831" y="-10" type="curve" smooth="yes"/>
			<point x="913" y="-10"/>
			<point x="967" y="55"/>
			<point x="967" y="133" type="curve" smooth="yes"/>
			<point x="967" y="201"/>
			<point x="913" y="277"/>
			<point x="831" y="277" type="curve" smooth="yes"/>
			<point x="750" y="277"/>
			<point x="696" y="201"/>
			<point x="696" y="133" type="curve" smooth="yes"/>
			<point x="696" y="55"/>
			<point x="750" y="-10"/>
		</contour>
		<contour>
			<point x="830" y="6" type="curve" smooth="yes"/>
			<point x="752" y="6"/>
			<point x="714" y="69"/>
			<point x="714" y="133" type="curve" smooth="yes"/>
			<point x="714" y="189"/>
			<point x="752" y="261"/>
			<point x="830" y="261" type="curve" smooth="yes"/>
			<point x="909" y="261"/>
			<point x="951" y="189"/>
			<point x="951" y="133" type="curve" smooth="yes"/>
			<point x="951" y="69"/>
			<point x="909" y="6"/>
		</contour>
		<component base="percent"/>
	</outline>
</glyph>
<glyph name="guilsinglleft" format="2">
	<advance width="363"/>
	<unicode hex="2039"/>
	<outline>
		<contour>
			<point x="324" y="37" type="line"/>
			<point x="328" y="41" type="line"/>
			<point x="158" y="259" type="line"/>
			<point x="328" y="472" type="line"/>
			<point x="324" y="476" type="line"/>
			<point x="35" y="257" type="line"/>
		</contour>
	</outline>
</glyph>
<glyph name="guilsinglright" format="2">
	<advance width="363"/>
	<unicode hex="203A"/>
	<outline>
		<contour>
			<point x="39" y="37" type="line"/>
			<point x="328" y="257" type="line"/>
			<point x="39" y="476" type="line"/>
			<point x="35" y="472" type="line"/>
			<point x="205" y="259" type="line"/>
			<point x="35" y="41" type="line"/>
		</contour>
	</outline>
</glyph>
<glyph name="fraction" format="2">
	<advance width="519"/>
	<unicode hex="2044"/>
	<outline>
		<contour>
			<point x="15" y="0" type="line"/>
			<point x="32" y="0" type="line"/>
			<point x="504" y="717" type="line"/>
			<point x="487" y="717" type="line"/>
		</contour>
	</outline>
</glyph>
<glyph name="Euro" format="2">
	<advance width="695"/>
	<unicode hex="20AC"/>
	<outline>
		<contour>
			<point x="424" y="-10" type="curve" smooth="yes"/>
			<point x="509" y="-10"/>
			<point x="573" y="24"/>
			<point x="643" y="63" type="curve"/>
			<point x="665" y="308" type="line"/>
			<point x="658" y="310" type="line"/>
			<point x="603" y="162"/>
			<point x="577" y="24"/>
			<point x="465" y="24" type="curve" smooth="yes"/>
			<point x="323" y="24"/>
			<point x="247" y="211"/>
			<point x="247" y="378" type="curve" smooth="yes"/>
			<point x="247" y="527"/>
			<point x="299" y="674"/>
			<point x="408" y="674" type="curve" smooth="yes"/>
			<point x="522" y="674"/>
			<point x="546" y="605"/>
			<point x="641" y="445" type="curve"/>
			<point x="647" y="447" type="line"/>
			<point x="609" y="658" type="line"/>
			<point x="560" y="686"/>
			<point x="503" y="707"/>
			<point x="441" y="707" type="curve" smooth="yes"/>
			<point x="259" y="707"/>
			<point x="96" y="545"/>
			<point x="96" y="328" type="curve" smooth="yes"/>
			<point x="96" y="121"/>
			<point x="260" y="-10"/>
		</contour>
		<contour>
			<point x="10" y="297" type="line"/>
			<point x="484" y="297" type="line"/>
			<point x="496" y="311" type="line"/>
			<point x="22" y="311" type="line"/>
		</contour>
		<contour>
			<point x="28" y="394" type="line"/>
			<point x="522" y="394" type="line"/>
			<point x="534" y="408" type="line"/>
			<point x="40" y="408" type="line"/>
		</contour>
	</outline>
</glyph>
<glyph name="minus" format="2">
	<advance width="512"/>
	<unicode hex="2212"/>
	<outline>
		<contour>
			<point x="70" y="332" type="line"/>
			<point x="442" y="332" type="line"/>
			<point x="442" y="346" type="line"/>
			<point x="70" y="346" type="line"/>
		</contour>
	</outline>
</glyph>
<glyph name="f_f" format="2">
	<advance width="701"/>
	<unicode hex="FB00"/>
	<outline>
		<contour>
			<point x="0" y="0" type="line"/>
			<point x="332" y="0" type="line"/>
			<point x="332" y="4" type="line"/>
			<point x="330" y="6"/>
			<point x="206" y="34"/>
			<point x="206" y="34" type="curve"/>
			<point x="206" y="433" type="line"/>
			<point x="529" y="433" type="line"/>
			<point x="559" y="500" type="line"/>
			<point x="206" y="500" type="line"/>
			<point x="206" y="594"/>
			<point x="252" y="677"/>
			<point x="322" y="677" type="curve" smooth="yes"/>
			<point x="394" y="677"/>
			<point x="454" y="610"/>
			<point x="454" y="538" type="curve"/>
			<point x="506" y="638" type="line"/>
			<point x="506" y="674"/>
			<point x="421" y="719"/>
			<point x="368" y="719" type="curve" smooth="yes"/>
			<point x="256" y="719"/>
			<point x="116" y="627"/>
			<point x="108" y="496" type="curve"/>
			<point x="18" y="437" type="line"/>
			<point x="18" y="433" type="line"/>
			<point x="96" y="433" type="line"/>
			<point x="96" y="32" type="line"/>
			<point x="96" y="32"/>
			<point x="2" y="6"/>
			<point x="0" y="4" type="curve"/>
		</contour>
		<contour>
			<point x="327" y="0" type="line"/>
			<point x="659" y="0" type="line"/>
			<point x="659" y="4" type="line"/>
			<point x="657" y="6"/>
			<point x="533" y="34"/>
			<point x="533" y="34" type="curve"/>
			<point x="533" y="433" type="line"/>
			<point x="656" y="433" type="line"/>
			<point x="686" y="500" type="line"/>
			<point x="533" y="500" type="line"/>
			<point x="533" y="594"/>
			<point x="560" y="718"/>
			<point x="637" y="718" type="curve" smooth="yes"/>
			<point x="719" y="718"/>
			<point x="735" y="602"/>
			<point x="695" y="539" type="curve"/>
			<point x="699" y="536" type="line"/>
			<point x="754" y="582"/>
			<point x="806" y="651"/>
			<point x="806" y="685" type="curve" smooth="yes"/>
			<point x="806" y="719"/>
			<point x="730" y="759"/>
			<point x="671" y="759" type="curve" smooth="yes"/>
			<point x="565" y="759"/>
			<point x="443" y="627"/>
			<point x="435" y="496" type="curve"/>
			<point x="345" y="437" type="line"/>
			<point x="345" y="433" type="line"/>
			<point x="423" y="433" type="line"/>
			<point x="423" y="32" type="line"/>
			<point x="423" y="32"/>
			<point x="329" y="6"/>
			<point x="327" y="4" type="curve"/>
		</contour>
	</outline>
</glyph>
<glyph name="f_f_i" format="2">
	<advance width="963"/>
	<unicode hex="FB03"/>
	<outline>
		<contour>
			<point x="0" y="0" type="line"/>
			<point x="963" y="0" type="line"/>
			<point x="963" y="4" type="line"/>
			<point x="858" y="35" type="line"/>
			<point x="858" y="508" type="line"/>
			<point x="851" y="509" type="line"/>
			<point x="827" y="501"/>
			<point x="817" y="500"/>
			<point x="784" y="500" type="curve" smooth="yes"/>
			<point x="533" y="500" type="line"/>
			<point x="533" y="556"/>
			<point x="537" y="716"/>
			<point x="618" y="716" type="curve" smooth="yes"/>
			<point x="658" y="716"/>
			<point x="691" y="674"/>
			<point x="738" y="628" type="curve" smooth="yes"/>
			<point x="802" y="565" type="line"/>
			<point x="888" y="649" type="line"/>
			<point x="824" y="709" type="line" smooth="yes"/>
			<point x="789" y="742"/>
			<point x="729" y="759"/>
			<point x="663" y="759" type="curve" smooth="yes"/>
			<point x="595" y="759"/>
			<point x="535" y="713"/>
			<point x="497" y="660" type="curve"/>
			<point x="471" y="692"/>
			<point x="409" y="719"/>
			<point x="368" y="719" type="curve" smooth="yes"/>
			<point x="248" y="719"/>
			<point x="116" y="621"/>
			<point x="108" y="496" type="curve"/>
			<point x="18" y="437" type="line"/>
			<point x="18" y="433" type="line"/>
			<point x="96" y="433" type="line"/>
			<point x="96" y="32" type="line"/>
			<point x="0" y="4" type="line"/>
		</contour>
		<contour>
			<point x="329" y="5" type="line"/>
			<point x="206" y="34" type="line"/>
			<point x="206" y="433" type="line"/>
			<point x="423" y="433" type="line"/>
			<point x="423" y="32" type="line"/>
		</contour>
		<contour>
			<point x="650" y="7" type="line"/>
			<point x="533" y="34" type="line"/>
			<point x="533" y="433" type="line"/>
			<point x="695" y="433" type="line" smooth="yes"/>
			<point x="735" y="433"/>
			<point x="746" y="411"/>
			<point x="746" y="388" type="curve" smooth="yes"/>
			<point x="746" y="35" type="line"/>
		</contour>
		<contour>
			<point x="206" y="500" type="line"/>
			<point x="206" y="569"/>
			<point x="237" y="677"/>
			<point x="322" y="677" type="curve" smooth="yes"/>
			<point x="383" y="677"/>
			<point x="435" y="629"/>
			<point x="450" y="571" type="curve"/>
			<point x="442" y="548"/>
			<point x="437" y="524"/>
			<point x="435" y="500" type="curve"/>
		</contour>
	</outline>
</glyph>
<glyph name="VTF" format="2">
	<advance width="1524"/>
	<outline>
		<contour>
			<point x="759" y="-250" type="line"/>
			<point x="765" y="-250" type="line"/>
			<point x="1167" y="400" type="line"/>
			<point x="1369" y="391"/>
			<point x="1435" y="389"/>
			<point x="1529" y="186" type="curve"/>
			<point x="1534" y="188" type="line"/>
			<point x="1500" y="439" type="line"/>
			<point x="1455" y="433"/>
			<point x="1409" y="430"/>
			<point x="1364" y="430" type="curve" smooth="yes"/>
			<point x="897" y="430" type="line"/>
			<point x="897" y="425" type="line"/>
			<point x="1028" y="393" type="line"/>
			<point x="763" y="-156" type="line"/>
			<point x="496" y="393" type="line"/>
			<point x="627" y="425" type="line"/>
			<point x="627" y="430" type="line"/>
			<point x="160" y="430" type="line" smooth="yes"/>
			<point x="115" y="430"/>
			<point x="69" y="433"/>
			<point x="24" y="439" type="curve"/>
			<point x="-10" y="188" type="line"/>
			<point x="-5" y="186" type="line"/>
			<point x="89" y="389"/>
			<point x="155" y="391"/>
			<point x="357" y="400" type="curve"/>
		</contour>
		<contour>
			<point x="261" y="-46" type="line"/>
			<point x="266" y="-46" type="line"/>
			<point x="291" y="67" type="line"/>
			<point x="736" y="93" type="line"/>
			<point x="736" y="98" type="line"/>
			<point x="291" y="127" type="line"/>
			<point x="266" y="235" type="line"/>
			<point x="261" y="235" type="line"/>
		</contour>
		<contour>
			<point x="1258" y="-46" type="line"/>
			<point x="1263" y="-46" type="line"/>
			<point x="1263" y="235" type="line"/>
			<point x="1258" y="235" type="line"/>
			<point x="1233" y="127" type="line"/>
			<point x="788" y="98" type="line"/>
			<point x="788" y="93" type="line"/>
			<point x="1233" y="67" type="line"/>
		</contour>
		<contour>
			<point x="760" y="109" type="line"/>
			<point x="765" y="109" type="line"/>
			<point x="824" y="707" type="line"/>
			<point x="942" y="670" type="line" smooth="yes"/>
			<point x="1023" y="645"/>
			<point x="1081" y="568"/>
			<point x="1102" y="486" type="curve"/>
			<point x="1111" y="488" type="line"/>
			<point x="1084" y="738" type="line"/>
			<point x="1049" y="734"/>
			<point x="1013" y="730"/>
			<point x="978" y="730" type="curve" smooth="yes"/>
			<point x="558" y="730" type="line" smooth="yes"/>
			<point x="518" y="730"/>
			<point x="479" y="734"/>
			<point x="439" y="738" type="curve"/>
			<point x="412" y="488" type="line"/>
			<point x="421" y="485" type="line"/>
			<point x="442" y="568"/>
			<point x="500" y="643"/>
			<point x="581" y="670" type="curve" smooth="yes"/>
			<point x="694" y="707" type="line"/>
		</contour>
	</outline>
</glyph>
<glyph name=".notdef" format="2">
	<advance width="779"/>
	<outline>
		<contour>
			<point x="220" y="0" type="line"/>
			<point x="769" y="0" type="line"/>
			<point x="769" y="81" type="line"/>
			<point x="220" y="81" type="line"/>
		</contour>
		<contour>
			<point x="10" y="0" type="line"/>
			<point x="21" y="0" type="line"/>
			<point x="21" y="11" type="line"/>
			<point x="10" y="11" type="line"/>
		</contour>
		<contour>
			<point x="44" y="0" type="line"/>
			<point x="51" y="0" type="line"/>
			<point x="51" y="36" type="line"/>
			<point x="85" y="36" type="line"/>
			<point x="85" y="45" type="line"/>
			<point x="51" y="45" type="line"/>
			<point x="51" y="75" type="line"/>
			<point x="101" y="75" type="line"/>
			<point x="101" y="81" type="line"/>
			<point x="44" y="81" type="line"/>
		</contour>
		<contour>
			<point x="121" y="0" type="line"/>
			<point x="129" y="0" type="line"/>
			<point x="129" y="34" type="line"/>
			<point x="184" y="34" type="line"/>
			<point x="184" y="0" type="line"/>
			<point x="191" y="0" type="line"/>
			<point x="191" y="41" type="line"/>
			<point x="166" y="41" type="line"/>
			<point x="166" y="81" type="line"/>
			<point x="121" y="81" type="line"/>
		</contour>
		<contour>
			<point x="129" y="41" type="line"/>
			<point x="129" y="75" type="line"/>
			<point x="159" y="75" type="line"/>
			<point x="159" y="41" type="line"/>
		</contour>
		<contour>
			<point x="51" y="124" type="line"/>
			<point x="59" y="124" type="line"/>
			<point x="59" y="149" type="line"/>
			<point x="71" y="149" type="line"/>
			<point x="71" y="174" type="line"/>
			<point x="85" y="174" type="line"/>
			<point x="85" y="199" type="line"/>
			<point x="96" y="199" type="line"/>
			<point x="96" y="205" type="line"/>
			<point x="75" y="205" type="line"/>
			<point x="75" y="181" type="line"/>
			<point x="64" y="181" type="line"/>
			<point x="64" y="156" type="line"/>
			<point x="46" y="156" type="line"/>
			<point x="46" y="181" type="line"/>
			<point x="35" y="181" type="line"/>
			<point x="35" y="205" type="line"/>
			<point x="15" y="205" type="line"/>
			<point x="15" y="199" type="line"/>
			<point x="26" y="199" type="line"/>
			<point x="26" y="174" type="line"/>
			<point x="39" y="174" type="line"/>
			<point x="39" y="149" type="line"/>
			<point x="51" y="149" type="line"/>
		</contour>
		<contour>
			<point x="114" y="124" type="line"/>
			<point x="171" y="124" type="line"/>
			<point x="171" y="131" type="line"/>
			<point x="121" y="131" type="line"/>
			<point x="121" y="161" type="line"/>
			<point x="155" y="161" type="line"/>
			<point x="155" y="169" type="line"/>
			<point x="121" y="169" type="line"/>
			<point x="121" y="199" type="line"/>
			<point x="171" y="199" type="line"/>
			<point x="171" y="205" type="line"/>
			<point x="114" y="205" type="line"/>
		</contour>
		<contour>
			<point x="19" y="246" type="line"/>
			<point x="71" y="246" type="line"/>
			<point x="71" y="255" type="line"/>
			<point x="26" y="255" type="line"/>
			<point x="26" y="321" type="line"/>
			<point x="71" y="321" type="line"/>
			<point x="71" y="329" type="line"/>
			<point x="19" y="329" type="line"/>
		</contour>
		<contour>
			<point x="195" y="124" type="line"/>
			<point x="254" y="124" type="line"/>
			<point x="254" y="131" type="line"/>
			<point x="204" y="131" type="line"/>
			<point x="204" y="205" type="line"/>
			<point x="195" y="205" type="line"/>
		</contour>
		<contour>
			<point x="91" y="246" type="line"/>
			<point x="155" y="246" type="line"/>
			<point x="155" y="329" type="line"/>
			<point x="91" y="329" type="line"/>
		</contour>
		<contour>
			<point x="101" y="255" type="line"/>
			<point x="101" y="321" type="line"/>
			<point x="145" y="321" type="line"/>
			<point x="145" y="255" type="line"/>
		</contour>
		<contour>
			<point x="279" y="124" type="line"/>
			<point x="285" y="124" type="line"/>
			<point x="285" y="149" type="line"/>
			<point x="299" y="149" type="line"/>
			<point x="299" y="174" type="line"/>
			<point x="311" y="174" type="line"/>
			<point x="311" y="199" type="line"/>
			<point x="324" y="199" type="line"/>
			<point x="324" y="205" type="line"/>
			<point x="301" y="205" type="line"/>
			<point x="301" y="181" type="line"/>
			<point x="290" y="181" type="line"/>
			<point x="290" y="156" type="line"/>
			<point x="274" y="156" type="line"/>
			<point x="274" y="181" type="line"/>
			<point x="261" y="181" type="line"/>
			<point x="261" y="205" type="line"/>
			<point x="241" y="205" type="line"/>
			<point x="241" y="199" type="line"/>
			<point x="254" y="199" type="line"/>
			<point x="254" y="174" type="line"/>
			<point x="265" y="174" type="line"/>
			<point x="265" y="149" type="line"/>
			<point x="279" y="149" type="line"/>
		</contour>
		<contour>
			<point x="19" y="371" type="line"/>
			<point x="26" y="371" type="line"/>
			<point x="26" y="409" type="line"/>
			<point x="59" y="409" type="line"/>
			<point x="59" y="415" type="line"/>
			<point x="26" y="415" type="line"/>
			<point x="26" y="445" type="line"/>
			<point x="75" y="445" type="line"/>
			<point x="75" y="454" type="line"/>
			<point x="19" y="454" type="line"/>
		</contour>
		<contour>
			<point x="179" y="246" type="line"/>
			<point x="186" y="246" type="line"/>
			<point x="186" y="321" type="line"/>
			<point x="195" y="321" type="line"/>
			<point x="195" y="296" type="line"/>
			<point x="209" y="296" type="line"/>
			<point x="209" y="271" type="line"/>
			<point x="220" y="271" type="line"/>
			<point x="220" y="246" type="line"/>
			<point x="245" y="246" type="line"/>
			<point x="245" y="329" type="line"/>
			<point x="236" y="329" type="line"/>
			<point x="236" y="255" type="line"/>
			<point x="229" y="255" type="line"/>
			<point x="229" y="280" type="line"/>
			<point x="215" y="280" type="line"/>
			<point x="215" y="305" type="line"/>
			<point x="204" y="305" type="line"/>
			<point x="204" y="329" type="line"/>
			<point x="179" y="329" type="line"/>
		</contour>
		<contour>
			<point x="339" y="124" type="line"/>
			<point x="396" y="124" type="line"/>
			<point x="396" y="131" type="line"/>
			<point x="349" y="131" type="line"/>
			<point x="349" y="161" type="line"/>
			<point x="381" y="161" type="line"/>
			<point x="381" y="169" type="line"/>
			<point x="349" y="169" type="line"/>
			<point x="349" y="199" type="line"/>
			<point x="396" y="199" type="line"/>
			<point x="396" y="205" type="line"/>
			<point x="339" y="205" type="line"/>
		</contour>
		<contour>
			<point x="91" y="371" type="line"/>
			<point x="155" y="371" type="line"/>
			<point x="155" y="454" type="line"/>
			<point x="91" y="454" type="line"/>
		</contour>
		<contour>
			<point x="101" y="379" type="line"/>
			<point x="101" y="445" type="line"/>
			<point x="145" y="445" type="line"/>
			<point x="145" y="379" type="line"/>
		</contour>
		<contour>
			<point x="285" y="246" type="line"/>
			<point x="295" y="246" type="line"/>
			<point x="295" y="321" type="line"/>
			<point x="324" y="321" type="line"/>
			<point x="324" y="329" type="line"/>
			<point x="256" y="329" type="line"/>
			<point x="256" y="321" type="line"/>
			<point x="285" y="321" type="line"/>
		</contour>
		<contour>
			<point x="19" y="495" type="line"/>
			<point x="91" y="495" type="line"/>
			<point x="91" y="576" type="line"/>
			<point x="85" y="576" type="line"/>
			<point x="85" y="501" type="line"/>
			<point x="59" y="501" type="line"/>
			<point x="59" y="549" type="line"/>
			<point x="51" y="549" type="line"/>
			<point x="51" y="501" type="line"/>
			<point x="26" y="501" type="line"/>
			<point x="26" y="576" type="line"/>
			<point x="19" y="576" type="line"/>
		</contour>
		<contour>
			<point x="441" y="124" type="line"/>
			<point x="451" y="124" type="line"/>
			<point x="451" y="199" type="line"/>
			<point x="479" y="199" type="line"/>
			<point x="479" y="205" type="line"/>
			<point x="414" y="205" type="line"/>
			<point x="414" y="199" type="line"/>
			<point x="441" y="199" type="line"/>
		</contour>
		<contour>
			<point x="179" y="371" type="line"/>
			<point x="186" y="371" type="line"/>
			<point x="186" y="404" type="line"/>
			<point x="241" y="404" type="line"/>
			<point x="241" y="371" type="line"/>
			<point x="249" y="371" type="line"/>
			<point x="249" y="411" type="line"/>
			<point x="225" y="411" type="line"/>
			<point x="225" y="454" type="line"/>
			<point x="179" y="454" type="line"/>
		</contour>
		<contour>
			<point x="186" y="411" type="line"/>
			<point x="186" y="445" type="line"/>
			<point x="215" y="445" type="line"/>
			<point x="215" y="411" type="line"/>
		</contour>
		<contour>
			<point x="324" y="246" type="line"/>
			<point x="331" y="246" type="line"/>
			<point x="331" y="271" type="line"/>
			<point x="394" y="271" type="line"/>
			<point x="394" y="246" type="line"/>
			<point x="401" y="246" type="line"/>
			<point x="401" y="280" type="line"/>
			<point x="389" y="280" type="line"/>
			<point x="389" y="305" type="line"/>
			<point x="376" y="305" type="line"/>
			<point x="376" y="329" type="line"/>
			<point x="349" y="329" type="line"/>
			<point x="349" y="305" type="line"/>
			<point x="335" y="305" type="line"/>
			<point x="335" y="280" type="line"/>
			<point x="324" y="280" type="line"/>
		</contour>
		<contour>
			<point x="344" y="280" type="line"/>
			<point x="344" y="296" type="line"/>
			<point x="355" y="296" type="line"/>
			<point x="355" y="321" type="line"/>
			<point x="369" y="321" type="line"/>
			<point x="369" y="296" type="line"/>
			<point x="381" y="296" type="line"/>
			<point x="381" y="280" type="line"/>
		</contour>
		<contour>
			<point x="19" y="619" type="line"/>
			<point x="26" y="619" type="line"/>
			<point x="26" y="700" type="line"/>
			<point x="19" y="700" type="line"/>
		</contour>
		<contour>
			<point x="114" y="495" type="line"/>
			<point x="121" y="495" type="line"/>
			<point x="121" y="519" type="line"/>
			<point x="184" y="519" type="line"/>
			<point x="184" y="495" type="line"/>
			<point x="191" y="495" type="line"/>
			<point x="191" y="526" type="line"/>
			<point x="179" y="526" type="line"/>
			<point x="179" y="551" type="line"/>
			<point x="166" y="551" type="line"/>
			<point x="166" y="576" type="line"/>
			<point x="139" y="576" type="line"/>
			<point x="139" y="551" type="line"/>
			<point x="125" y="551" type="line"/>
			<point x="125" y="526" type="line"/>
			<point x="114" y="526" type="line"/>
		</contour>
		<contour>
			<point x="525" y="124" type="line"/>
			<point x="534" y="124" type="line"/>
			<point x="534" y="161" type="line"/>
			<point x="561" y="161" type="line"/>
			<point x="561" y="205" type="line"/>
			<point x="554" y="205" type="line"/>
			<point x="554" y="169" type="line"/>
			<point x="505" y="169" type="line"/>
			<point x="505" y="205" type="line"/>
			<point x="495" y="205" type="line"/>
			<point x="495" y="161" type="line"/>
			<point x="525" y="161" type="line"/>
		</contour>
		<contour>
			<point x="134" y="526" type="line"/>
			<point x="134" y="544" type="line"/>
			<point x="145" y="544" type="line"/>
			<point x="145" y="569" type="line"/>
			<point x="159" y="569" type="line"/>
			<point x="159" y="544" type="line"/>
			<point x="171" y="544" type="line"/>
			<point x="171" y="526" type="line"/>
		</contour>
		<contour>
			<point x="269" y="371" type="line"/>
			<point x="279" y="371" type="line"/>
			<point x="279" y="409" type="line"/>
			<point x="290" y="409" type="line"/>
			<point x="290" y="395" type="line"/>
			<point x="311" y="395" type="line"/>
			<point x="311" y="371" type="line"/>
			<point x="331" y="371" type="line"/>
			<point x="331" y="379" type="line"/>
			<point x="319" y="379" type="line"/>
			<point x="319" y="404" type="line"/>
			<point x="299" y="404" type="line"/>
			<point x="299" y="420" type="line"/>
			<point x="319" y="420" type="line"/>
			<point x="319" y="445" type="line"/>
			<point x="331" y="445" type="line"/>
			<point x="331" y="454" type="line"/>
			<point x="311" y="454" type="line"/>
			<point x="311" y="429" type="line"/>
			<point x="290" y="429" type="line"/>
			<point x="290" y="415" type="line"/>
			<point x="279" y="415" type="line"/>
			<point x="279" y="454" type="line"/>
			<point x="269" y="454" type="line"/>
		</contour>
		<contour>
			<point x="419" y="246" type="line"/>
			<point x="471" y="246" type="line"/>
			<point x="471" y="255" type="line"/>
			<point x="425" y="255" type="line"/>
			<point x="425" y="321" type="line"/>
			<point x="471" y="321" type="line"/>
			<point x="471" y="329" type="line"/>
			<point x="419" y="329" type="line"/>
		</contour>
		<contour>
			<point x="51" y="619" type="line"/>
			<point x="59" y="619" type="line"/>
			<point x="59" y="655" type="line"/>
			<point x="91" y="655" type="line"/>
			<point x="91" y="664" type="line"/>
			<point x="59" y="664" type="line"/>
			<point x="59" y="691" type="line"/>
			<point x="109" y="691" type="line"/>
			<point x="109" y="700" type="line"/>
			<point x="51" y="700" type="line"/>
		</contour>
		<contour>
			<point x="579" y="124" type="line"/>
			<point x="586" y="124" type="line"/>
			<point x="586" y="199" type="line"/>
			<point x="595" y="199" type="line"/>
			<point x="595" y="174" type="line"/>
			<point x="606" y="174" type="line"/>
			<point x="606" y="149" type="line"/>
			<point x="619" y="149" type="line"/>
			<point x="619" y="124" type="line"/>
			<point x="645" y="124" type="line"/>
			<point x="645" y="205" type="line"/>
			<point x="635" y="205" type="line"/>
			<point x="635" y="131" type="line"/>
			<point x="629" y="131" type="line"/>
			<point x="629" y="156" type="line"/>
			<point x="615" y="156" type="line"/>
			<point x="615" y="181" type="line"/>
			<point x="604" y="181" type="line"/>
			<point x="604" y="205" type="line"/>
			<point x="579" y="205" type="line"/>
		</contour>
		<contour>
			<point x="211" y="495" type="line"/>
			<point x="220" y="495" type="line"/>
			<point x="220" y="569" type="line"/>
			<point x="229" y="569" type="line"/>
			<point x="229" y="544" type="line"/>
			<point x="241" y="544" type="line"/>
			<point x="241" y="519" type="line"/>
			<point x="254" y="519" type="line"/>
			<point x="254" y="495" type="line"/>
			<point x="279" y="495" type="line"/>
			<point x="279" y="576" type="line"/>
			<point x="269" y="576" type="line"/>
			<point x="269" y="501" type="line"/>
			<point x="261" y="501" type="line"/>
			<point x="261" y="526" type="line"/>
			<point x="249" y="526" type="line"/>
			<point x="249" y="551" type="line"/>
			<point x="236" y="551" type="line"/>
			<point x="236" y="576" type="line"/>
			<point x="211" y="576" type="line"/>
		</contour>
		<contour>
			<point x="516" y="246" type="line"/>
			<point x="525" y="246" type="line"/>
			<point x="525" y="321" type="line"/>
			<point x="554" y="321" type="line"/>
			<point x="554" y="329" type="line"/>
			<point x="489" y="329" type="line"/>
			<point x="489" y="321" type="line"/>
			<point x="516" y="321" type="line"/>
		</contour>
		<contour>
			<point x="161" y="619" type="line"/>
			<point x="171" y="619" type="line"/>
			<point x="171" y="655" type="line"/>
			<point x="199" y="655" type="line"/>
			<point x="199" y="700" type="line"/>
			<point x="191" y="700" type="line"/>
			<point x="191" y="664" type="line"/>
			<point x="141" y="664" type="line"/>
			<point x="141" y="700" type="line"/>
			<point x="134" y="700" type="line"/>
			<point x="134" y="655" type="line"/>
			<point x="161" y="655" type="line"/>
		</contour>
		<contour>
			<point x="385" y="371" type="line"/>
			<point x="394" y="371" type="line"/>
			<point x="394" y="445" type="line"/>
			<point x="401" y="445" type="line"/>
			<point x="401" y="420" type="line"/>
			<point x="414" y="420" type="line"/>
			<point x="414" y="395" type="line"/>
			<point x="425" y="395" type="line"/>
			<point x="425" y="371" type="line"/>
			<point x="435" y="371" type="line"/>
			<point x="435" y="395" type="line"/>
			<point x="446" y="395" type="line"/>
			<point x="446" y="420" type="line"/>
			<point x="459" y="420" type="line"/>
			<point x="459" y="445" type="line"/>
			<point x="466" y="445" type="line"/>
			<point x="466" y="371" type="line"/>
			<point x="475" y="371" type="line"/>
			<point x="475" y="454" type="line"/>
			<point x="451" y="454" type="line"/>
			<point x="451" y="429" type="line"/>
			<point x="439" y="429" type="line"/>
			<point x="439" y="404" type="line"/>
			<point x="421" y="404" type="line"/>
			<point x="421" y="429" type="line"/>
			<point x="409" y="429" type="line"/>
			<point x="409" y="454" type="line"/>
			<point x="385" y="454" type="line"/>
		</contour>
		<contour>
			<point x="665" y="124" type="line"/>
			<point x="721" y="124" type="line"/>
			<point x="721" y="131" type="line"/>
			<point x="674" y="131" type="line"/>
			<point x="674" y="161" type="line"/>
			<point x="705" y="161" type="line"/>
			<point x="705" y="169" type="line"/>
			<point x="674" y="169" type="line"/>
			<point x="674" y="199" type="line"/>
			<point x="721" y="199" type="line"/>
			<point x="721" y="205" type="line"/>
			<point x="665" y="205" type="line"/>
		</contour>
		<contour>
			<point x="324" y="495" type="line"/>
			<point x="331" y="495" type="line"/>
			<point x="331" y="569" type="line"/>
			<point x="360" y="569" type="line"/>
			<point x="360" y="576" type="line"/>
			<point x="295" y="576" type="line"/>
			<point x="295" y="569" type="line"/>
			<point x="324" y="569" type="line"/>
		</contour>
		<contour>
			<point x="222" y="619" type="line"/>
			<point x="285" y="619" type="line"/>
			<point x="285" y="700" type="line"/>
			<point x="222" y="700" type="line"/>
		</contour>
		<contour>
			<point x="230" y="627" type="line"/>
			<point x="230" y="691" type="line"/>
			<point x="276" y="691" type="line"/>
			<point x="276" y="627" type="line"/>
		</contour>
		<contour>
			<point x="505" y="371" type="line"/>
			<point x="561" y="371" type="line"/>
			<point x="561" y="379" type="line"/>
			<point x="511" y="379" type="line"/>
			<point x="511" y="409" type="line"/>
			<point x="545" y="409" type="line"/>
			<point x="545" y="415" type="line"/>
			<point x="511" y="415" type="line"/>
			<point x="511" y="445" type="line"/>
			<point x="561" y="445" type="line"/>
			<point x="561" y="454" type="line"/>
			<point x="505" y="454" type="line"/>
		</contour>
		<contour>
			<point x="570" y="246" type="line"/>
			<point x="769" y="246" type="line"/>
			<point x="769" y="329" type="line"/>
			<point x="570" y="329" type="line"/>
		</contour>
		<contour>
			<point x="394" y="495" type="line"/>
			<point x="401" y="495" type="line"/>
			<point x="401" y="569" type="line"/>
			<point x="409" y="569" type="line"/>
			<point x="409" y="544" type="line"/>
			<point x="421" y="544" type="line"/>
			<point x="421" y="519" type="line"/>
			<point x="435" y="519" type="line"/>
			<point x="435" y="495" type="line"/>
			<point x="441" y="495" type="line"/>
			<point x="441" y="519" type="line"/>
			<point x="455" y="519" type="line"/>
			<point x="455" y="544" type="line"/>
			<point x="466" y="544" type="line"/>
			<point x="466" y="569" type="line"/>
			<point x="475" y="569" type="line"/>
			<point x="475" y="495" type="line"/>
			<point x="484" y="495" type="line"/>
			<point x="484" y="576" type="line"/>
			<point x="459" y="576" type="line"/>
			<point x="459" y="551" type="line"/>
			<point x="446" y="551" type="line"/>
			<point x="446" y="526" type="line"/>
			<point x="430" y="526" type="line"/>
			<point x="430" y="551" type="line"/>
			<point x="419" y="551" type="line"/>
			<point x="419" y="576" type="line"/>
			<point x="394" y="576" type="line"/>
		</contour>
		<contour>
			<point x="311" y="619" type="line"/>
			<point x="374" y="619" type="line"/>
			<point x="374" y="700" type="line"/>
			<point x="365" y="700" type="line"/>
			<point x="365" y="627" type="line"/>
			<point x="319" y="627" type="line"/>
			<point x="319" y="700" type="line"/>
			<point x="311" y="700" type="line"/>
		</contour>
		<contour>
			<point x="611" y="371" type="line"/>
			<point x="674" y="371" type="line"/>
			<point x="674" y="454" type="line"/>
			<point x="611" y="454" type="line"/>
		</contour>
		<contour>
			<point x="619" y="379" type="line"/>
			<point x="619" y="445" type="line"/>
			<point x="665" y="445" type="line"/>
			<point x="665" y="379" type="line"/>
		</contour>
		<contour>
			<point x="509" y="495" type="line"/>
			<point x="570" y="495" type="line"/>
			<point x="570" y="576" type="line"/>
			<point x="509" y="576" type="line"/>
		</contour>
		<contour>
			<point x="516" y="501" type="line"/>
			<point x="516" y="569" type="line"/>
			<point x="561" y="569" type="line"/>
			<point x="561" y="501" type="line"/>
		</contour>
		<contour>
			<point x="699" y="371" type="line"/>
			<point x="705" y="371" type="line"/>
			<point x="705" y="404" type="line"/>
			<point x="759" y="404" type="line"/>
			<point x="759" y="371" type="line"/>
			<point x="769" y="371" type="line"/>
			<point x="769" y="411" type="line"/>
			<point x="744" y="411" type="line"/>
			<point x="744" y="454" type="line"/>
			<point x="699" y="454" type="line"/>
		</contour>
		<contour>
			<point x="705" y="411" type="line"/>
			<point x="705" y="445" type="line"/>
			<point x="735" y="445" type="line"/>
			<point x="735" y="411" type="line"/>
		</contour>
		<contour>
			<point x="591" y="495" type="line"/>
			<point x="599" y="495" type="line"/>
			<point x="599" y="526" type="line"/>
			<point x="651" y="526" type="line"/>
			<point x="651" y="495" type="line"/>
			<point x="661" y="495" type="line"/>
			<point x="661" y="535" type="line"/>
			<point x="635" y="535" type="line"/>
			<point x="635" y="576" type="line"/>
			<point x="591" y="576" type="line"/>
		</contour>
		<contour>
			<point x="599" y="535" type="line"/>
			<point x="599" y="569" type="line"/>
			<point x="629" y="569" type="line"/>
			<point x="629" y="535" type="line"/>
		</contour>
		<contour>
			<point x="676" y="495" type="line"/>
			<point x="735" y="495" type="line"/>
			<point x="735" y="501" type="line"/>
			<point x="685" y="501" type="line"/>
			<point x="685" y="531" type="line"/>
			<point x="719" y="531" type="line"/>
			<point x="719" y="539" type="line"/>
			<point x="685" y="539" type="line"/>
			<point x="685" y="569" type="line"/>
			<point x="735" y="569" type="line"/>
			<point x="735" y="576" type="line"/>
			<point x="676" y="576" type="line"/>
		</contour>
		<contour>
			<point x="401" y="619" type="line"/>
			<point x="769" y="619" type="line"/>
			<point x="769" y="700" type="line"/>
			<point x="401" y="700" type="line"/>
		</contour>
		<contour>
			<point x="755" y="481" type="line"/>
			<point x="764" y="481" type="line"/>
			<point x="764" y="506" type="line"/>
			<point x="751" y="506" type="line"/>
			<point x="751" y="495" type="line"/>
			<point x="755" y="495" type="line"/>
		</contour>
	</outline>
</glyph>
<glyph name="f_f_l" format="2">
	<advance width="1010"/>
	<outline>
		<contour>
			<point x="0" y="0" type="line"/>
			<point x="332" y="0" type="line"/>
			<point x="332" y="4" type="line"/>
			<point x="330" y="6"/>
			<point x="206" y="34"/>
			<point x="206" y="34" type="curve"/>
			<point x="206" y="433" type="line"/>
			<point x="529" y="433" type="line"/>
			<point x="559" y="500" type="line"/>
			<point x="206" y="500" type="line"/>
			<point x="206" y="594"/>
			<point x="252" y="677"/>
			<point x="322" y="677" type="curve" smooth="yes"/>
			<point x="394" y="677"/>
			<point x="454" y="610"/>
			<point x="454" y="538" type="curve"/>
			<point x="506" y="638" type="line"/>
			<point x="506" y="674"/>
			<point x="421" y="719"/>
			<point x="368" y="719" type="curve" smooth="yes"/>
			<point x="256" y="719"/>
			<point x="116" y="627"/>
			<point x="108" y="496" type="curve"/>
			<point x="18" y="437" type="line"/>
			<point x="18" y="433" type="line"/>
			<point x="96" y="433" type="line"/>
			<point x="96" y="32" type="line"/>
			<point x="96" y="32"/>
			<point x="2" y="6"/>
			<point x="0" y="4" type="curve"/>
		</contour>
		<component base="f_l" xOffset="327"/>
	</outline>
</glyph>
<glyph name="f_i" format="2">
	<advance width="634"/>
	<outline>
		<contour>
			<point x="0" y="0" type="line"/>
			<point x="634" y="0" type="line"/>
			<point x="634" y="4" type="line"/>
			<point x="529" y="35" type="line"/>
			<point x="529" y="508" type="line"/>
			<point x="522" y="509" type="line"/>
			<point x="498" y="501"/>
			<point x="488" y="500"/>
			<point x="455" y="500" type="curve" smooth="yes"/>
			<point x="204" y="500" type="line"/>
			<point x="204" y="556"/>
			<point x="208" y="716"/>
			<point x="289" y="716" type="curve" smooth="yes"/>
			<point x="329" y="716"/>
			<point x="362" y="674"/>
			<point x="409" y="628" type="curve" smooth="yes"/>
			<point x="473" y="565" type="line"/>
			<point x="559" y="649" type="line"/>
			<point x="495" y="709" type="line" smooth="yes"/>
			<point x="460" y="742"/>
			<point x="400" y="759"/>
			<point x="334" y="759" type="curve" smooth="yes"/>
			<point x="222" y="759"/>
			<point x="114" y="627"/>
			<point x="106" y="496" type="curve"/>
			<point x="16" y="437" type="line"/>
			<point x="16" y="433" type="line"/>
			<point x="94" y="433" type="line"/>
			<point x="94" y="32" type="line"/>
			<point x="0" y="5" type="line"/>
		</contour>
		<contour>
			<point x="321" y="7" type="line"/>
			<point x="204" y="34" type="line"/>
			<point x="204" y="433" type="line"/>
			<point x="366" y="433" type="line" smooth="yes"/>
			<point x="406" y="433"/>
			<point x="417" y="411"/>
			<point x="417" y="388" type="curve" smooth="yes"/>
			<point x="417" y="35" type="line"/>
		</contour>
	</outline>
</glyph>
<glyph name="f_l" format="2">
	<advance width="683"/>
	<outline>
		<contour>
			<point x="0" y="0" type="line"/>
			<point x="332" y="0" type="line"/>
			<point x="332" y="4" type="line"/>
			<point x="330" y="6"/>
			<point x="206" y="34"/>
			<point x="206" y="34" type="curve"/>
			<point x="206" y="433" type="line"/>
			<point x="329" y="433" type="line"/>
			<point x="359" y="500" type="line"/>
			<point x="206" y="500" type="line"/>
			<point x="206" y="594"/>
			<point x="233" y="718"/>
			<point x="310" y="718" type="curve" smooth="yes"/>
			<point x="392" y="718"/>
			<point x="412" y="622"/>
			<point x="368" y="539" type="curve"/>
			<point x="372" y="536" type="line"/>
			<point x="406" y="561"/>
			<point x="440" y="595"/>
			<point x="465" y="628" type="curve"/>
			<point x="469" y="627" type="line"/>
			<point x="469" y="35" type="line"/>
			<point x="364" y="4" type="line"/>
			<point x="364" y="0" type="line"/>
			<point x="678" y="0" type="line"/>
			<point x="678" y="4" type="line"/>
			<point x="677" y="5"/>
			<point x="581" y="35"/>
			<point x="581" y="35" type="curve"/>
			<point x="581" y="761" type="line"/>
			<point x="574" y="762" type="line"/>
			<point x="474" y="652"/>
			<point x="447" y="759"/>
			<point x="344" y="759" type="curve" smooth="yes"/>
			<point x="238" y="759"/>
			<point x="116" y="627"/>
			<point x="108" y="496" type="curve"/>
			<point x="18" y="437" type="line"/>
			<point x="18" y="433" type="line"/>
			<point x="96" y="433" type="line"/>
			<point x="96" y="32" type="line"/>
			<point x="96" y="32"/>
			<point x="2" y="6"/>
			<point x="0" y="4" type="curve"/>
		</contour>
	</outline>
</glyph>
